<?xml version="1.0" standalone="no"?>
<!DOCTYPE svg PUBLIC "-//W3C//DTD SVG 1.1//EN" "http://www.w3.org/Graphics/SVG/1.1/DTD/svg11.dtd" >
<svg>
<metadata>
Created by FontForge 20090914 at Thu Jul 19 16:11:13 2018
 By www-data
Copyright &#194;&#169; 2013, Natanael Gama (www.ndiscovered.com . info(at)ndiscovered.com), with Reserved Font Name Exo. This Font Software is licensed under the SIL Open Font License, Version 1.1.
</metadata>
<defs>
<font id="Exo2-Regular" horiz-adv-x="570" >
  <font-face 
    font-family="Exo 2"
    font-weight="400"
    font-stretch="normal"
    units-per-em="1000"
    panose-1="0 0 5 0 0 0 0 0 0 0"
    ascent="800"
    descent="-200"
    x-height="487"
    cap-height="690"
    bbox="-174 -275 1218 935"
    underline-thickness="50"
    underline-position="-50"
    unicode-range="U+0020-U+FB02"
  />
<missing-glyph horiz-adv-x="600" 
 />
    <glyph glyph-name=".notdef" horiz-adv-x="600" 
 />
    <glyph glyph-name="space" unicode=" " horiz-adv-x="223" 
 />
    <glyph glyph-name="exclam" unicode="!" horiz-adv-x="273" 
d="M179 389l-8 -178h-68l-9 178v306h85v-306zM126 118h22c11.333 0 19.5 -2.33301 24.5 -7s7.5 -13 7.5 -25v-54c0 -12 -2.5 -20.333 -7.5 -25s-13.167 -7 -24.5 -7h-22c-11.333 -0 -19.333 2.33301 -24 7s-7 13 -7 25v54c0 12 2.33301 20.333 7 25s12.667 7 24 7z" />
    <glyph glyph-name="quotedbl" unicode="&#x22;" horiz-adv-x="353" 
d="M134 475h-59l-5 215h70zM278 475h-58l-6 215h69z" />
    <glyph glyph-name="numbersign" unicode="#" horiz-adv-x="685" 
d="M520 448l-32 -180h110l-11 -55h-108l-37 -213h-68l37 213h-183l-37 -213h-68l37 213h-116l11 55h114l32 180h-115l11 55h113l33 187h68l-33 -187h183l33 187h68l-33 -187h111l-11 -55h-109zM452 448h-183l-32 -180h183z" />
    <glyph glyph-name="dollar" unicode="$" horiz-adv-x="564" 
d="M315 385l58.0029 -14.998c51.333 -12.667 87.5 -34.334 108.5 -65.001s31.5 -73.667 31.5 -129c0 -76 -17.167 -126.333 -51.5 -151s-94.5 -37 -180.5 -37h-2l-9 -115h-46l9 116c-60 2.66699 -115.333 8.66699 -166 18l6 67
c21.333 -0.666992 44.5 -1.33398 69.5 -2.00098s44.667 -1.16699 59 -1.5s27.166 -0.5 38.499 -0.5l18 242l-64 16c-48.667 12 -83.667 33.5 -105 64.5s-32 73.5 -32 127.5c0 40 4.16699 72.167 12.5 96.5s22.666 42.666 42.999 54.999s43 20.5 68 24.5s58.5 6 100.5 6h12
l7 97h45l-7 -99c55.333 -2 104.666 -8 147.999 -18l-6 -64c-54 2.66699 -103.333 4.33398 -148 5.00098zM287.003 623.002l-2.00098 -0.000976562c-29.333 0 -51 -0.666992 -65 -2s-27.667 -5.33301 -41 -12s-22.166 -17.167 -26.499 -31.5s-6.5 -34.166 -6.5 -59.499
c0 -36.667 6.5 -62.667 19.5 -78s35.833 -27 68.5 -35l36 -9zM303.002 300.001l-17.999 -230.001c54 0 90.5 6.83301 109.5 20.5s28.5 42.834 28.5 87.501c0 38 -6.33301 64.5 -19 79.5s-35.334 26.5 -68.001 34.5z" />
    <glyph glyph-name="percent" unicode="%" horiz-adv-x="894" 
d="M207 703c59.333 0 101 -15.667 125 -47s36 -84 36 -158s-12 -126.667 -36 -158s-65.667 -47 -125 -47c-58.667 0 -100 15.667 -124 47s-36 84 -36 158s12 126.667 36 158s65.333 47 124 47zM252 0h-60l447 690h60zM207 649c-36 0 -60.833 -11.167 -74.5 -33.5
s-20.5 -61.5 -20.5 -117.5s6.83301 -95.167 20.5 -117.5s38.5 -33.5 74.5 -33.5s60.833 11 74.5 33s20.5 61.333 20.5 118c0 56 -6.83301 95.167 -20.5 117.5s-38.5 33.5 -74.5 33.5zM686 400c58.667 0 100 -15.667 124 -47s36 -83.666 36 -156.999
c0 -74 -12 -126.667 -36 -158s-65.333 -47 -124 -47s-100 15.667 -124 47s-36 84 -36 158c0 73.333 12 125.666 36 156.999s65.333 47 124 47zM685 346c-36 0 -60.833 -10.832 -74.5 -32.499s-20.167 -60.834 -19.5 -117.501c-0.666992 -56.667 5.83301 -96.167 19.5 -118.5
s38.5 -33.5 74.5 -33.5s61 11.167 75 33.5s21 61.833 21 118.5c0 56 -7 95 -21 117s-39 33 -75 33z" />
    <glyph glyph-name="ampersand" unicode="&#x26;" horiz-adv-x="772" 
d="M715 66l9.99902 -62.001c-30 -8.66699 -65.333 -13 -106 -13c-69.333 0 -109.333 28.667 -120 86c-29.333 -31.333 -61.666 -53.666 -96.999 -66.999s-79.666 -20 -132.999 -20c-73.333 0 -125.333 13.667 -156 41s-46 75.333 -46 144c0 55.333 10.333 98.333 31 129
s55.334 48 104.001 52v4c-40.667 4 -70 19.167 -88 45.5s-27 64.833 -27 115.5c0 40 4.66699 71.833 14 95.5s25.666 41.667 48.999 54s49.5 20.333 78.5 24s68.833 5.5 119.5 5.5c61.333 0 114.333 -3.33301 159 -10l-10 -65c-26.667 2 -77.334 3 -152.001 3
c-66 0 -110.667 -7.33301 -134 -22s-35 -47 -35 -97c0 -46 9.66699 -77.167 29 -93.5s54.333 -24.5 105 -24.5h188l8 128h71v-128h125v-67h-125v-193c0 -23.333 4.83301 -40 14.5 -50s26.167 -15 49.5 -15h74zM496.999 323.999l-191.001 0.000976562
c-55.333 0 -93.666 -9.5 -114.999 -28.5s-32 -54.5 -32 -106.5c0 -46.667 9.33301 -78.834 28 -96.501s52.667 -26.5 102 -26.5c88 0.666992 157.333 27 208 79v179z" />
    <glyph glyph-name="quotesingle" unicode="'" horiz-adv-x="209" 
d="M134 475h-59l-5 215h70z" />
    <glyph glyph-name="parenleft" unicode="(" horiz-adv-x="359" 
d="M317 790l11 -40.999c-66 -32 -114.333 -83.833 -145 -155.5s-46 -165.167 -46 -280.5c0 -226 63.667 -371.667 191 -437l-11 -41c-90.667 34.667 -157.167 90.667 -199.5 168s-63.5 180.333 -63.5 309c0 129.333 21.167 232.666 63.5 309.999s108.833 133.333 199.5 168z
" />
    <glyph glyph-name="parenright" unicode=")" horiz-adv-x="359" 
d="M32 749l10 41c90.667 -34.667 157.334 -90.5 200.001 -167.5s64 -180.5 64 -310.5c0 -128.667 -21.333 -231.667 -64 -309s-109.334 -133.333 -200.001 -168l-10 41c65.333 34 113.333 87 144 159s46 164.667 46 278c0 115.333 -15.333 208.833 -46 280.5
s-78.667 123.5 -144 155.5z" />
    <glyph glyph-name="asterisk" unicode="*" horiz-adv-x="450" 
d="M243 530l100 -129l-41 -30l-77 123l-77 -122l-42 30l100 128l-7 161h52zM189 555v-22l-11 -14l-124 33l17 49zM397 551l-125 -32l-12 14v22l120 46z" />
    <glyph glyph-name="plus" unicode="+" horiz-adv-x="551" 
d="M494 267h-187v-177h-65v177h-186v64h186v176h66v-176h186v-64z" />
    <glyph glyph-name="comma" unicode="," horiz-adv-x="228" 
d="M102 118h25.001c12 0 20.167 -2.33301 24.5 -7s6.5 -13 6.5 -25v-64c-0.666992 -56.667 -12.334 -108 -35.001 -154l-40 12c6.66699 39.333 10 79.333 10 120c-16 -0 -24 9.33301 -24 28v58c0.666992 21.333 11.667 32 33 32z" />
    <glyph glyph-name="hyphen" unicode="-" horiz-adv-x="449" 
d="M377 220h-305v65h305v-65z" />
    <glyph glyph-name="period" unicode="." horiz-adv-x="229" 
d="M100 118h28c12 0 20.333 -2.33301 25 -7s7 -13 7 -25v-54c0 -12 -2.33301 -20.333 -7 -25s-13 -7 -25 -7h-28c-11.333 -0 -19.5 2.33301 -24.5 7s-7.5 13 -7.5 25v54c0 12 2.5 20.333 7.5 25s13.167 7 24.5 7z" />
    <glyph glyph-name="slash" unicode="/" horiz-adv-x="517" 
d="M97 -66h-70l393 756h70z" />
    <glyph glyph-name="zero" unicode="0" horiz-adv-x="603" 
d="M301 703c87.333 0 148.833 -27.667 184.5 -83s53.5 -147 53.5 -275s-17.833 -219.667 -53.5 -275s-97.167 -83 -184.5 -83s-148.666 27.667 -183.999 83s-53 147 -53 275s17.667 219.667 53 275s96.666 83 183.999 83zM301 626c-56.667 0 -96 -21 -118 -63
s-33 -114.667 -33 -218s11 -176 33 -218s61.333 -63 118 -63s96.167 21 118.5 63s33.5 114.667 33.5 218s-11.167 176 -33.5 218s-61.833 63 -118.5 63z" />
    <glyph glyph-name="one" unicode="1" horiz-adv-x="398" 
d="M286 0h-88v547c0 23.333 1.66699 43.333 5 60l-169 -53l-12 65l176 71h88v-690z" />
    <glyph glyph-name="two" unicode="2" horiz-adv-x="562" 
d="M67 608l-5.99902 67.999c74 17.333 144 26 210 26c72.667 0 126.167 -10.167 160.5 -30.5s51.5 -59.833 51.5 -118.5c0 -43.333 -9 -83.166 -27 -119.499s-50 -80.166 -96 -131.499l-198 -221c31.333 2.66699 68.666 4 111.999 4h234v-85h-453v55
c0 16 4.33301 28.667 13 38l200 226c45.333 48.667 78 91.167 98 127.5s29.333 70.5 28 102.5c-0.666992 31.333 -11.167 51.666 -31.5 60.999s-52.833 14 -97.5 14c-66.667 0 -132.667 -5.33301 -198 -16z" />
    <glyph glyph-name="three" unicode="3" horiz-adv-x="556" 
d="M71 617l-6.99902 68.001c68 12 132.667 18 194 18c77.333 0 132.166 -11.667 164.499 -35s48.5 -65 48.5 -125c0 -102.667 -33.667 -160.667 -101 -174v-4c42.667 -7.33301 73 -25.333 91 -54s27.667 -68.334 29 -119.001c1.33301 -71.333 -14.834 -123.333 -48.501 -156
s-90.5 -49 -170.5 -49c-62 0 -135 6 -219 18l6 71c75.333 -6.66699 139 -10 191 -10c56 0 95.667 10 119 30s35 55 35 105c0 42 -9.5 73.667 -28.5 95s-55.167 32 -108.5 32h-128v69h128c49.333 0.666992 81.833 12 97.5 34s23.5 52.667 23.5 92
c-0.666992 42 -10.667 69.5 -30 82.5s-56.333 19.5 -111 19.5c-55.333 0 -113.666 -2.66699 -174.999 -8z" />
    <glyph glyph-name="four" unicode="4" horiz-adv-x="615" 
d="M571 178l-88.999 -9v-169h-83v169h-286c-28 0 -48.833 11.333 -62.5 34s-14.834 47 -3.50098 73l196 414h87l-193 -408c-5.33301 -13.333 -5.5 -23.5 -0.5 -30.5s13.5 -10.5 25.5 -10.5h237v203l15 114h68v-317h89v-63z" />
    <glyph glyph-name="five" unicode="5" horiz-adv-x="536" 
d="M456 615l-290.002 -0.000976562l-10 -188l74 -6c92 -6.66699 156.833 -25.667 194.5 -57s56.167 -83.666 55.5 -156.999c0 -24 -1.66699 -45.833 -5 -65.5s-9.83301 -39.334 -19.5 -59.001s-22.5 -36.167 -38.5 -49.5s-37.5 -24.166 -64.5 -32.499
s-58.833 -12.5 -95.5 -12.5c-64 0 -132.333 8.33301 -205 25l10 71c67.333 -12 125.666 -18 174.999 -18c61.333 0 102.5 11 123.5 33s32.167 58 33.5 108c0.666992 21.333 -0.5 39.5 -3.5 54.5s-9.33301 27.667 -19 38s-19 18.333 -28 24s-24.667 10.5 -47 14.5
s-42.166 6.83301 -59.499 8.5s-43.666 3.5 -78.999 5.5l-46 3c-10 1.33301 -18.167 5.5 -24.5 12.5s-9.16602 15.833 -8.49902 26.5l16 296h365z" />
    <glyph glyph-name="six" unicode="6" horiz-adv-x="572" 
d="M473 687l-7.99707 -64.001c-29.333 2.66699 -73 4 -131 4c-34 0 -61.167 -3 -81.5 -9s-38.166 -17.833 -53.499 -35.5s-26.333 -42.667 -33 -75s-10.667 -75.5 -12 -129.5c24 26.667 49.167 45.334 75.5 56.001s59.166 16 98.499 16c72 0 121.5 -16.667 148.5 -50
s40.5 -92.333 40.5 -177c0 -38.667 -2.66699 -71.167 -8 -97.5s-15.5 -50.5 -30.5 -72.5s-37.333 -38.333 -67 -49s-67.167 -16 -112.5 -16c-40 0 -73.167 3.66699 -99.5 11s-48.5 18.333 -66.5 33s-31.833 36 -41.5 64s-16.334 60 -20.001 96s-5.5 81.333 -5.5 136
c0 64.667 3.66699 119.167 11 163.5s17.5 80.333 30.5 108s31 49 54 64s47.667 25.167 74 30.5s59.166 8 98.499 8c55.333 0 101.666 -5 138.999 -15zM300.003 62.999c55.333 0 91.334 12.334 108.001 37.001s25 65.667 25 123c0 58 -8.83301 98.5 -26.5 121.5
s-51.5 34.5 -101.5 34.5c-28.667 0 -54.167 -4.5 -76.5 -13.5s-47.5 -25.833 -75.5 -50.5c0 -42.667 0.833008 -76.334 2.5 -101.001s5.16699 -48 10.5 -70s13.5 -38.167 24.5 -48.5s25.167 -18.333 42.5 -24s39.666 -8.5 66.999 -8.5z" />
    <glyph glyph-name="seven" unicode="7" horiz-adv-x="512" 
d="M39 690h390c20.667 0 35 -5.33301 43 -16s9 -25.667 3 -45l-215 -629h-88l194 564c6 18 13 35 21 51h-344z" />
    <glyph glyph-name="eight" unicode="8" horiz-adv-x="607" 
d="M183 356l-0.000976562 4.00098c-66 7.33301 -99 60 -99 158c0 65.333 15.5 112 46.5 140s88.833 42 173.5 42s142.334 -13.833 173.001 -41.5s46 -74.5 46 -140.5c0 -98 -32.667 -150.667 -98 -158v-4c41.333 -4 70.5 -21.333 87.5 -52s25.5 -74.667 25.5 -132
c0 -65.333 -16.167 -111.833 -48.5 -139.5s-94.166 -41.834 -185.499 -42.501c-90 -0.666992 -151.667 13 -185 41s-50 75 -50 141c0 57.333 8.66699 101.333 26 132s46.666 48 87.999 52zM304.999 629.001c-56 0 -93.332 -8.33301 -111.999 -25s-28 -48 -28 -94
c0 -47.333 9.16699 -78.666 27.5 -93.999s56.166 -23 113.499 -23s94.5 7.66699 111.5 23s25.5 46.666 25.5 93.999c0 46 -9 77.333 -27 94s-55 25 -111 25zM306 323.001c-62.667 -0.666992 -104.001 -9.66797 -124.001 -27.001s-30 -52.666 -30 -105.999
c0 -47.333 10.333 -79.833 31 -97.5s61.334 -26.5 122.001 -26.5c59.333 0 99 8.66699 119 26s30 50 30 98c0 54.667 -9.5 90.5 -28.5 107.5s-58.833 25.5 -119.5 25.5z" />
    <glyph glyph-name="nine" unicode="9" horiz-adv-x="572" 
d="M87 3l8.00098 65c32 -2.66699 79 -4 141 -4c46 0 81.167 6.66699 105.5 20s42.666 38 54.999 74s19.5 88.333 21.5 157c-24.667 -28.667 -50.167 -48.334 -76.5 -59.001s-59.5 -16 -99.5 -16c-124.667 0 -187 75 -187 225c0 82 16.667 142 50 180s90.333 57 171 57
c34 0 62.833 -2.33301 86.5 -7s44.167 -13 61.5 -25s31 -26 41 -42s17.833 -38.167 23.5 -66.5s9.5 -58.166 11.5 -89.499s3 -71 3 -119c0 -77.333 -4.66699 -139.833 -14 -187.5s-25.5 -84.667 -48.5 -111s-50 -44 -81 -53s-72.167 -13.5 -123.5 -13.5
c-58 0 -107.667 5 -149 15zM265.001 310c29.333 0 55.167 4.66797 77.5 14.001s47.5 26.666 75.5 51.999c0 36 -0.5 64.833 -1.5 86.5s-3.16699 43.167 -6.5 64.5s-8 37.333 -14 48s-14.333 20.5 -25 29.5s-23.667 15 -39 18s-34.333 4.5 -57 4.5
c-54 0 -90.333 -13 -109 -39s-27.667 -67 -27 -123c-0.666992 -52.667 8.33301 -91.667 27 -117s51.667 -38 99 -38z" />
    <glyph glyph-name="colon" unicode=":" horiz-adv-x="236" 
d="M101 440h28c11.333 0 19.5 -2.33301 24.5 -7s7.5 -12.667 7.5 -24v-55c0 -12 -2.5 -20.333 -7.5 -25s-13.167 -7 -24.5 -7h-28c-11.333 0 -19.5 2.33301 -24.5 7s-7.5 13 -7.5 25v55c0 11.333 2.5 19.333 7.5 24s13.167 7 24.5 7zM101 118h28
c11.333 0 19.5 -2.33301 24.5 -7s7.5 -13 7.5 -25v-54c0 -12 -2.5 -20.333 -7.5 -25s-13.167 -7 -24.5 -7h-28c-11.333 -0 -19.5 2.33301 -24.5 7s-7.5 13 -7.5 25v54c0 12 2.5 20.333 7.5 25s13.167 7 24.5 7z" />
    <glyph glyph-name="semicolon" unicode=";" horiz-adv-x="237" 
d="M105 440h29c11.333 0 19.333 -2.33301 24 -7s7 -12.667 7 -24v-55c0 -12 -2.33301 -20.333 -7 -25s-12.667 -7 -24 -7h-29c-11.333 0 -19.333 2.33301 -24 7s-7 13 -7 25v55c0 11.333 2.33301 19.333 7 24s12.667 7 24 7zM107 118h25c12 0 20.167 -2.33301 24.5 -7
s6.5 -13 6.5 -25v-64c-0.666992 -56 -12 -107.333 -34 -154l-41 12c6.66699 39.333 10 79.333 10 120c-16 -0 -24 9.33301 -24 28v58c0.666992 12 3.5 20.333 8.5 25s13.167 7 24.5 7z" />
    <glyph glyph-name="less" unicode="&#x3c;" horiz-adv-x="530" 
d="M459 438l-332 -140l332 -137v-68l-406 171v68l406 174v-68z" />
    <glyph glyph-name="equal" unicode="=" horiz-adv-x="585" 
d="M512 367h-438v63h438v-63zM512 155h-438v64h438v-64z" />
    <glyph glyph-name="greater" unicode="&#x3e;" horiz-adv-x="530" 
d="M477 332v-68l-406 -171v68l332 137l-332 140v68z" />
    <glyph glyph-name="question" unicode="?" horiz-adv-x="505" 
d="M45 630l-4.99902 60.9971c4.66699 0.666992 15 2.5 31 5.5s26.333 4.83301 31 5.5l28 4c14 2 26 3.16699 36 3.5s23.333 0.833008 40 1.5s34.667 1 54 1c134.667 0 202 -51.667 202 -155c0 -23.333 -4.33301 -45.166 -13 -65.499s-19.667 -37.666 -33 -51.999l-43 -47
l-43 -48.5c-13.333 -15.333 -24.833 -34.666 -34.5 -57.999s-14.834 -48.333 -15.501 -75h-73c-0.666992 34 4.5 65.333 15.5 94s24.5 52.5 40.5 71.5s32.167 37 48.5 54s30.333 34.833 42 53.5s17.834 38 18.501 58c1.33301 33.333 -8.5 58 -29.5 74s-54.5 24 -100.5 24
c-56.667 0 -122.334 -3.33301 -197.001 -10zM232.001 117.997h23c11.333 0 19.333 -2.33301 24 -7s7 -13 7 -25v-54c0 -12 -2.33301 -20.333 -7 -25s-12.667 -7 -24 -7h-23c-11.333 0 -19.333 2.33301 -24 7s-7 13 -7 25v54c0 12 2.33301 20.333 7 25s12.667 7 24 7z" />
    <glyph glyph-name="at" unicode="@" horiz-adv-x="718" 
d="M352 585l142.999 0.00195312c50 0 87.667 -11.167 113 -33.5s38 -58.5 38 -108.5v-311h-64l-8 75c-20.667 -21.333 -49.5 -40.5 -86.5 -57.5s-74.5 -25.5 -112.5 -25.5c-40 0 -71.833 10.167 -95.5 30.5s-35.5 49.833 -35.5 88.5v51c0 32.667 9.83301 58 29.5 76
s48.167 27 85.5 27h207v43c0 27.333 -6.16699 46.5 -18.5 57.5s-34.833 16.5 -67.5 16.5h-128c-32.667 0 -57.667 -0.5 -75 -1.5s-34.666 -4.5 -51.999 -10.5s-29.5 -13.5 -36.5 -22.5s-13.5 -23.667 -19.5 -44s-9.66699 -43.166 -11 -68.499s-2 -59 -2 -101
c0 -32.667 0.333008 -59.834 1 -81.501s2.83398 -42 6.50098 -61s7.16699 -34 10.5 -45s10 -21 20 -30s19.333 -15.5 28 -19.5s22.5 -7.33301 41.5 -10s36.5 -4.16699 52.5 -4.5s39 -0.5 69 -0.5h258v-64c-90.667 -5.33301 -176.334 -8 -257.001 -8
c-50 -0.666992 -90.333 0.166016 -121 2.49902s-58.667 8 -84 17s-44 20 -56 33s-22.333 33 -31 60s-14 56 -16 87s-3 72.5 -3 124.5c0 50.667 1 91.167 3 121.5s6.66699 58.5 14 84.5s16.5 45.333 27.5 58s27.833 23.667 50.5 33s47.5 15.166 74.5 17.499
s62.833 3.83301 107.5 4.5zM565.999 345.002l-178 -4.00098c-23.333 -0.666992 -39.833 -5.5 -49.5 -14.5s-14.5 -23.167 -14.5 -42.5v-26c0 -44 22 -66 66 -66c29.333 0 60.5 5.83301 93.5 17.5s60.5 27.834 82.5 48.501v87z" />
    <glyph glyph-name="A" unicode="A" horiz-adv-x="622" 
d="M453 216h-284l-68 -216h-91l222 666c4 16 15 24 33 24h92c18 0 29 -8 33 -24l222 -666h-91zM429 292l-87 274c-6 17.333 -11.667 36 -17 56h-28l-17 -56l-87 -274h236z" />
    <glyph glyph-name="B" unicode="B" horiz-adv-x="620" 
d="M424 360v-4.00195c50 -4.66699 85.5 -22.167 106.5 -52.5s31.5 -74.166 31.5 -131.499c0 -69.333 -16.333 -116.666 -49 -141.999s-89.667 -38 -171 -38c-110.667 0 -195.667 2.66699 -255 8v690c52.667 5.33301 127.334 8 224.001 8c86 0 145.833 -12.5 179.5 -37.5
s50.5 -72.5 50.5 -142.5c0 -50 -9.33301 -87.833 -28 -113.5s-48.334 -40.5 -89.001 -44.5zM173 390.998h148.001c51.333 0.666992 86.666 9 105.999 25s29 46.667 29 92c0 46 -10.5 76.667 -31.5 92s-60.167 23 -117.5 23h-134v-232zM173.001 323.998v-256.001
c27.333 -0.666992 79 -1 155 -1c56 0 94.167 8 114.5 24s30.5 48 30.5 96c0 52.667 -10.833 88.334 -32.5 107.001s-61.167 28.667 -118.5 30h-149z" />
    <glyph glyph-name="C" unicode="C" 
d="M525 77l9 -66c-55.333 -15.333 -122.666 -23 -201.999 -23c-99.333 0 -169.333 26.667 -210 80s-61 145.666 -61 276.999s20.333 223.666 61 276.999s110.667 80 210 80c71.333 0 134 -6.66699 188 -20l-9 -67c-60 6 -119.667 9 -179 9
c-67.333 0 -113.833 -20.167 -139.5 -60.5s-38.5 -113.166 -38.5 -218.499s12.833 -178.166 38.5 -218.499s72.167 -60.5 139.5 -60.5c77.333 0 141.666 3.66699 192.999 11z" />
    <glyph glyph-name="D" unicode="D" horiz-adv-x="664" 
d="M87 0v690.002c86.667 6 168.667 9 246 9c99.333 0 169 -25.833 209 -77.5s60 -143.834 60 -276.501s-20 -224.834 -60 -276.501s-109.667 -77.5 -209 -77.5c-77.333 0 -159.333 3 -246 9zM175 621.002l0.000976562 -551c60 -1.33301 112.667 -2 158 -2
c66 0 112 20.167 138 60.5s39 112.5 39 216.5s-13 176.333 -39 217s-72 61 -138 61c-42.667 0 -95.334 -0.666992 -158.001 -2z" />
    <glyph glyph-name="E" unicode="E" horiz-adv-x="560" 
d="M506 73l4 -68.002c-61.333 -4 -160 -6 -296 -6c-40.667 0 -72.834 10.833 -96.501 32.5s-35.834 50.834 -36.501 87.501v452c0.666992 36.667 12.834 65.834 36.501 87.501s55.834 32.5 96.501 32.5c136 0 234.667 -2 296 -6l-4 -69h-277c-40 0 -60 -22 -60 -66v-150h298
v-71h-298v-189c0 -44.667 20 -67 60 -67h277z" />
    <glyph glyph-name="F" unicode="F" horiz-adv-x="539" 
d="M499 616l-258.999 -0.000976562c-23.333 0 -40.333 -5.16699 -51 -15.5s-16 -27.166 -16 -50.499v-160h288v-71h-288v-319h-88v567c0 39.333 12 69.833 36 91.5s56.333 32.5 97 32.5c131.333 0 226.666 -2.33301 285.999 -7z" />
    <glyph glyph-name="G" unicode="G" horiz-adv-x="628" 
d="M496 0l-9.99902 73.002c-58.667 -57.333 -127.334 -86 -206.001 -86c-76.667 0 -132.167 28.667 -166.5 86s-51.5 148.666 -51.5 273.999c0 135.333 21 228.5 63 279.5s117 76.5 225 76.5c72.667 0 136.667 -7 192 -21l-9 -66c-56 5.33301 -115.333 8 -178 8
c-52.667 0 -92.5 -6.83301 -119.5 -20.5s-47.167 -40.834 -60.5 -81.501s-20 -101 -20 -181c0 -102 11 -173.667 33 -215s60.667 -62 116 -62c52 0 108.667 22.333 170 67v268h86v-399h-64z" />
    <glyph glyph-name="H" unicode="H" horiz-adv-x="668" 
d="M581 690v-690h-88v331h-318v-331h-88v690h88v-283h318v283h88z" />
    <glyph glyph-name="I" unicode="I" horiz-adv-x="262" 
d="M175 0h-88v690h88v-690z" />
    <glyph glyph-name="J" unicode="J" horiz-adv-x="340" 
d="M256 690v-545c0 -50.667 -11.5 -89 -34.5 -115s-56.167 -39 -99.5 -39c-37.333 0 -68 4.33301 -92 13l10 62h50c52 0 78 25.333 78 76v548h88z" />
    <glyph glyph-name="K" unicode="K" horiz-adv-x="591" 
d="M253 324l-85 -0.000976562c4 -25.333 6 -49.666 6 -72.999v-251h-87v690h87v-216c0 -26.667 -2 -53 -6 -79h84l210 295h96l-201 -286c-8 -12 -20.667 -26.667 -38 -44v-2c18.667 -18 33 -34 43 -48l210 -310h-99z" />
    <glyph glyph-name="L" unicode="L" horiz-adv-x="514" 
d="M172 690v-550c0 -44 22.333 -66 67 -66h249l4 -68c-58 -4.66699 -147 -7 -267 -7c-93.333 0 -140 43.333 -140 130v561h87z" />
    <glyph glyph-name="M" unicode="M" horiz-adv-x="877" 
d="M640 690h99.001c24 0 36 -12.333 36 -37l29 -653h-88l-25 617h-21l-154 -509c-5.33301 -20 -18 -30 -38 -30h-79c-20.667 0 -34 10 -40 30l-154 509h-20l-24 -617h-88l27 653c1.33301 24.667 13.666 37 36.999 37h100c18.667 0 31 -10 37 -30l129 -421
c4 -12 9.16699 -29.833 15.5 -53.5s9.83301 -36.834 10.5 -39.501h18l11.5 43.5c5.66699 21.667 10.5 38.834 14.5 51.501l129 419c5.33301 20 18 30 38 30z" />
    <glyph glyph-name="N" unicode="N" horiz-adv-x="705" 
d="M618 690l-0.000976562 -654.999c0 -23.333 -11.333 -35 -34 -35h-86c-18 0 -31 9.33301 -39 28l-233 489c-22.667 49.333 -35.667 79.666 -39 90.999h-16c2.66699 -26.667 4 -57 4 -91v-517h-88v655c0 23.333 11.667 35 35 35h83c18 0 31 -9.33301 39 -28l226 -477
c16.667 -32.667 32.334 -66 47.001 -100h17c-2 36 -3 71 -3 105v500h87z" />
    <glyph glyph-name="O" unicode="O" horiz-adv-x="668" 
d="M334 703c101.333 0 172 -26.167 212 -78.5s60 -145.5 60 -279.5s-20 -227.167 -60 -279.5s-110.667 -78.5 -212 -78.5s-172.166 26.167 -212.499 78.5s-60.5 145.5 -60.5 279.5s20.167 227.167 60.5 279.5s111.166 78.5 212.499 78.5zM334 624
c-68 0 -115 -20.167 -141 -60.5s-39 -113.166 -39 -218.499s13 -178.166 39 -218.499s73 -60.5 141 -60.5s115 20.167 141 60.5s39 113.166 39 218.499s-13 178.166 -39 218.499s-73 60.5 -141 60.5z" />
    <glyph glyph-name="P" unicode="P" horiz-adv-x="590" 
d="M87 0v689.998c56 6 135 9 237 9c84 0 142 -15.167 174 -45.5s48 -87.166 48 -170.499s-15.5 -140.166 -46.5 -170.499s-86.167 -45.5 -165.5 -45.5c-54.667 0 -107.667 3 -159 9v-276h-88zM175 342.998h148c51.333 0.666992 86.5 10.5 105.5 29.5s28.5 55.833 28.5 110.5
s-9.66699 91.667 -29 111s-54.333 29 -105 29c-72.667 0 -122 -0.333008 -148 -1v-279z" />
    <glyph glyph-name="Q" unicode="Q" horiz-adv-x="669" 
d="M335 703c101.333 0 172 -26.167 212 -78.5s60 -145.5 60 -279.5s-20 -227.167 -60 -279.5s-110.667 -78.5 -212 -78.5s-172.166 26.167 -212.499 78.5s-60.5 145.5 -60.5 279.5s20.167 227.167 60.5 279.5s111.166 78.5 212.499 78.5zM335 624
c-68 0 -115 -20.167 -141 -60.5s-39 -113.166 -39 -218.499s13 -178.166 39 -218.499s73 -60.5 141 -60.5c67.333 0 114.166 20.167 140.499 60.5s39.5 113.166 39.5 218.499s-13.167 178.166 -39.5 218.499s-73.166 60.5 -140.499 60.5zM269 -96l25.001 53
c73.333 -32 161.666 -55.333 264.999 -70l-28 -88c-86.667 17.333 -174 52.333 -262 105z" />
    <glyph glyph-name="R" unicode="R" horiz-adv-x="618" 
d="M573 0h-93.9971l-61 216c-8.66699 26 -20.334 44.5 -35.001 55.5s-33.667 16.5 -57 16.5s-51.833 0.166992 -85.5 0.5s-55.834 0.5 -66.501 0.5v-289h-87v690c56 6 135.333 9 238 9c82 0 139.667 -14.167 173 -42.5s50 -80.5 50 -156.5
c0 -56.667 -9.83301 -99 -29.5 -127s-52.167 -45 -97.5 -51v-5c18.667 -4.66699 35.667 -15.5 51 -32.5s26.666 -39.167 33.999 -66.5zM174.003 364h149c52 0.666992 87.667 10 107 28s29 52.333 29 103c0 50 -9.66699 83.833 -29 101.5s-55 26.5 -107 26.5
c-73.333 0 -123 -0.333008 -149 -1v-258z" />
    <glyph glyph-name="S" unicode="S" horiz-adv-x="561" 
d="M334 292l-143 36.001c-48.667 12 -83.5 33.5 -104.5 64.5s-31.5 73.5 -31.5 127.5c0 40 4.16699 72.167 12.5 96.5s22.666 42.666 42.999 54.999s43 20.5 68 24.5s58.5 6 100.5 6c81.333 -1.33301 149.666 -8 204.999 -20l-6 -64c-64.667 3.33301 -129.667 5 -195 5
c-29.333 0 -51 -0.666992 -65 -2s-27.667 -5.33301 -41 -12s-22.166 -17.167 -26.499 -31.5s-6.5 -34.166 -6.5 -59.499c0 -36.667 6.5 -62.667 19.5 -78s35.5 -27 67.5 -35l140 -35c51.333 -12.667 87.333 -34.334 108 -65.001s31 -73.667 31 -129
c0 -76 -17.167 -126.333 -51.5 -151s-94.166 -37 -179.499 -37c-72.667 0 -144 6.33301 -214 19l6 65c112 -4 182.333 -5.66699 211 -5c54.667 0 91.5 7 110.5 21s28.5 44 28.5 90c0 38 -6.5 64.5 -19.5 79.5s-35.5 26.5 -67.5 34.5z" />
    <glyph glyph-name="T" unicode="T" horiz-adv-x="581" 
d="M557 612h-223v-612h-88v612h-222v78h533v-78z" />
    <glyph glyph-name="U" unicode="U" horiz-adv-x="666" 
d="M584 690l-0.000976562 -426c0 -100.667 -18.667 -172 -56 -214s-101 -63 -191 -63c-93.333 0 -159.166 21 -197.499 63s-57.5 113.333 -57.5 214v426h88v-426c0 -74 12 -125.5 36 -154.5s66.333 -43.5 127 -43.5c60 0 102.167 14.5 126.5 43.5s36.5 80.5 36.5 154.5v426
h88z" />
    <glyph glyph-name="V" unicode="V" horiz-adv-x="609" 
d="M592 690l-209 -664.999c-6 -16.667 -17.333 -25 -34 -25h-89c-18 0 -29.333 8.33301 -34 25l-209 665h91l163 -547c9.33301 -33.333 16 -58.333 20 -75h27c6.66699 27.333 13.667 52.666 21 75.999l162 546h91z" />
    <glyph glyph-name="W" unicode="W" horiz-adv-x="948" 
d="M917 690l-139.999 -663.999c-4.66699 -17.333 -16.334 -26 -35.001 -26h-100c-19.333 0 -30.666 9 -33.999 27l-108 519c-4 17.333 -9.33301 43.333 -16 78h-21l-15 -78l-107 -519c-4.66699 -18 -16.334 -27 -35.001 -27h-101c-8.66699 0 -16.167 2.5 -22.5 7.5
s-10.166 11.167 -11.499 18.5l-140 664h93l108 -538c1.33301 -6 6 -34.333 14 -85h23c5.33301 31.333 10.666 59.666 15.999 84.999l107 509c3.33301 19.333 14.666 29 33.999 29h96c18 0 29.333 -9.66699 34 -29l107 -509c6.66699 -32.667 11.334 -61 14.001 -85h25
c6 40 10.333 68 13 84l109 539h93z" />
    <glyph glyph-name="X" unicode="X" horiz-adv-x="611" 
d="M318 324h-26l-171 -324h-96l194 357l-181 333h95l158 -298h29l158 298h95l-182 -333l195 -357h-96z" />
    <glyph glyph-name="Y" unicode="Y" horiz-adv-x="569" 
d="M328 242v-242h-88v243l-229 447h94l145 -291c8 -16 18.333 -42 31 -78h7c10.667 29.333 21 55 31 77l145 292h93z" />
    <glyph glyph-name="Z" unicode="Z" horiz-adv-x="566" 
d="M519 75v-75h-471v75l368 540h-362v75h458v-75l-366 -540h373z" />
    <glyph glyph-name="bracketleft" unicode="[" horiz-adv-x="329" 
d="M288 712h-101.999c-9.33301 0 -14 -5.33301 -14 -16v-789c0 -10.667 4.66699 -16 14 -16h102v-56h-143c-36 0 -54 18 -54 54v825c0 16 5.16699 29 15.5 39s23.166 15 38.499 15h143v-56z" />
    <glyph glyph-name="backslash" unicode="\" horiz-adv-x="518" 
d="M491 -66h-71l-393 756h71z" />
    <glyph glyph-name="bracketright" unicode="]" horiz-adv-x="329" 
d="M41 768h142c16 0 29 -5 39 -15s15 -23 15 -39v-825c0 -16 -5 -29 -15 -39s-23 -15 -39 -15h-142v56h101c10 0 15 5.33301 15 16v789c0 10.667 -5 16 -15 16h-101v56z" />
    <glyph glyph-name="asciicircum" unicode="^" horiz-adv-x="426" 
d="M396 390l-34 -22l-144 174h-8l-145 -174l-35 22l153 210h61z" />
    <glyph glyph-name="underscore" unicode="_" horiz-adv-x="578" 
d="M508 -65h-438v65h438v-65z" />
    <glyph glyph-name="grave" unicode="`" horiz-adv-x="315" 
d="M250 577l-29 -39l-192 120l48 65z" />
    <glyph glyph-name="a" unicode="a" horiz-adv-x="549" 
d="M81 414l-8 63c89.333 14.667 167.666 22 234.999 22c56.667 0 98.667 -11.833 126 -35.5s41 -63.834 41 -120.501v-343h-67l-10 80c-23.333 -23.333 -52.5 -44 -87.5 -62s-72.833 -27 -113.5 -27c-44.667 0 -80.167 11.833 -106.5 35.5s-39.5 57.167 -39.5 100.5v53
c0 38 11.833 67.5 35.5 88.5s56.834 31.5 99.501 31.5h203v43c0 30.667 -7 52.334 -21 65.001s-40 19 -78 19c-48 0 -117.667 -4.33301 -209 -13zM138 168l0.00195312 -31.001c0 -25.333 6 -43.833 18 -55.5s31.333 -17.5 58 -17.5
c25.333 -0.666992 54.166 5.33301 86.499 18s61.833 31 88.5 55v98h-188c-22.667 -0.666992 -38.834 -6.66699 -48.501 -18s-14.5 -27.666 -14.5 -48.999z" />
    <glyph glyph-name="b" unicode="b" 
d="M161 700v-182c0 -46.667 -3 -82.667 -9 -108c58 59.333 120.667 89 188 89c60.667 0 105.167 -19.833 133.5 -59.5s42.5 -104.5 42.5 -194.5c0 -88 -16 -152.833 -48 -194.5s-88 -62.5 -168 -62.5c-83.333 0 -158 11.667 -224 35v677h85zM161 353l0.000976562 -276.001
c44.667 -12.667 90.334 -18.334 137.001 -17.001c47.333 0.666992 80.666 14.5 99.999 41.5s29.333 74.833 30 143.5c-0.666992 68.667 -9 115.834 -25 141.501s-47 38.5 -93 38.5c-23.333 0 -45.833 -5.66699 -67.5 -17s-48.834 -29.666 -81.501 -54.999z" />
    <glyph glyph-name="c" unicode="c" horiz-adv-x="489" 
d="M443 70l9 -57c-48 -16.667 -103.667 -25 -167 -25c-84 0 -143.5 19.167 -178.5 57.5s-52.5 104.5 -52.5 198.5s17.5 160 52.5 198s94.833 57 179.5 57c64 0 116.333 -7.66699 157 -23l-11 -55c-44 4 -88 6 -132 6c-58.667 0 -99.334 -13 -122.001 -39s-34 -74 -34 -144
c0 -70.667 11.333 -119 34 -145s63.334 -39 122.001 -39c53.333 0 101 3.33301 143 10z" />
    <glyph glyph-name="d" unicode="d" horiz-adv-x="573" 
d="M494 700v-700h-66l-8 70c-62 -54.667 -126.333 -82 -193 -82c-60 0 -103.5 21.167 -130.5 63.5s-40.5 106.833 -40.5 193.5c0 92.667 14.667 158.167 44 196.5s76 57.5 140 57.5c63.333 0 121 -15 173 -45c-2.66699 29.333 -4 61.333 -4 96v150h85zM409 129
l-0.000976562 269c-64 18 -113.667 27 -149 27c-43.333 0 -73.666 -12.333 -90.999 -37s-26 -72 -26 -142s8.5 -118.167 25.5 -144.5s45.833 -39.5 86.5 -39.5c25.333 0 48.333 4.83301 69 14.5s49 27.167 85 52.5z" />
    <glyph glyph-name="e" unicode="e" horiz-adv-x="537" 
d="M371 202l-227 -0.000976562c4.66699 -56 18.334 -93.667 41.001 -113s60.334 -29 113.001 -29c55.333 0 111.666 4 168.999 12l9 -57c-43.333 -18 -106.333 -27 -189 -27c-84 0 -143.833 19.5 -179.5 58.5s-53.5 105.167 -53.5 198.5c0 94 17.333 159.833 52 197.5
s92 56.5 172 56.5c72.667 0 125.667 -13.167 159 -39.5s50 -66.166 50 -119.499c1.33301 -92 -37.334 -138 -116.001 -138zM143 267.999h206c35.333 0 53 24 53 72c-0.666992 31.333 -10 53.666 -28 66.999s-48.667 20 -92 20c-51.333 0 -87 -11.167 -107 -33.5
s-30.667 -64.166 -32 -125.499z" />
    <glyph glyph-name="f" unicode="f" horiz-adv-x="380" 
d="M388 647h-100c-32 0 -54.5 -6.16699 -67.5 -18.5s-19.5 -33.5 -19.5 -63.5v-78h156v-67h-156v-420h-85v420h-88v62l88 4v88c0 47.333 11 83 33 107s58.333 36 109 36c56 0 101.667 -2.33301 137 -7z" />
    <glyph glyph-name="g" unicode="g" horiz-adv-x="558" 
d="M531 440l-71.998 -5.99902c13.333 -22 20 -52 20 -90c0 -54.667 -15.667 -94.167 -47 -118.5s-85.333 -36.5 -162 -36.5c-37.333 0 -71 3.33301 -101 10c-12.667 -15.333 -16.334 -32.166 -11.001 -50.499s20.333 -29.5 45 -33.5l182 -29
c45.333 -6.66699 77.166 -20.834 95.499 -42.501s27.5 -53.167 27.5 -94.5c0 -56.667 -16.833 -96 -50.5 -118s-94.167 -33 -181.5 -33c-88 0 -149.167 10.833 -183.5 32.5s-51.5 60.167 -51.5 115.5c0 28.667 6 51.667 18 69s32.333 33.666 61 48.999
c-24.667 19.333 -36 45 -34 77s14.667 57 38 75c-41.333 22 -62 64.333 -62 127c0 56 15.5 96 46.5 120s85.167 36 162.5 36c46 0 83.667 -4 113 -12h152zM270.002 254.001c48 0 81.667 6.83301 101 20.5s29 36.834 29 69.501s-9.5 55.834 -28.5 69.501
s-52.833 20.5 -101.5 20.5c-48 0 -81.667 -6.83301 -101 -20.5s-29 -36.834 -29 -69.501s9.66699 -55.834 29 -69.501s53 -20.5 101 -20.5zM341.002 23.001l-166 23c-34 -26 -51 -57 -51 -93c0 -34 10 -56.333 30 -67s60.333 -16 121 -16c59.333 0 99.166 5.5 119.499 16.5
s30.5 33.167 30.5 66.5c0 24 -5.16699 40.333 -15.5 49s-33.166 15.667 -68.499 21z" />
    <glyph glyph-name="h" unicode="h" horiz-adv-x="581" 
d="M164 700v-193c0 -37.333 -2 -69 -6 -95c78.667 58 150.667 87 216 87c88 0 132 -44.667 132 -134v-365h-86v341c0 32 -5.16699 54.333 -15.5 67s-28.166 19 -53.499 19c-27.333 0 -54.833 -6 -82.5 -18s-62.834 -31.333 -105.501 -58v-351h-85v700h86z" />
    <glyph glyph-name="i" unicode="i" horiz-adv-x="248" 
d="M104 694h40c17.333 0 26 -8.66699 26 -26v-57c0 -17.333 -8.66699 -26 -26 -26h-40c-17.333 0 -26 8.66699 -26 26v57c0 17.333 8.66699 26 26 26zM166 0h-84v487h84v-487z" />
    <glyph glyph-name="j" unicode="j" horiz-adv-x="250" 
d="M106 694h40c16.667 0 25 -8.66699 25 -26v-57c0 -17.333 -8.33301 -26 -25 -26h-40c-17.333 0 -26 8.66699 -26 26v57c0 17.333 8.66699 26 26 26zM168 487v-499c0 -38.667 -8.33301 -74.667 -25 -108s-39.667 -61 -69 -83l-47 37c37.333 46 56 97.333 56 154v499h85z
" />
    <glyph glyph-name="k" unicode="k" horiz-adv-x="509" 
d="M224 244l-65.999 0.000976562c3.33301 -30 5 -56 5 -78v-166h-85v700h86v-311c0 -32.667 -1.66699 -60.334 -5 -83.001h64l154 181h99l-153 -179c-10 -14 -21.333 -25 -34 -33v-2c13.333 -10 24.666 -23 33.999 -39l169 -234h-99z" />
    <glyph glyph-name="l" unicode="l" horiz-adv-x="297" 
d="M164 700l0.000976562 -566c-0.666992 -21.333 4.66602 -37.5 15.999 -48.5s28 -16.5 50 -16.5h47l10 -65c-18 -8.66699 -47.667 -13 -89 -13c-36.667 0 -65.667 10.833 -87 32.5s-32 52.167 -32 91.5v585h85z" />
    <glyph glyph-name="m" unicode="m" horiz-adv-x="876" 
d="M148 487l5.00195 -76.999c68.667 59.333 135 89 199 89c68 0 109 -28.667 123 -86c66 57.333 131.333 86 196 86c42 0 74.167 -11.333 96.5 -34s33.5 -56 33.5 -100v-365h-84v341c-0.666992 30 -6.83398 51.833 -18.501 65.5s-30.834 20.5 -57.501 20.5
c-23.333 0 -45.833 -5.33301 -67.5 -16s-52.5 -30.667 -92.5 -60v-351h-82v341c0 30.667 -6.16699 52.667 -18.5 66s-31.5 20 -57.5 20c-23.333 0 -45.833 -5.33301 -67.5 -16s-52.5 -30.334 -92.5 -59.001v-352h-85v487h70z" />
    <glyph glyph-name="n" unicode="n" horiz-adv-x="581" 
d="M150 487l5.99902 -77c78.667 59.333 151.334 89 218.001 89c88 0 132 -44.667 132 -134v-365h-85v341c0 32 -5.33301 54.333 -16 67s-28.667 19 -54 19c-26.667 0 -53.5 -6 -80.5 -18s-62.833 -31.667 -107.5 -59v-350h-85v487h72z" />
    <glyph glyph-name="o" unicode="o" horiz-adv-x="568" 
d="M284 499c84 0 143.167 -19.333 177.5 -58s51.5 -104.667 51.5 -198s-17.167 -159.333 -51.5 -198s-93.5 -58 -177.5 -58c-83.333 0 -142.333 19.333 -177 58s-52 104.667 -52 198s17.333 159.333 52 198s93.667 58 177 58zM284 427c-53.333 0 -90 -13 -110 -39
s-30 -74.333 -30 -145s10 -119 30 -145s56.667 -39 110 -39s90.166 13 110.499 39s30.5 74.333 30.5 145s-10.167 119 -30.5 145s-57.166 39 -110.499 39z" />
    <glyph glyph-name="p" unicode="p" horiz-adv-x="580" 
d="M148 487l7 -77.998c26 28 57.333 50 94 66s72.667 24 108 24c58 0 100.333 -21.333 127 -64s40 -107.334 40 -194.001c0 -92 -14.667 -157.167 -44 -195.5s-76 -57.5 -140 -57.5s-124 16.667 -180 50c2 -22.667 3 -55.334 3 -98.001v-141h-85v688h70zM163 350.002
l-0.000976562 -257.999c68 -20 120 -30 156 -30c44 0 74.667 12.333 92 37s26 72 26 142c0 68 -8.16699 115.667 -24.5 143s-44.166 41 -83.499 41c-25.333 0 -50.5 -5.83301 -75.5 -17.5s-55.167 -30.834 -90.5 -57.501z" />
    <glyph glyph-name="q" unicode="q" 
d="M494 -201h-86v167c0 42 2.66699 75.333 8 100c-63.333 -52.667 -128 -79 -194 -79c-56.667 0 -98.667 20.5 -126 61.5s-41 105.5 -41 193.5c0 88.667 16 153.667 48 195s89 62 171 62c80 0 153.333 -11.333 220 -34v-666zM409 128v281.998
c-45.333 12.667 -90.666 18.334 -135.999 17.001c-49.333 -1.33301 -83.5 -15.166 -102.5 -41.499s-28.5 -76.166 -28.5 -149.499c0 -62 7.66699 -106.5 23 -133.5s43.666 -40.5 84.999 -40.5c26.667 0 51.5 5.16699 74.5 15.5s51.167 27.166 84.5 50.499z" />
    <glyph glyph-name="r" unicode="r" horiz-adv-x="401" 
d="M383 499l-9.99902 -80h-28c-24.667 0 -50.167 -4.83301 -76.5 -14.5s-61.5 -25.5 -105.5 -47.5v-357h-85v487h66l9 -77c75.333 59.333 144.666 89 207.999 89h22z" />
    <glyph glyph-name="s" unicode="s" horiz-adv-x="508" 
d="M300 197l-140.001 32c-40 9.33301 -68.333 24.333 -85 45s-25 51 -25 91c0 54 14.167 90.167 42.5 108.5s77.5 26.833 147.5 25.5c78 -1.33301 146.333 -6.33301 205 -15l-7 -62c-101.333 3.33301 -163 5 -185 5c-49.333 0.666992 -81.666 -2.33301 -96.999 -9
s-23 -24.334 -23 -53.001c0 -23.333 5.16699 -39.333 15.5 -48s28.833 -16 55.5 -22l142 -32c40 -10 68.833 -24.833 86.5 -44.5s26.5 -49.5 26.5 -89.5c0 -56.667 -15.667 -94.167 -47 -112.5s-85 -27.5 -161 -27.5c-68 0 -131.667 4.66699 -191 14l6 62
c56.667 -3.33301 112.667 -4.66602 168 -3.99902c56.667 0 94.667 4.33301 114 13s29 27 29 55c0 22 -5.83301 37.167 -17.5 45.5s-31.5 15.833 -59.5 22.5z" />
    <glyph glyph-name="t" unicode="t" horiz-adv-x="381" 
d="M200 420l0.000976562 -286.001c0 -23.333 5 -40 15 -50s27 -15 51 -15h74l10 -65c-30.667 -8.66699 -67.334 -13 -110.001 -13c-40.667 0 -71.667 11.333 -93 34s-32 55.334 -32 98.001v297h-88v62l88 4v145h85v-144h155v-67h-155z" />
    <glyph glyph-name="u" unicode="u" 
d="M492 487v-486.999h-68l-6 70c-73.333 -55.333 -143.333 -83 -210 -83c-88.667 0 -133 44.667 -133 134v366h85v-342c-0.666992 -30.667 5 -52.334 17 -65.001s32 -19 60 -19c24.667 0 49.667 5.5 75 16.5s57 28.833 95 53.5v356h85z" />
    <glyph glyph-name="v" unicode="v" horiz-adv-x="530" 
d="M511 487l-178 -466c-5.33301 -14 -15.333 -21 -30 -21h-77c-14.667 0 -24.667 7 -30 21l-178 466h91l120 -341l29 -85h13l30 85l120 341h90z" />
    <glyph glyph-name="w" unicode="w" horiz-adv-x="824" 
d="M799 487l-142.002 -463.001c-4 -16 -15 -24 -33 -24h-77c-8 0 -15.167 2.5 -21.5 7.5s-10.166 11.5 -11.499 19.5l-80 331c-2 9.33301 -4.66699 22.5 -8 39.5s-6 29.5 -8 37.5h-12l-17 -77l-79 -331c-4.66699 -18 -16 -27 -34 -27h-76c-18 0 -29 8 -33 24l-142 463h88
l101 -359c6 -20.667 11.333 -45 16 -73h13l18 73l81 332c3.33301 18 14 27 32 27h77c16.667 0 27.334 -9.33301 32.001 -28l80 -331c1.33301 -7.33301 4 -19.166 8 -35.499l9 -37.5h13l6.5 31.5c3.66699 17.667 7.16699 31.5 10.5 41.5l101 359h88z" />
    <glyph glyph-name="x" unicode="x" horiz-adv-x="528" 
d="M274 220h-20l-138 -220h-93l163 251l-151 236h92l126 -201h23l125 201h92l-151 -236l163 -251h-92z" />
    <glyph glyph-name="y" unicode="y" horiz-adv-x="529" 
d="M510 487l-195 -513.999c-42.667 -114.667 -113.667 -174.334 -213 -179.001l-8 56c38 12 67.833 28.5 89.5 49.5s39.167 47.5 52.5 79.5l8 21h-19c-16 -0 -26 7.33301 -30 22l-177 465h91l129 -363c9.33301 -27.333 15.333 -47 18 -59h14c5.33301 13.333 12.333 33 21 59
l127 363h92z" />
    <glyph glyph-name="z" unicode="z" horiz-adv-x="510" 
d="M461 69v-69h-412v69l313 348h-310v70h406v-70l-314 -348h317z" />
    <glyph glyph-name="braceleft" unicode="{" horiz-adv-x="319" 
d="M276 768l-0.000976562 -53.9971c-34 0 -57.5 -6.33301 -70.5 -19s-19.5 -34.667 -19.5 -66v-179c0.666992 -40.667 -5.16602 -69.334 -17.499 -86.001s-36.166 -28.667 -71.499 -36c36.667 -11.333 61.167 -25 73.5 -41s18.833 -41.667 19.5 -77v-237
c0 -30.667 6.5 -52.334 19.5 -65.001s36.5 -19 70.5 -19v-54c-60 -4.66699 -103.667 4.33301 -131 27s-41 58 -41 106v256c0 12.667 -0.833008 22.667 -2.5 30s-6 13.833 -13 19.5s-12.833 9.66699 -17.5 12s-14.334 6.16602 -29.001 11.499v62c26 8 42.167 15.5 48.5 22.5
s9.5 25.167 9.5 54.5v199c0 48 13.667 83.333 41 106s71 31.667 131 27z" />
    <glyph glyph-name="bar" unicode="|" horiz-adv-x="246" 
d="M154 -169h-62v950h62v-950z" />
    <glyph glyph-name="braceright" unicode="}" horiz-adv-x="320" 
d="M44 714l-0.00195312 53.999c60 4.66699 103.667 -4.33301 131 -27s41 -58 41 -106v-199c0 -29.333 3.16699 -47.5 9.5 -54.5s22.5 -14.5 48.5 -22.5v-62c-18.667 -6.66699 -31.167 -11.834 -37.5 -15.501s-12 -10 -17 -19s-7.5 -21.833 -7.5 -38.5v-256
c0 -48 -13.667 -83.333 -41 -106s-71 -31.667 -131 -27v54c34 0 57.5 6.33301 70.5 19s19.5 34.334 19.5 65.001v237c0.666992 35.333 7.16699 61 19.5 77s36.833 29.667 73.5 41c-35.333 7.33301 -59.166 19.333 -71.499 36s-18.166 45.334 -17.499 86.001v179
c0 31.333 -6.5 53.333 -19.5 66s-36.5 19 -70.5 19z" />
    <glyph glyph-name="asciitilde" unicode="~" horiz-adv-x="525" 
d="M121 228l-44.001 0.00195312c-4.66699 40 0.333008 70.333 15 91s35.334 30.334 62.001 29.001c24.667 -1.33301 60.334 -11 107.001 -29s79.667 -28 99 -30c17.333 -2 29.166 1.16699 35.499 9.5s9.5 23.166 9.5 44.499h44
c4.66699 -38.667 -0.333008 -68.334 -15 -89.001s-35.334 -30.334 -62.001 -29.001c-28.667 1.33301 -66 11 -112 29s-77.333 28 -94 30c-17.333 2 -29.166 -1.33301 -35.499 -10s-9.5 -24 -9.5 -46z" />
    <glyph glyph-name="uni00A0" unicode="&#xa0;" horiz-adv-x="223" 
 />
    <glyph glyph-name="exclamdown" unicode="&#xa1;" horiz-adv-x="256" 
d="M118 493h22c11.333 0 19.333 -2.33301 24 -7s7 -13 7 -25v-55c0 -11.333 -2.33301 -19.333 -7 -24s-12.667 -7 -24 -7h-22c-11.333 0 -19.5 2.33301 -24.5 7s-7.5 12.667 -7.5 24v55c0 12 2.5 20.333 7.5 25s13.167 7 24.5 7zM171 104v-300h-85v300l8 178h68z" />
    <glyph glyph-name="cent" unicode="&#xa2;" horiz-adv-x="508" 
d="M442 176l8.99902 -57.001c-48 -16.667 -101 -25 -159 -25l-9 -94h-45l9 95c-70 4.66699 -119.667 26.5 -149 65.5s-44 101.833 -44 188.5c0 93.333 17.5 159.333 52.5 198s94.5 58 178.5 58h6l8 85h46l-8 -87c41.333 -3.33301 76.333 -10.666 105 -21.999l-11 -57
c-35.333 4 -69 6.66699 -101 8l-31 -367c50.667 0 98.334 3.66699 143.001 11zM253.999 167.999l30 363.999c-54.667 -2 -92.667 -16.167 -114 -42.5s-32 -73.166 -32 -140.499c0 -61.333 8.66699 -105.5 26 -132.5s47.333 -43.167 90 -48.5z" />
    <glyph glyph-name="sterling" unicode="&#xa3;" horiz-adv-x="569" 
d="M518 75v-74.999h-456v75c58 29.333 84 92 78 188l-4 75h-80v50h77l-8 133c-3.33301 73.333 10.334 121.833 41.001 145.5s80.667 35.5 150 35.5c52 0 111.667 -3.33301 179 -10l-5 -70c-47.333 2.66699 -106 4 -176 4c-40.667 0 -68.5 -7.66699 -83.5 -23
s-21.5 -43 -19.5 -83l8 -132h212l-2 -50h-207l5 -75c2 -47.333 -2.33301 -85.333 -13 -114s-30.334 -54.334 -59.001 -77.001c14.667 2 37 3 67 3h296z" />
    <glyph glyph-name="currency" unicode="&#xa4;" horiz-adv-x="594" 
d="M488 123l-73.001 71.999c-35.333 -26.667 -75 -40 -119 -40c-43.333 0 -82.666 13.333 -117.999 40l-72 -72l-40 40l72 72c-25.333 34 -38 72.667 -38 116c0 44.667 13.333 84.667 40 120l-71 71l37 38l71 -72c35.333 26.667 75 40 119 40
c45.333 0 85.333 -13.667 120 -41l72 73l38 -38l-73 -72c26 -34 39 -73.667 39 -119c0 -43.333 -13.333 -82.666 -40 -117.999l74 -73zM295.999 207.999c39.333 -0.666992 73 13.166 101 41.499s42 62.5 42 102.5s-14 74.167 -42 102.5s-61.667 42.5 -101 42.5
s-73.166 -14.167 -101.499 -42.5s-42.5 -62.5 -42.5 -102.5s14.167 -74.167 42.5 -102.5s62.166 -42.166 101.499 -41.499z" />
    <glyph glyph-name="yen" unicode="&#xa5;" horiz-adv-x="618" 
d="M353 210l178.001 -0.000976562v-51h-178v-159h-88v159h-174v51h174v53l-4 8h-169l-1 52h142l-197 367h91l145 -275c5.33301 -9.33301 12.166 -24.333 20.499 -45s12.833 -31.667 13.5 -33h7c13.333 32.667 24.333 58.334 33 77.001l144 276h92l-197 -367h146v-52h-173
l-5 -8v-53z" />
    <glyph glyph-name="brokenbar" unicode="&#xa6;" horiz-adv-x="248" 
d="M155 381h-62v400h62v-400zM155 -169h-62v400h62v-400z" />
    <glyph glyph-name="section" unicode="&#xa7;" horiz-adv-x="544" 
d="M336 322l-173.001 99.0029c-34.667 20 -60.167 41.167 -76.5 63.5s-24.5 52.5 -24.5 90.5c0 50.667 15.833 84.667 47.5 102s81.834 26 150.501 26c82.667 -1.33301 155 -5.33301 217 -12l-6 -66c-49.333 3.33301 -112.333 5 -189 5
c-31.333 0.666992 -54.666 0.166992 -69.999 -1.5s-29 -6.83398 -41 -15.501s-18 -22 -18 -40c-0.666992 -22 4.5 -39.833 15.5 -53.5s27.833 -26.834 50.5 -39.501l162 -91c46 -24.667 75.333 -56.5 88 -95.5s12 -85.5 -2 -139.5h-62
c3.33301 44 0.166016 78.667 -9.50098 104s-29.5 46.666 -59.5 63.999zM77.999 388.003l62.001 -0.00292969c-3.33301 -44.667 -0.333008 -79.167 9 -103.5s29.333 -45.166 60 -62.499l173 -98c34 -20 59.333 -41.5 76 -64.5s25 -53.5 25 -91.5
c0 -22.667 -3.16699 -42 -9.5 -58s-14.666 -28.667 -24.999 -38s-24.5 -16.666 -42.5 -21.999s-35.833 -8.66602 -53.5 -9.99902s-39.834 -2 -66.501 -2c-73.333 1.33301 -146 5.33301 -218 12l7 67c64 -4 127.333 -6.33301 190 -7c19.333 0 33.833 0.166992 43.5 0.5
s20.834 1.5 33.501 3.5s22 5.16699 28 9.5s11.167 10.333 15.5 18s6.5 17.5 6.5 29.5c0.666992 22 -4.5 40 -15.5 54s-27.167 27 -48.5 39l-162 90c-46.667 24.667 -76.334 56.167 -89.001 94.5s-12.334 84.833 0.999023 139.5z" />
    <glyph glyph-name="dieresis" unicode="&#xa8;" horiz-adv-x="411" 
d="M103 693h29c15.333 0 23 -8 23 -24v-55c0 -16 -7.66699 -24 -23 -24h-29c-15.333 0 -23 8 -23 24v55c0 16 7.66699 24 23 24zM281 693h28c16 0 24 -8 24 -24v-55c0 -16 -8 -24 -24 -24h-28c-16 0 -24 8 -24 24v55c0 16 8 24 24 24z" />
    <glyph glyph-name="copyright" unicode="&#xa9;" horiz-adv-x="836" 
d="M418 703c101.333 0 186.5 -33.833 255.5 -101.5s103.5 -153.167 103.5 -256.5s-34.5 -188.833 -103.5 -256.5s-154.167 -101.5 -255.5 -101.5c-100.667 0 -185.667 34 -255 102s-104 153.333 -104 256s34.667 188 104 256s154.333 102 255 102zM418 657
c-86.667 0 -160.334 -29.8291 -221.001 -89.4961s-91 -133.834 -91 -222.501s30.333 -162.834 91 -222.501s134.334 -89.5 221.001 -89.5s160.334 29.667 221.001 89s91 133.666 91 222.999s-30.333 163.666 -91 222.999s-134.334 89 -221.001 89zM562 191.004
l5.99902 -49.002c-41.333 -10 -89.666 -15 -144.999 -15c-71.333 0 -121.666 16.5 -150.999 49.5s-44 89.833 -44 170.5c0 81.333 14.667 138.5 44 171.5s79.666 49.5 150.999 49.5c52.667 0 97.667 -4.66699 135 -14l-8 -48c-42.667 2 -85.334 3 -128.001 3
c-48 0 -81.167 -11.667 -99.5 -35s-27.5 -65.666 -27.5 -126.999s9.16699 -103.666 27.5 -126.999s51.5 -35 99.5 -35c60.667 0 107.334 2 140.001 6z" />
    <glyph glyph-name="ordfeminine" unicode="&#xaa;" horiz-adv-x="441" 
d="M86 545l-6.99902 48.002c74.667 9.33301 133 14 175 14c38 0 66.5 -8.33301 85.5 -25s28.5 -44.334 28.5 -83.001v-227h-51l-8 61c-44.667 -44.667 -93.667 -67 -147 -67c-30 0 -53.833 7.5 -71.5 22.5s-26.5 36.5 -26.5 64.5v38c0 25.333 8.16699 45.166 24.5 59.499
s39.166 21.5 68.499 21.5h147v28c0 35.333 -21 53 -63 53c-34 0 -85.667 -2.66699 -155 -8zM127.001 385.002v-18c0 -30.667 18.333 -46 55 -46c40 0 80.667 16.333 122 49v65l-127 -8c-33.333 -2 -50 -16 -50 -42z" />
    <glyph glyph-name="guillemotleft" unicode="&#xab;" horiz-adv-x="485" 
d="M249 429l-126 -178l127 -182l-44 -30l-162 202v20l161 198zM431 429l-126 -178l127 -182l-45 -30l-161 202v20l160 198z" />
    <glyph glyph-name="logicalnot" unicode="&#xac;" horiz-adv-x="590" 
d="M512 330v-198h-66v133h-372v65h438z" />
    <glyph glyph-name="softhyphen" unicode="&#xad;" horiz-adv-x="448" 
d="M377 220h-305v65h305v-65z" />
    <glyph glyph-name="registered" unicode="&#xae;" horiz-adv-x="553" 
d="M277 702c61.333 0 113.666 -21.667 156.999 -65s65 -95.666 65 -156.999c0 -62 -21.667 -114.667 -65 -158s-95.666 -65 -156.999 -65c-62 0 -114.667 21.667 -158 65s-65 96 -65 158c0 61.333 21.667 113.666 65 156.999s96 65 158 65zM277 287
c52.667 0 97.6689 18.833 135.002 56.5s56 83.167 56 136.5s-18.667 98.833 -56 136.5s-82.333 56.5 -135 56.5s-97.834 -18.833 -135.501 -56.5s-56.5 -83.167 -56.5 -136.5s18.667 -98.833 56 -136.5s82.666 -56.5 135.999 -56.5zM330.002 473v-1.99805
c19.333 -2.66699 32.333 -15.334 39 -38.001l30 -82h-42l-28 80c-7.33301 18 -21.333 27 -42 27h-70v-107h-40v259c22.667 2 59 3 109 3c37.333 0 63.833 -5.33301 79.5 -16s23.5 -30.334 23.5 -59.001c0 -20 -4.5 -35.167 -13.5 -45.5s-24.167 -16.833 -45.5 -19.5z
M217.002 487.002l68.001 -0.000976562c24 0.666992 40.667 4.33398 50 11.001s13.666 18.667 12.999 36c0.666992 18.667 -3.5 31.167 -12.5 37.5s-25.833 9.5 -50.5 9.5h-68v-94z" />
    <glyph glyph-name="macron" unicode="&#xaf;" horiz-adv-x="400" 
d="M339 609h-278v63h278v-63z" />
    <glyph glyph-name="degree" unicode="&#xb0;" horiz-adv-x="363" 
d="M182 703c35.333 0 65.666 -12.5 90.999 -37.5s38 -54.833 38 -89.5s-12.667 -64.667 -38 -90s-55.666 -38 -90.999 -38s-65.833 12.667 -91.5 38s-38.5 55.333 -38.5 90s12.667 64.5 38 89.5s56 37.5 92 37.5zM182 651c-21.333 0 -39.333 -6.99902 -54 -20.999
s-22 -32 -22 -54c0 -21.333 7.33301 -39.333 22 -54s32.667 -22 54 -22c20.667 0 38.334 7.33301 53.001 22s22 32.667 22 54s-7.33301 39.166 -22 53.499s-32.334 21.5 -53.001 21.5z" />
    <glyph glyph-name="plusminus" unicode="&#xb1;" horiz-adv-x="588" 
d="M513 391v-64h-187v-134h-65v134h-186v64h186v133h66v-133h186zM75 134h438v-64h-438v64z" />
    <glyph glyph-name="twosuperior" unicode="&#xb2;" horiz-adv-x="435" 
d="M69 716l-3.99902 50.001c49.333 10 96.333 15 141 15c53.333 0 91.666 -6.33301 114.999 -19s35 -38 35 -76c0 -41.333 -27.333 -89.333 -82 -144l-127 -124c20 2 43 2.33301 69 1h157v-59h-312v38c0 11.333 3.66699 20.666 11 27.999l129 125
c54 52.667 81.333 95.667 82 129c0.666992 18.667 -5.5 30.667 -18.5 36s-33.833 8 -62.5 8c-44.667 0 -89 -2.66699 -133 -8z" />
    <glyph glyph-name="threesuperior" unicode="&#xb3;" horiz-adv-x="417" 
d="M72 722l-4.00098 49c47.333 7.33301 91.333 11 132 11c55.333 0 93.666 -6.83301 114.999 -20.5s32 -38.834 32 -75.501c0 -62.667 -25 -97.667 -75 -105v-2c31.333 -4 53.333 -14.667 66 -32s19.334 -41.333 20.001 -72c1.33301 -43.333 -9.5 -74.666 -32.5 -93.999
s-62.167 -29 -117.5 -29c-41.333 0 -90.666 3.66699 -147.999 11l4 50c39.333 -3.33301 82 -5 128 -5c36.667 0 62.167 5.5 76.5 16.5s21.5 30.5 21.5 58.5c0 21.333 -6.16699 38 -18.5 50s-35.166 18 -68.499 18h-85v50h85c32.667 0.666992 54.167 7.16699 64.5 19.5
s15.5 28.833 15.5 49.5c-0.666992 22 -7.33398 36.833 -20.001 44.5s-36.667 11.5 -72 11.5c-52 0 -91.667 -1.33301 -119 -4z" />
    <glyph glyph-name="acute" unicode="&#xb4;" horiz-adv-x="314" 
d="M276 658l-192 -120l-29 39l172 146z" />
    <glyph glyph-name="paragraph" unicode="&#xb6;" horiz-adv-x="593" 
d="M269 -210v411c-81.333 7.33301 -139.833 30.333 -175.5 69s-53.5 98.667 -53.5 180c0 92 23.333 157 70 195s125.334 57 236.001 57c60 0 110.333 -5.66699 151 -17v-685h-65v642c-46.667 2.66699 -79.334 4 -98.001 4v-856h-65z" />
    <glyph glyph-name="periodcentered" unicode="&#xb7;" horiz-adv-x="236" 
d="M104 317h28c11.333 0 19.5 -2.5 24.5 -7.5s7.5 -13.167 7.5 -24.5v-55c0 -11.333 -2.5 -19.333 -7.5 -24s-13.167 -7 -24.5 -7h-28c-11.333 0 -19.5 2.33301 -24.5 7s-7.5 12.667 -7.5 24v55c0 11.333 2.5 19.5 7.5 24.5s13.167 7.5 24.5 7.5z" />
    <glyph glyph-name="cedilla" unicode="&#xb8;" horiz-adv-x="234" 
d="M81 -83l9 40c40.667 4 69.5 1.33301 86.5 -8s25.167 -28.333 24.5 -57c-0.666992 -42 -16.667 -74.333 -48 -97s-71 -30.667 -119 -24l13 45c27.333 -0.666992 49.5 5.5 66.5 18.5s25.833 29.833 26.5 50.5c0.666992 12 -3 20.167 -11 24.5s-24 6.83301 -48 7.5z" />
    <glyph glyph-name="onesuperior" unicode="&#xb9;" horiz-adv-x="294" 
d="M218 360h-67v315c0 17.333 1 30.333 3 39l-111 -29l-9 46l117 43h67v-414z" />
    <glyph glyph-name="ordmasculine" unicode="&#xba;" horiz-adv-x="444" 
d="M222 607c60 0 102.167 -12.833 126.5 -38.5s36.5 -70.167 36.5 -133.5c0 -62.667 -12.167 -106.834 -36.5 -132.501s-66.5 -38.5 -126.5 -38.5s-102.167 12.833 -126.5 38.5s-36.5 69.834 -36.5 132.501c0 63.333 12.167 107.833 36.5 133.5s66.5 38.5 126.5 38.5z
M222 554c-36 0 -61.001 -8.5 -75.001 -25.5s-21 -48.167 -21 -93.5s6.83301 -76.166 20.5 -92.499s38.834 -24.5 75.501 -24.5c36 0 60.833 8.16699 74.5 24.5s20.5 47.166 20.5 92.499c0 46 -6.83301 77.333 -20.5 94s-38.5 25 -74.5 25z" />
    <glyph glyph-name="guillemotright" unicode="&#xbb;" horiz-adv-x="485" 
d="M259 261v-20l-161 -202l-45 30l127 182l-126 178l45 30zM440 261v-20l-161 -202l-45 30l128 182l-127 178l45 30z" />
    <glyph glyph-name="onequarter" unicode="&#xbc;" horiz-adv-x="863" 
d="M155 276v315c0 14.667 1.33301 27.667 4 39l-113 -29l-8 46l117 43h66v-414h-66zM645 690l-447 -690h-61l447 690h61zM821 103l-47.999 -5v-98h-63v97h-195c-18 0 -31.167 5.83301 -39.5 17.5s-8.16602 27.5 0.500977 47.5l127 252h64l-122 -242
c-2.66699 -6 -2.33398 -11.167 0.999023 -15.5s8.66602 -6.5 15.999 -6.5h148v117l12 68h51v-185h48v-47z" />
    <glyph glyph-name="onehalf" unicode="&#xbd;" horiz-adv-x="887" 
d="M221 276h-66v315c0 14.667 1.33301 27.667 4 39l-113 -29l-8 46l117 43h66v-414zM192 0h-62l448 690h61zM534 356l-4 50c49.333 10 96 15 140 15c53.333 0 91.666 -6.33301 114.999 -19s35 -38 35 -76c0 -41.333 -27.333 -89.333 -82 -144l-127 -124
c20.667 2 43.667 2.33301 69 1h157v-59h-311v38c0 12 3.33301 21.333 10 28l129 125c54.667 53.333 82.334 96.333 83.001 129c0 18.667 -6.5 30.667 -19.5 36s-33.833 8 -62.5 8c-44.667 0 -88.667 -2.66699 -132 -8z" />
    <glyph glyph-name="threequarters" unicode="&#xbe;" horiz-adv-x="954" 
d="M268 495l0.000976562 -2.00098c31.333 -4 53.5 -14.667 66.5 -32s19.833 -41.333 20.5 -72c1.33301 -43.333 -9.5 -74.666 -32.5 -93.999s-62.167 -29 -117.5 -29c-42 0 -91.667 3.66699 -149 11l4 50c39.333 -3.33301 82.333 -5 129 -5c36 0 61.333 5.5 76 16.5
s22 30.5 22 58.5c0 21.333 -6.16699 38 -18.5 50s-35.166 18 -68.499 18l-86 2v45l86 3c32 0.666992 53.167 7.16699 63.5 19.5s15.5 28.5 15.5 48.5c0 22 -6.5 37 -19.5 45s-37.167 12 -72.5 12c-50.667 0 -90.334 -1.33301 -119.001 -4l-4 49c44 6.66699 88.333 10 133 10
c55.333 0 93.666 -6.83301 114.999 -20.5s32 -38.5 32 -74.5c0 -62.667 -25.333 -97.667 -76 -105zM746.001 689.999l-447 -690h-61l447 690h61zM912.001 102.999l-51 -5v-98h-62v97h-193c-18 0 -31.167 5.83301 -39.5 17.5s-8.16602 27.5 0.500977 47.5l127 252h64
l-122 -242c-2.66699 -6 -2.33398 -11.167 0.999023 -15.5s9 -6.5 17 -6.5h145v117l11 68h51v-185h51v-47z" />
    <glyph glyph-name="questiondown" unicode="&#xbf;" horiz-adv-x="500" 
d="M250 499h21c12 0 20.333 -2.33301 25 -7s7 -12.667 7 -24v-56c0 -11.333 -2.33301 -19.333 -7 -24s-13 -7 -25 -7h-21c-12 0 -20.333 2.33301 -25 7s-7 12.667 -7 24v56c0 11.333 2.33301 19.333 7 24s13 7 25 7zM223 288l72.999 0.00195312
c0.666992 -34 -4.5 -65.333 -15.5 -94s-24.5 -52.5 -40.5 -71.5s-32.167 -36.833 -48.5 -53.5s-30.333 -34.667 -42 -54s-17.834 -39 -18.501 -59c-1.33301 -32.667 8.5 -56.834 29.5 -72.501s54.5 -23.5 100.5 -23.5c64.667 0 130.334 3 197.001 9l5 -61
c-4.66699 -0.666992 -15 -2.5 -31 -5.5s-26.333 -4.83301 -31 -5.5l-28 -4c-14 -2 -26 -3.16699 -36 -3.5s-23.333 -0.833008 -40 -1.5s-34.667 -1 -54 -1c-134.667 0 -202 51.667 -202 155c0 27.333 6 52.833 18 76.5s26.833 44.334 44.5 62.001l53 54
c17.667 18.333 32.834 40.666 45.501 66.999s19.667 55.166 21 86.499z" />
    <glyph glyph-name="Agrave" unicode="&#xc0;" horiz-adv-x="622" 
d="M332 728l-192 120l49 66l172 -147zM453 216h-284l-68 -216h-91l222 666c4 16 15 24 33 24h92c18 0 29 -8 33 -24l222 -666h-91zM429 292l-87 274c-6 17.333 -11.667 36 -17 56h-28l-17 -56l-87 -274h236z" />
    <glyph glyph-name="Aacute" unicode="&#xc1;" horiz-adv-x="622" 
d="M275 728l-29 39l172 147l49 -66zM453 216h-284l-68 -216h-91l222 666c4 16 15 24 33 24h92c18 0 29 -8 33 -24l222 -666h-91zM429 292l-87 274c-6 17.333 -11.667 36 -17 56h-28l-17 -56l-87 -274h236z" />
    <glyph glyph-name="Acircumflex" unicode="&#xc2;" horiz-adv-x="622" 
d="M177 732l-28 37l131 127h62l132 -127l-30 -37l-129 98h-8zM453 216h-284l-68 -216h-91l222 666c4 16 15 24 33 24h92c18 0 29 -8 33 -24l222 -666h-91zM429 292l-87 274c-6 17.333 -11.667 36 -17 56h-28l-17 -56l-87 -274h236z" />
    <glyph glyph-name="Atilde" unicode="&#xc3;" horiz-adv-x="622" 
d="M193 765h-39.9971c-4 38.667 1.5 68 16.5 88s35.5 29 61.5 27c21.333 -2 47.166 -11.333 77.499 -28s54.5 -26 72.5 -28s30.5 1 37.5 9s10.5 22 10.5 42h40c4 -37.333 -1.33301 -65.833 -16 -85.5s-35.334 -28.5 -62.001 -26.5c-24.667 2 -52.5 11.5 -83.5 28.5
s-53.167 26.5 -66.5 28.5c-18.667 2 -31.334 -1.33301 -38.001 -10s-10 -23.667 -10 -45zM453.003 216h-284l-68 -216h-91l222 666c4 16 15 24 33 24h92c18 0 29 -8 33 -24l222 -666h-91zM429.003 292l-87 274c-6 17.333 -11.667 36 -17 56h-28l-17 -56l-87 -274h236z" />
    <glyph glyph-name="Adieresis" unicode="&#xc4;" horiz-adv-x="622" 
d="M237 767h-29c-15.333 0 -23 8 -23 24v55c0 16 7.66699 24 23 24h29c15.333 0 23 -8 23 -24v-55c0 -16 -7.66699 -24 -23 -24zM414 767h-28c-16 0 -24 8 -24 24v55c0 16 8 24 24 24h28c16 0 24 -8 24 -24v-55c0 -16 -8 -24 -24 -24zM453 216h-284l-68 -216h-91l222 666
c4 16 15 24 33 24h92c18 0 29 -8 33 -24l222 -666h-91zM429 292l-87 274c-6 17.333 -11.667 36 -17 56h-28l-17 -56l-87 -274h236z" />
    <glyph glyph-name="Aring" unicode="&#xc5;" horiz-adv-x="622" 
d="M312 715c-30 0 -55.333 10 -76 30s-31 44.667 -31 74s10.5 54.166 31.5 74.499s46.167 30.5 75.5 30.5s54.5 -10.167 75.5 -30.5s31.5 -45.166 31.5 -74.499s-10.5 -54 -31.5 -74s-46.167 -30 -75.5 -30zM312 881c-17.333 0 -31.666 -5.66699 -42.999 -17
s-17 -26.333 -17 -45c0 -18 5.66699 -32.667 17 -44s25.666 -17 42.999 -17c16.667 0 30.667 5.66699 42 17s17 26 17 44s-5.66699 32.833 -17 44.5s-25.333 17.5 -42 17.5zM453 216h-284l-68 -216h-91l222 666c4 16 15 24 33 24h92c18 0 29 -8 33 -24l222 -666h-91z
M429 292l-87 274c-6 17.333 -11.667 36 -17 56h-28l-17 -56l-87 -274h236z" />
    <glyph glyph-name="AE" unicode="&#xc6;" horiz-adv-x="913" 
d="M859 74l3.00098 -69c-63.333 -4 -161 -6 -293 -6c-34.667 0 -62.667 11.167 -84 33.5s-32 51.166 -32 86.499v106h-231l-131 -225h-92l343 582c23.333 42 51.166 70.667 83.499 86s79.5 23 141.5 23c126 0 224.333 -2 295 -6l-3 -70h-255
c-20.667 0 -37.167 -6.16699 -49.5 -18.5s-18.5 -29.166 -18.5 -50.499v-146h283v-72h-283v-187c0 -44.667 22.667 -67 68 -67h255zM453.001 298l-0.000976562 260c0 14 3.16699 28 9.5 42s13.833 24 22.5 30h-8c-19.333 -10.667 -38.666 -31.667 -57.999 -63l-155 -269h189
z" />
    <glyph glyph-name="Ccedilla" unicode="&#xc7;" 
d="M525 77l9 -66c-55.333 -15.333 -122.666 -23 -201.999 -23c-99.333 0 -169.333 26.667 -210 80s-61 145.666 -61 276.999s20.333 223.666 61 276.999s110.667 80 210 80c71.333 0 134 -6.66699 188 -20l-9 -67c-60 6 -119.667 9 -179 9
c-67.333 0 -113.833 -20.167 -139.5 -60.5s-38.5 -113.166 -38.5 -218.499s12.833 -178.166 38.5 -218.499s72.167 -60.5 139.5 -60.5c77.333 0 141.666 3.66699 192.999 11zM273 -95l9 40c40.667 4 69.5 1.33301 86.5 -8s25.167 -28.333 24.5 -57
c-0.666992 -42 -16.667 -74.333 -48 -97s-71 -30.667 -119 -24l13 45c26.667 -0.666992 48.5 5.5 65.5 18.5s26.167 29.833 27.5 50.5c0 12 -4 20.167 -12 24.5s-23.667 6.83301 -47 7.5z" />
    <glyph glyph-name="Egrave" unicode="&#xc8;" horiz-adv-x="560" 
d="M330 749l-191 120l48 65l173 -146zM506 73l4 -68.002c-61.333 -4 -160 -6 -296 -6c-40.667 0 -72.834 10.833 -96.501 32.5s-35.834 50.834 -36.501 87.501v452c0.666992 36.667 12.834 65.834 36.501 87.501s55.834 32.5 96.501 32.5c136 0 234.667 -2 296 -6l-4 -69
h-277c-40 0 -60 -22 -60 -66v-150h298v-71h-298v-189c0 -44.667 20 -67 60 -67h277z" />
    <glyph glyph-name="Eacute" unicode="&#xc9;" horiz-adv-x="560" 
d="M274 749l-30 39l173 146l48 -65zM506 73l4 -68.002c-61.333 -4 -160 -6 -296 -6c-40.667 0 -72.834 10.833 -96.501 32.5s-35.834 50.834 -36.501 87.501v452c0.666992 36.667 12.834 65.834 36.501 87.501s55.834 32.5 96.501 32.5c136 0 234.667 -2 296 -6l-4 -69h-277
c-40 0 -60 -22 -60 -66v-150h298v-71h-298v-189c0 -44.667 20 -67 60 -67h277z" />
    <glyph glyph-name="Ecircumflex" unicode="&#xca;" horiz-adv-x="560" 
d="M176 753l-29 37l132 127h61l133 -127l-30 -37l-129 98h-8zM506 73l4 -68.002c-61.333 -4 -160 -6 -296 -6c-40.667 0 -72.834 10.833 -96.501 32.5s-35.834 50.834 -36.501 87.501v452c0.666992 36.667 12.834 65.834 36.501 87.501s55.834 32.5 96.501 32.5
c136 0 234.667 -2 296 -6l-4 -69h-277c-40 0 -60 -22 -60 -66v-150h298v-71h-298v-189c0 -44.667 20 -67 60 -67h277z" />
    <glyph glyph-name="Edieresis" unicode="&#xcb;" horiz-adv-x="560" 
d="M236 788h-29c-16 0 -24 8 -24 24v54c0 16 8 24 24 24h29c15.333 0 23 -8 23 -24v-54c0 -16 -7.66699 -24 -23 -24zM413 788h-29c-16 0 -24 8 -24 24v54c0 16 8 24 24 24h29c15.333 0 23 -8 23 -24v-54c0 -16 -7.66699 -24 -23 -24zM506 73l4 -68.002
c-61.333 -4 -160 -6 -296 -6c-40.667 0 -72.834 10.833 -96.501 32.5s-35.834 50.834 -36.501 87.501v452c0.666992 36.667 12.834 65.834 36.501 87.501s55.834 32.5 96.501 32.5c136 0 234.667 -2 296 -6l-4 -69h-277c-40 0 -60 -22 -60 -66v-150h298v-71h-298v-189
c0 -44.667 20 -67 60 -67h277z" />
    <glyph glyph-name="Igrave" unicode="&#xcc;" horiz-adv-x="262" 
d="M181 767l-30 -39l-191 120l48 66zM175 0h-88v690h88v-690z" />
    <glyph glyph-name="Iacute" unicode="&#xcd;" horiz-adv-x="262" 
d="M287 848l-192 -120l-29 39l172 147zM175 0h-88v690h88v-690z" />
    <glyph glyph-name="Icircumflex" unicode="&#xce;" horiz-adv-x="262" 
d="M294 769l-30 -37l-129 98h-8l-130 -98l-29 37l132 127h61zM175 0h-88v690h88v-690z" />
    <glyph glyph-name="Idieresis" unicode="&#xcf;" horiz-adv-x="262" 
d="M28 870h29c15.333 0 23 -8 23 -24v-55c0 -16 -7.66699 -24 -23 -24h-29c-16 0 -24 8 -24 24v55c0 16 8 24 24 24zM205 870h29c15.333 0 23 -8 23 -24v-55c0 -16 -7.66699 -24 -23 -24h-29c-16 0 -24 8 -24 24v55c0 16 8 24 24 24zM175 0h-88v690h88v-690z" />
    <glyph glyph-name="Eth" unicode="&#xd0;" horiz-adv-x="669" 
d="M91 391v299.002c86.667 6 168.667 9 246 9c99.333 0 169 -25.833 209 -77.5s60 -143.834 60 -276.501s-20 -224.834 -60 -276.501s-109.667 -77.5 -209 -77.5c-76.667 0 -158.667 3 -246 9v342h-69v49h69zM179 342.002l0.000976562 -272c61.333 -1.33301 114 -2 158 -2
c66.667 0 112.834 20 138.501 60s38.5 112.333 38.5 217s-12.833 177.167 -38.5 217.5s-71.834 60.5 -138.501 60.5c-42.667 0 -95.334 -0.666992 -158.001 -2v-230h152v-49h-152z" />
    <glyph glyph-name="Ntilde" unicode="&#xd1;" horiz-adv-x="705" 
d="M242 765h-38.999c-4 38.667 1.5 68 16.5 88s35.5 29 61.5 27c21.333 -2 47 -11.333 77 -28s54 -26 72 -28c18.667 -2 31.5 1 38.5 9s10.5 22 10.5 42h39c4.66699 -37.333 -0.333008 -65.833 -15 -85.5s-35.667 -28.5 -63 -26.5c-24.667 2 -52.334 11.5 -83.001 28.5
s-53 26.5 -67 28.5c-18 2 -30.5 -1.33301 -37.5 -10s-10.5 -23.667 -10.5 -45zM618.001 690l-0.000976562 -654.999c0 -23.333 -11.333 -35 -34 -35h-86c-18 0 -31 9.33301 -39 28l-233 489c-22.667 49.333 -35.667 79.666 -39 90.999h-16c2.66699 -26.667 4 -57 4 -91v-517
h-88v655c0 23.333 11.667 35 35 35h83c18 0 31 -9.33301 39 -28l226 -477c16.667 -32.667 32.334 -66 47.001 -100h17c-2 36 -3 71 -3 105v500h87z" />
    <glyph glyph-name="Ograve" unicode="&#xd2;" horiz-adv-x="668" 
d="M383 767l-29 -39l-192 120l49 66zM334 703c101.333 0 172 -26.167 212 -78.5s60 -145.5 60 -279.5s-20 -227.167 -60 -279.5s-110.667 -78.5 -212 -78.5s-172.166 26.167 -212.499 78.5s-60.5 145.5 -60.5 279.5s20.167 227.167 60.5 279.5s111.166 78.5 212.499 78.5z
M334 624c-68 0 -115 -20.167 -141 -60.5s-39 -113.166 -39 -218.499s13 -178.166 39 -218.499s73 -60.5 141 -60.5s115 20.167 141 60.5s39 113.166 39 218.499s-13 178.166 -39 218.499s-73 60.5 -141 60.5z" />
    <glyph glyph-name="Oacute" unicode="&#xd3;" horiz-adv-x="668" 
d="M489 848l-192 -120l-29 39l172 147zM334 703c101.333 0 172 -26.167 212 -78.5s60 -145.5 60 -279.5s-20 -227.167 -60 -279.5s-110.667 -78.5 -212 -78.5s-172.166 26.167 -212.499 78.5s-60.5 145.5 -60.5 279.5s20.167 227.167 60.5 279.5s111.166 78.5 212.499 78.5z
M334 624c-68 0 -115 -20.167 -141 -60.5s-39 -113.166 -39 -218.499s13 -178.166 39 -218.499s73 -60.5 141 -60.5s115 20.167 141 60.5s39 113.166 39 218.499s-13 178.166 -39 218.499s-73 60.5 -141 60.5z" />
    <glyph glyph-name="Ocircumflex" unicode="&#xd4;" horiz-adv-x="668" 
d="M496 769l-30 -37l-129 98h-8l-130 -98l-28 37l131 127h62zM334 703c101.333 0 172 -26.167 212 -78.5s60 -145.5 60 -279.5s-20 -227.167 -60 -279.5s-110.667 -78.5 -212 -78.5s-172.166 26.167 -212.499 78.5s-60.5 145.5 -60.5 279.5s20.167 227.167 60.5 279.5
s111.166 78.5 212.499 78.5zM334 624c-68 0 -115 -20.167 -141 -60.5s-39 -113.166 -39 -218.499s13 -178.166 39 -218.499s73 -60.5 141 -60.5s115 20.167 141 60.5s39 113.166 39 218.499s-13 178.166 -39 218.499s-73 60.5 -141 60.5z" />
    <glyph glyph-name="Otilde" unicode="&#xd5;" horiz-adv-x="668" 
d="M215 765h-39.9971c-4 38.667 1.5 68 16.5 88s35.5 29 61.5 27c21.333 -2 47.166 -11.333 77.499 -28s54.5 -26 72.5 -28s30.5 1 37.5 9s10.5 22 10.5 42h40c4 -37.333 -1.33301 -65.833 -16 -85.5s-35.334 -28.5 -62.001 -26.5c-24.667 2 -52.5 11.5 -83.5 28.5
s-53.167 26.5 -66.5 28.5c-18.667 2 -31.334 -1.33301 -38.001 -10s-10 -23.667 -10 -45zM334.003 703c101.333 0 172 -26.167 212 -78.5s60 -145.5 60 -279.5s-20 -227.167 -60 -279.5s-110.667 -78.5 -212 -78.5s-172.166 26.167 -212.499 78.5s-60.5 145.5 -60.5 279.5
s20.167 227.167 60.5 279.5s111.166 78.5 212.499 78.5zM334.003 624c-68 0 -115 -20.167 -141 -60.5s-39 -113.166 -39 -218.499s13 -178.166 39 -218.499s73 -60.5 141 -60.5s115 20.167 141 60.5s39 113.166 39 218.499s-13 178.166 -39 218.499s-73 60.5 -141 60.5z" />
    <glyph glyph-name="Odieresis" unicode="&#xd6;" horiz-adv-x="668" 
d="M230 870h29c15.333 0 23 -8 23 -24v-55c0 -16 -7.66699 -24 -23 -24h-29c-15.333 0 -23 8 -23 24v55c0 16 7.66699 24 23 24zM408 870h28c16 0 24 -8 24 -24v-55c0 -16 -8 -24 -24 -24h-28c-16 0 -24 8 -24 24v55c0 16 8 24 24 24zM334 703
c101.333 0 172 -26.167 212 -78.5s60 -145.5 60 -279.5s-20 -227.167 -60 -279.5s-110.667 -78.5 -212 -78.5s-172.166 26.167 -212.499 78.5s-60.5 145.5 -60.5 279.5s20.167 227.167 60.5 279.5s111.166 78.5 212.499 78.5zM334 624c-68 0 -115 -20.167 -141 -60.5
s-39 -113.166 -39 -218.499s13 -178.166 39 -218.499s73 -60.5 141 -60.5s115 20.167 141 60.5s39 113.166 39 218.499s-13 178.166 -39 218.499s-73 60.5 -141 60.5z" />
    <glyph glyph-name="multiply" unicode="&#xd7;" horiz-adv-x="484" 
d="M46 155l42 -51l356 321l-42 50z" />
    <glyph glyph-name="Oslash" unicode="&#xd8;" horiz-adv-x="668" 
d="M539 731l-32.999 -69c35.333 -24 60.833 -61.333 76.5 -112s23.5 -119 23.5 -205c0 -134 -20 -227.167 -60 -279.5s-110.667 -78.5 -212 -78.5c-56 0 -100.667 7 -134 21l-31 -66l-45 20l32 70c-33.333 24.667 -57.5 62 -72.5 112s-22.5 117 -22.5 201
c0 134 20.167 227.167 60.5 279.5s111.166 78.5 212.499 78.5c51.333 0 94 -6.33301 128 -19l31 66zM198.001 120l228.001 486.999c-22.667 11.333 -53.334 17 -92.001 17c-68 0 -115 -20.167 -141 -60.5s-39 -113.166 -39 -218.499c0 -110.667 14.667 -185.667 44 -225z
M466.002 575.999l-230.001 -489.999c24.667 -13.333 57.334 -20 98.001 -20c68 0 115 20.167 141 60.5s39 113.166 39 218.499c0 115.333 -16 192.333 -48 231z" />
    <glyph glyph-name="Ugrave" unicode="&#xd9;" horiz-adv-x="666" 
d="M384 767l-29 -39l-192 120l49 66zM584 690l-0.000976562 -426c0 -100.667 -18.667 -172 -56 -214s-101 -63 -191 -63c-93.333 0 -159.166 21 -197.499 63s-57.5 113.333 -57.5 214v426h88v-426c0 -74 12 -125.5 36 -154.5s66.333 -43.5 127 -43.5
c60 0 102.167 14.5 126.5 43.5s36.5 80.5 36.5 154.5v426h88z" />
    <glyph glyph-name="Uacute" unicode="&#xda;" horiz-adv-x="666" 
d="M490 848l-192 -120l-29 39l172 147zM584 690l-0.000976562 -426c0 -100.667 -18.667 -172 -56 -214s-101 -63 -191 -63c-93.333 0 -159.166 21 -197.499 63s-57.5 113.333 -57.5 214v426h88v-426c0 -74 12 -125.5 36 -154.5s66.333 -43.5 127 -43.5
c60 0 102.167 14.5 126.5 43.5s36.5 80.5 36.5 154.5v426h88z" />
    <glyph glyph-name="Ucircumflex" unicode="&#xdb;" horiz-adv-x="666" 
d="M497 769l-30 -37l-129 98h-8l-130 -98l-29 37l132 127h62zM584 690l-0.000976562 -426c0 -100.667 -18.667 -172 -56 -214s-101 -63 -191 -63c-93.333 0 -159.166 21 -197.499 63s-57.5 113.333 -57.5 214v426h88v-426c0 -74 12 -125.5 36 -154.5s66.333 -43.5 127 -43.5
c60 0 102.167 14.5 126.5 43.5s36.5 80.5 36.5 154.5v426h88z" />
    <glyph glyph-name="Udieresis" unicode="&#xdc;" horiz-adv-x="666" 
d="M231 870h29c15.333 0 23 -8 23 -24v-55c0 -16 -7.66699 -24 -23 -24h-29c-15.333 0 -23 8 -23 24v55c0 16 7.66699 24 23 24zM409 870h28c16 0 24 -8 24 -24v-55c0 -16 -8 -24 -24 -24h-28c-16 0 -24 8 -24 24v55c0 16 8 24 24 24zM584 690l-0.000976562 -426
c0 -100.667 -18.667 -172 -56 -214s-101 -63 -191 -63c-93.333 0 -159.166 21 -197.499 63s-57.5 113.333 -57.5 214v426h88v-426c0 -74 12 -125.5 36 -154.5s66.333 -43.5 127 -43.5c60 0 102.167 14.5 126.5 43.5s36.5 80.5 36.5 154.5v426h88z" />
    <glyph glyph-name="Yacute" unicode="&#xdd;" horiz-adv-x="569" 
d="M248 728l-29 39l172 147l49 -66zM328 242v-242h-88v243l-229 447h94l145 -291c8 -16 18.333 -42 31 -78h7c10.667 29.333 21 55 31 77l145 292h93z" />
    <glyph glyph-name="Thorn" unicode="&#xde;" horiz-adv-x="592" 
d="M175 690v-125c27.333 1.33301 77.333 2 150 2c83.333 0 141 -15.167 173 -45.5s48 -87.833 48 -172.5s-15.5 -142.167 -46.5 -172.5s-86.167 -45.5 -165.5 -45.5c-54.667 0 -107.667 3 -159 9v-140h-88v559v131h88zM175 207h148c51.333 0.666992 86.5 10.5 105.5 29.5
s28.5 56.5 28.5 112.5c0 56.667 -9.5 94.667 -28.5 114s-54.167 29 -105.5 29c-72.667 0 -122 -0.333008 -148 -1v-284z" />
    <glyph glyph-name="germandbls" unicode="&#xdf;" horiz-adv-x="675" 
d="M446 302l104.003 -46.002c32 -14.667 54.667 -31.167 68 -49.5s20 -45.166 20 -80.499c0 -54 -13.833 -90.333 -41.5 -109s-72.834 -28 -135.501 -28c-54.667 0 -108 3.66699 -160 11l5 64c42.667 -3.33301 89 -5 139 -5c42.667 0.666992 71.667 5.16699 87 13.5
s23 27.5 23 57.5c0 20.667 -4.83301 35.667 -14.5 45s-27.167 19.666 -52.5 30.999l-106 47c-54.667 25.333 -82 62.666 -82 111.999c0 10.667 0.833008 20.334 2.5 29.001s5.16699 16.834 10.5 24.501s9.83301 13.834 13.5 18.501s10.5 10.334 20.5 17.001
s17.167 11.334 21.5 14.001s13.5 7.66699 27.5 15s23 12.333 27 15c24.667 14 41.5 27 50.5 39s13.5 28.333 13.5 49c0 22.667 -10.167 39.167 -30.5 49.5s-57.5 15.5 -111.5 15.5c-56 0 -94 -7.83301 -114 -23.5s-30 -46.834 -30 -93.501v-534h-85v419h-88v66l88 1v57
c0 38 4.83301 69.167 14.5 93.5s25 42.5 46 54.5s44 20 69 24s56.833 6 95.5 6c82 0 140.167 -9.66699 174.5 -29s51.5 -53.666 51.5 -102.999c0 -28.667 -6 -52.667 -18 -72s-35 -39 -69 -59c-8.66699 -5.33301 -19.834 -11.5 -33.501 -18.5s-23.334 -12.333 -29.001 -16
s-12 -8.33398 -19 -14.001s-11.667 -11.834 -14 -18.501s-3.5 -14.667 -3.5 -24c0 -16 4.83301 -28.167 14.5 -36.5s26.5 -17.833 50.5 -28.5z" />
    <glyph glyph-name="agrave" unicode="&#xe0;" horiz-adv-x="549" 
d="M290 548l-192 121l48 65l173 -147zM81 414l-8 63c89.333 14.667 167.666 22 234.999 22c56.667 0 98.667 -11.833 126 -35.5s41 -63.834 41 -120.501v-343h-67l-10 80c-23.333 -23.333 -52.5 -44 -87.5 -62s-72.833 -27 -113.5 -27c-44.667 0 -80.167 11.833 -106.5 35.5
s-39.5 57.167 -39.5 100.5v53c0 38 11.833 67.5 35.5 88.5s56.834 31.5 99.501 31.5h203v43c0 30.667 -7 52.334 -21 65.001s-40 19 -78 19c-48 0 -117.667 -4.33301 -209 -13zM138 168l0.00195312 -31.001c0 -25.333 6 -43.833 18 -55.5s31.333 -17.5 58 -17.5
c25.333 -0.666992 54.166 5.33301 86.499 18s61.833 31 88.5 55v98h-188c-22.667 -0.666992 -38.834 -6.66699 -48.501 -18s-14.5 -27.666 -14.5 -48.999z" />
    <glyph glyph-name="aacute" unicode="&#xe1;" horiz-adv-x="549" 
d="M233 548l-29 39l172 147l49 -65zM81 414l-8 63c89.333 14.667 167.666 22 234.999 22c56.667 0 98.667 -11.833 126 -35.5s41 -63.834 41 -120.501v-343h-67l-10 80c-23.333 -23.333 -52.5 -44 -87.5 -62s-72.833 -27 -113.5 -27c-44.667 0 -80.167 11.833 -106.5 35.5
s-39.5 57.167 -39.5 100.5v53c0 38 11.833 67.5 35.5 88.5s56.834 31.5 99.501 31.5h203v43c0 30.667 -7 52.334 -21 65.001s-40 19 -78 19c-48 0 -117.667 -4.33301 -209 -13zM138 168l0.00195312 -31.001c0 -25.333 6 -43.833 18 -55.5s31.333 -17.5 58 -17.5
c25.333 -0.666992 54.166 5.33301 86.499 18s61.833 31 88.5 55v98h-188c-22.667 -0.666992 -38.834 -6.66699 -48.501 -18s-14.5 -27.666 -14.5 -48.999z" />
    <glyph glyph-name="acircumflex" unicode="&#xe2;" horiz-adv-x="549" 
d="M135 552l-29 37l132 127h62l132 -127l-30 -37l-129 98h-8zM81 414l-8 63c89.333 14.667 167.666 22 234.999 22c56.667 0 98.667 -11.833 126 -35.5s41 -63.834 41 -120.501v-343h-67l-10 80c-23.333 -23.333 -52.5 -44 -87.5 -62s-72.833 -27 -113.5 -27
c-44.667 0 -80.167 11.833 -106.5 35.5s-39.5 57.167 -39.5 100.5v53c0 38 11.833 67.5 35.5 88.5s56.834 31.5 99.501 31.5h203v43c0 30.667 -7 52.334 -21 65.001s-40 19 -78 19c-48 0 -117.667 -4.33301 -209 -13zM138 168l0.00195312 -31.001
c0 -25.333 6 -43.833 18 -55.5s31.333 -17.5 58 -17.5c25.333 -0.666992 54.166 5.33301 86.499 18s61.833 31 88.5 55v98h-188c-22.667 -0.666992 -38.834 -6.66699 -48.501 -18s-14.5 -27.666 -14.5 -48.999z" />
    <glyph glyph-name="atilde" unicode="&#xe3;" horiz-adv-x="549" 
d="M151 586l-39.9971 0.000976562c-4 38 1.5 67 16.5 87s35.5 29 61.5 27c21.333 -2 47.166 -11.333 77.499 -28s54.166 -26 71.499 -28c18.667 -2 31.5 1 38.5 9s10.5 22 10.5 42h40c4 -36.667 -1.33301 -65 -16 -85s-35.334 -29 -62.001 -27
c-24.667 2 -52.5 11.5 -83.5 28.5s-53.5 26.5 -67.5 28.5c-18 2 -30.333 -1.33301 -37 -10s-10 -23.334 -10 -44.001zM81.0029 414.001l-8 63c89.333 14.667 167.666 22 234.999 22c56.667 0 98.667 -11.833 126 -35.5s41 -63.834 41 -120.501v-343h-67l-10 80
c-23.333 -23.333 -52.5 -44 -87.5 -62s-72.833 -27 -113.5 -27c-44.667 0 -80.167 11.833 -106.5 35.5s-39.5 57.167 -39.5 100.5v53c0 38 11.833 67.5 35.5 88.5s56.834 31.5 99.501 31.5h203v43c0 30.667 -7 52.334 -21 65.001s-40 19 -78 19
c-48 0 -117.667 -4.33301 -209 -13zM138.003 168.001l0.00195312 -31.001c0 -25.333 6 -43.833 18 -55.5s31.333 -17.5 58 -17.5c25.333 -0.666992 54.166 5.33301 86.499 18s61.833 31 88.5 55v98h-188c-22.667 -0.666992 -38.834 -6.66699 -48.501 -18
s-14.5 -27.666 -14.5 -48.999z" />
    <glyph glyph-name="adieresis" unicode="&#xe4;" horiz-adv-x="549" 
d="M195 587h-29c-15.333 0 -23 8 -23 24v55c0 16 7.66699 24 23 24h29c15.333 0 23 -8 23 -24v-55c0 -16 -7.66699 -24 -23 -24zM372 587h-29c-15.333 0 -23 8 -23 24v55c0 16 7.66699 24 23 24h29c16 0 24 -8 24 -24v-55c0 -16 -8 -24 -24 -24zM81 414l-8 63
c89.333 14.667 167.666 22 234.999 22c56.667 0 98.667 -11.833 126 -35.5s41 -63.834 41 -120.501v-343h-67l-10 80c-23.333 -23.333 -52.5 -44 -87.5 -62s-72.833 -27 -113.5 -27c-44.667 0 -80.167 11.833 -106.5 35.5s-39.5 57.167 -39.5 100.5v53
c0 38 11.833 67.5 35.5 88.5s56.834 31.5 99.501 31.5h203v43c0 30.667 -7 52.334 -21 65.001s-40 19 -78 19c-48 0 -117.667 -4.33301 -209 -13zM138 168l0.00195312 -31.001c0 -25.333 6 -43.833 18 -55.5s31.333 -17.5 58 -17.5
c25.333 -0.666992 54.166 5.33301 86.499 18s61.833 31 88.5 55v98h-188c-22.667 -0.666992 -38.834 -6.66699 -48.501 -18s-14.5 -27.666 -14.5 -48.999z" />
    <glyph glyph-name="aring" unicode="&#xe5;" horiz-adv-x="549" 
d="M269 535c-30 0 -55.333 10 -76 30s-31 44.667 -31 74c0 30 10.333 55.167 31 75.5s46 30.5 76 30.5c29.333 0 54.5 -10.167 75.5 -30.5s31.5 -45.5 31.5 -75.5c0 -29.333 -10.333 -54 -31 -74s-46 -30 -76 -30zM269 701c-17.333 0 -31.5 -5.66699 -42.5 -17
s-16.5 -26.333 -16.5 -45c0 -18 5.66699 -32.5 17 -43.5s25.333 -16.5 42 -16.5c17.333 0 31.666 5.5 42.999 16.5s17 25.5 17 43.5s-5.66699 32.833 -17 44.5s-25.666 17.5 -42.999 17.5zM81 414l-8 63c89.333 14.667 167.666 22 234.999 22
c56.667 0 98.667 -11.833 126 -35.5s41 -63.834 41 -120.501v-343h-67l-10 80c-23.333 -23.333 -52.5 -44 -87.5 -62s-72.833 -27 -113.5 -27c-44.667 0 -80.167 11.833 -106.5 35.5s-39.5 57.167 -39.5 100.5v53c0 38 11.833 67.5 35.5 88.5s56.834 31.5 99.501 31.5h203
v43c0 30.667 -7 52.334 -21 65.001s-40 19 -78 19c-48 0 -117.667 -4.33301 -209 -13zM138 168l0.00195312 -31.001c0 -25.333 6 -43.833 18 -55.5s31.333 -17.5 58 -17.5c25.333 -0.666992 54.166 5.33301 86.499 18s61.833 31 88.5 55v98h-188
c-22.667 -0.666992 -38.834 -6.66699 -48.501 -18s-14.5 -27.666 -14.5 -48.999z" />
    <glyph glyph-name="ae" unicode="&#xe6;" horiz-adv-x="871" 
d="M695 202l-216.001 -0.000976562c4 -56 17.333 -93.667 40 -113s60.334 -29 113.001 -29c55.333 0 112 4 170 12l8 -57c-42.667 -18 -105.667 -27 -189 -27c-56 0 -100.667 8.16699 -134 24.5s-58 43.166 -74 80.499c-23.333 -26 -54 -49.5 -92 -70.5
s-79.333 -31.5 -124 -31.5s-80.167 11.833 -106.5 35.5s-39.5 57.167 -39.5 100.5v53c0 38 11.833 67.5 35.5 88.5s56.834 31.5 99.501 31.5h203v43c0 30.667 -7 52.334 -21 65.001s-40 19 -78 19c-48 0 -117.667 -4.33301 -209 -13l-8 63
c89.333 14.667 167.666 22 234.999 22c68.667 0 115 -16.667 139 -50c33.333 33.333 88.333 50 165 50c72.667 0 125.667 -13.167 159 -39.5s50.333 -66.166 51 -119.499c0 -92 -42.333 -138 -127 -138zM476.999 267.999h195.998c43.333 0 64.333 24 63 72
c0 30.667 -9.16699 52.834 -27.5 66.501s-49.166 20.5 -92.499 20.5c-50.667 0 -86.167 -11.333 -106.5 -34s-31.166 -64.334 -32.499 -125.001zM137.997 167.999l0.000976562 -31.001c0 -25.333 6 -43.833 18 -55.5s31.333 -17.5 58 -17.5
c27.333 -0.666992 57.833 5.83301 91.5 19.5s64.5 33.167 92.5 58.5c-6 26.667 -9 57.667 -9 93h-188c-22.667 -0.666992 -38.834 -6.66699 -48.501 -18s-14.5 -27.666 -14.5 -48.999z" />
    <glyph glyph-name="ccedilla" unicode="&#xe7;" horiz-adv-x="489" 
d="M443 70l9 -57c-48 -16.667 -103.667 -25 -167 -25c-84 0 -143.5 19.167 -178.5 57.5s-52.5 104.5 -52.5 198.5s17.5 160 52.5 198s94.833 57 179.5 57c64 0 116.333 -7.66699 157 -23l-11 -55c-44 4 -88 6 -132 6c-58.667 0 -99.334 -13 -122.001 -39s-34 -74 -34 -144
c0 -70.667 11.333 -119 34 -145s63.334 -39 122.001 -39c53.333 0 101 3.33301 143 10zM226 -95l9 40c40.667 4 69.667 1.33301 87 -8s25.666 -28.333 24.999 -57c-1.33301 -42 -17.666 -74.333 -48.999 -97s-71 -30.667 -119 -24l14 45
c26.667 -0.666992 48.5 5.5 65.5 18.5s25.833 29.833 26.5 50.5c0.666992 12 -3 20.167 -11 24.5s-24 6.83301 -48 7.5z" />
    <glyph glyph-name="egrave" unicode="&#xe8;" horiz-adv-x="537" 
d="M300 548l-191 121l48 65l173 -147zM371 202l-227 -0.000976562c4.66699 -56 18.334 -93.667 41.001 -113s60.334 -29 113.001 -29c55.333 0 111.666 4 168.999 12l9 -57c-43.333 -18 -106.333 -27 -189 -27c-84 0 -143.833 19.5 -179.5 58.5s-53.5 105.167 -53.5 198.5
c0 94 17.333 159.833 52 197.5s92 56.5 172 56.5c72.667 0 125.667 -13.167 159 -39.5s50 -66.166 50 -119.499c1.33301 -92 -37.334 -138 -116.001 -138zM143 267.999h206c35.333 0 53 24 53 72c-0.666992 31.333 -10 53.666 -28 66.999s-48.667 20 -92 20
c-51.333 0 -87 -11.167 -107 -33.5s-30.667 -64.166 -32 -125.499z" />
    <glyph glyph-name="eacute" unicode="&#xe9;" horiz-adv-x="537" 
d="M244 548l-30 39l173 147l48 -65zM371 202l-227 -0.000976562c4.66699 -56 18.334 -93.667 41.001 -113s60.334 -29 113.001 -29c55.333 0 111.666 4 168.999 12l9 -57c-43.333 -18 -106.333 -27 -189 -27c-84 0 -143.833 19.5 -179.5 58.5s-53.5 105.167 -53.5 198.5
c0 94 17.333 159.833 52 197.5s92 56.5 172 56.5c72.667 0 125.667 -13.167 159 -39.5s50 -66.166 50 -119.499c1.33301 -92 -37.334 -138 -116.001 -138zM143 267.999h206c35.333 0 53 24 53 72c-0.666992 31.333 -10 53.666 -28 66.999s-48.667 20 -92 20
c-51.333 0 -87 -11.167 -107 -33.5s-30.667 -64.166 -32 -125.499z" />
    <glyph glyph-name="ecircumflex" unicode="&#xea;" horiz-adv-x="537" 
d="M146 552l-29 37l132 127h61l133 -127l-30 -37l-130 98h-8zM371 202l-227 -0.000976562c4.66699 -56 18.334 -93.667 41.001 -113s60.334 -29 113.001 -29c55.333 0 111.666 4 168.999 12l9 -57c-43.333 -18 -106.333 -27 -189 -27c-84 0 -143.833 19.5 -179.5 58.5
s-53.5 105.167 -53.5 198.5c0 94 17.333 159.833 52 197.5s92 56.5 172 56.5c72.667 0 125.667 -13.167 159 -39.5s50 -66.166 50 -119.499c1.33301 -92 -37.334 -138 -116.001 -138zM143 267.999h206c35.333 0 53 24 53 72c-0.666992 31.333 -10 53.666 -28 66.999
s-48.667 20 -92 20c-51.333 0 -87 -11.167 -107 -33.5s-30.667 -64.166 -32 -125.499z" />
    <glyph glyph-name="edieresis" unicode="&#xeb;" horiz-adv-x="537" 
d="M205 587h-29c-15.333 0 -23 8 -23 24v55c0 16 7.66699 24 23 24h29c16 0 24 -8 24 -24v-55c0 -16 -8 -24 -24 -24zM382 587h-28c-16 0 -24 8 -24 24v55c0 16 8 24 24 24h28c16 0 24 -8 24 -24v-55c0 -16 -8 -24 -24 -24zM371 202l-227 -0.000976562
c4.66699 -56 18.334 -93.667 41.001 -113s60.334 -29 113.001 -29c55.333 0 111.666 4 168.999 12l9 -57c-43.333 -18 -106.333 -27 -189 -27c-84 0 -143.833 19.5 -179.5 58.5s-53.5 105.167 -53.5 198.5c0 94 17.333 159.833 52 197.5s92 56.5 172 56.5
c72.667 0 125.667 -13.167 159 -39.5s50 -66.166 50 -119.499c1.33301 -92 -37.334 -138 -116.001 -138zM143 267.999h206c35.333 0 53 24 53 72c-0.666992 31.333 -10 53.666 -28 66.999s-48.667 20 -92 20c-51.333 0 -87 -11.167 -107 -33.5s-30.667 -64.166 -32 -125.499
z" />
    <glyph glyph-name="igrave" unicode="&#xec;" horiz-adv-x="249" 
d="M175 587l-30 -39l-191 121l48 65zM167 0h-85v487h85v-487z" />
    <glyph glyph-name="iacute" unicode="&#xed;" horiz-adv-x="249" 
d="M281 669l-192 -121l-29 39l172 147zM167 0h-85v487h85v-487z" />
    <glyph glyph-name="icircumflex" unicode="&#xee;" horiz-adv-x="249" 
d="M288 589l-30 -37l-129 98h-8l-130 -98l-29 37l132 127h61zM167 0h-85v487h85v-487z" />
    <glyph glyph-name="idieresis" unicode="&#xef;" horiz-adv-x="249" 
d="M22 690h29c15.333 0 23 -8 23 -24v-55c0 -16 -7.66699 -24 -23 -24h-29c-16 0 -24 8 -24 24v55c0 16 8 24 24 24zM199 690h29c15.333 0 23 -8 23 -24v-55c0 -16 -7.66699 -24 -23 -24h-29c-16 0 -24 8 -24 24v55c0 16 8 24 24 24zM167 0h-85v487h85v-487z" />
    <glyph glyph-name="eth" unicode="&#xf0;" horiz-adv-x="559" 
d="M443 673l-67.001 -51.998c79.333 -69.333 119 -182 119 -338c0 -47.333 -3 -87.833 -9 -121.5s-16.833 -64.334 -32.5 -92.001s-38.334 -48.334 -68.001 -62.001s-66.5 -20.5 -110.5 -20.5c-75.333 0 -130.833 18.5 -166.5 55.5s-53.5 95.833 -53.5 176.5
c0 76 15.833 133.167 47.5 171.5s84.167 57.5 157.5 57.5c52.667 0 98.334 -12 137.001 -36c-14 73.333 -40.667 128 -80 164l-78 -60l-31 38l67 52c-41.333 22.667 -93.333 32.667 -156 30l10 62c80.667 3.33301 149.334 -12 206.001 -46l78 60zM275.999 59.002
c28 0 50.833 4.66797 68.5 14.001s31 24.666 40 45.999s15 44.5 18 69.5s4.5 57.833 4.5 98.5c0 16 -0.666992 38 -2 66c-41.333 16 -85.333 24 -132 24s-79.667 -13.167 -99 -39.5s-29 -65.833 -29 -118.5c0 -58 10.333 -99.167 31 -123.5s54 -36.5 100 -36.5z" />
    <glyph glyph-name="ntilde" unicode="&#xf1;" horiz-adv-x="581" 
d="M179 586l-39.998 0.000976562c-4 38 1.5 67 16.5 87s35.5 29 61.5 27c21.333 -2 47.166 -11.333 77.499 -28s54.5 -26 72.5 -28s30.5 1 37.5 9s10.5 22 10.5 42h40c4 -36.667 -1.33301 -65 -16 -85s-35.334 -29 -62.001 -27c-24.667 2 -52.5 11.5 -83.5 28.5
s-53.167 26.5 -66.5 28.5c-18 2 -30.5 -1.33301 -37.5 -10s-10.5 -23.334 -10.5 -44.001zM150.002 487.001l5.99902 -77c78.667 59.333 151.334 89 218.001 89c88 0 132 -44.667 132 -134v-365h-85v341c0 32 -5.33301 54.333 -16 67s-28.667 19 -54 19
c-26.667 0 -53.5 -6 -80.5 -18s-62.833 -31.667 -107.5 -59v-350h-85v487h72z" />
    <glyph glyph-name="ograve" unicode="&#xf2;" horiz-adv-x="568" 
d="M333 587l-29 -39l-192 121l49 65zM284 499c84 0 143.167 -19.333 177.5 -58s51.5 -104.667 51.5 -198s-17.167 -159.333 -51.5 -198s-93.5 -58 -177.5 -58c-83.333 0 -142.333 19.333 -177 58s-52 104.667 -52 198s17.333 159.333 52 198s93.667 58 177 58zM284 427
c-53.333 0 -90 -13 -110 -39s-30 -74.333 -30 -145s10 -119 30 -145s56.667 -39 110 -39s90.166 13 110.499 39s30.5 74.333 30.5 145s-10.167 119 -30.5 145s-57.166 39 -110.499 39z" />
    <glyph glyph-name="oacute" unicode="&#xf3;" horiz-adv-x="568" 
d="M439 669l-192 -121l-29 39l172 147zM284 499c84 0 143.167 -19.333 177.5 -58s51.5 -104.667 51.5 -198s-17.167 -159.333 -51.5 -198s-93.5 -58 -177.5 -58c-83.333 0 -142.333 19.333 -177 58s-52 104.667 -52 198s17.333 159.333 52 198s93.667 58 177 58zM284 427
c-53.333 0 -90 -13 -110 -39s-30 -74.333 -30 -145s10 -119 30 -145s56.667 -39 110 -39s90.166 13 110.499 39s30.5 74.333 30.5 145s-10.167 119 -30.5 145s-57.166 39 -110.499 39z" />
    <glyph glyph-name="ocircumflex" unicode="&#xf4;" horiz-adv-x="568" 
d="M446 589l-30 -37l-129 98h-8l-130 -98l-29 37l132 127h62zM284 499c84 0 143.167 -19.333 177.5 -58s51.5 -104.667 51.5 -198s-17.167 -159.333 -51.5 -198s-93.5 -58 -177.5 -58c-83.333 0 -142.333 19.333 -177 58s-52 104.667 -52 198s17.333 159.333 52 198
s93.667 58 177 58zM284 427c-53.333 0 -90 -13 -110 -39s-30 -74.333 -30 -145s10 -119 30 -145s56.667 -39 110 -39s90.166 13 110.499 39s30.5 74.333 30.5 145s-10.167 119 -30.5 145s-57.166 39 -110.499 39z" />
    <glyph glyph-name="otilde" unicode="&#xf5;" horiz-adv-x="568" 
d="M165 586l-39.998 0.000976562c-4 38 1.5 67 16.5 87s35.5 29 61.5 27c21.333 -2 47.166 -11.333 77.499 -28s54.5 -26 72.5 -28s30.5 1 37.5 9s10.5 22 10.5 42h40c4 -36.667 -1.33301 -65 -16 -85s-35.334 -29 -62.001 -27c-24.667 2 -52.5 11.5 -83.5 28.5
s-53.167 26.5 -66.5 28.5c-18 2 -30.5 -1.33301 -37.5 -10s-10.5 -23.334 -10.5 -44.001zM284.002 499.001c84 0 143.167 -19.333 177.5 -58s51.5 -104.667 51.5 -198s-17.167 -159.333 -51.5 -198s-93.5 -58 -177.5 -58c-83.333 0 -142.333 19.333 -177 58
s-52 104.667 -52 198s17.333 159.333 52 198s93.667 58 177 58zM284.002 427.001c-53.333 0 -90 -13 -110 -39s-30 -74.333 -30 -145s10 -119 30 -145s56.667 -39 110 -39s90.166 13 110.499 39s30.5 74.333 30.5 145s-10.167 119 -30.5 145s-57.166 39 -110.499 39z" />
    <glyph glyph-name="odieresis" unicode="&#xf6;" horiz-adv-x="568" 
d="M180 690h29c15.333 0 23 -8 23 -24v-55c0 -16 -7.66699 -24 -23 -24h-29c-15.333 0 -23 8 -23 24v55c0 16 7.66699 24 23 24zM358 690h28c16 0 24 -8 24 -24v-55c0 -16 -8 -24 -24 -24h-28c-16 0 -24 8 -24 24v55c0 16 8 24 24 24zM284 499
c84 0 143.167 -19.333 177.5 -58s51.5 -104.667 51.5 -198s-17.167 -159.333 -51.5 -198s-93.5 -58 -177.5 -58c-83.333 0 -142.333 19.333 -177 58s-52 104.667 -52 198s17.333 159.333 52 198s93.667 58 177 58zM284 427c-53.333 0 -90 -13 -110 -39s-30 -74.333 -30 -145
s10 -119 30 -145s56.667 -39 110 -39s90.166 13 110.499 39s30.5 74.333 30.5 145s-10.167 119 -30.5 145s-57.166 39 -110.499 39z" />
    <glyph glyph-name="divide" unicode="&#xf7;" horiz-adv-x="571" 
d="M273 525h22c11.333 0 19.5 -2.5 24.5 -7.5s7.5 -13.167 7.5 -24.5v-49c0 -11.333 -2.5 -19.333 -7.5 -24s-13.167 -7 -24.5 -7h-22c-12 0 -20.167 2.33301 -24.5 7s-6.5 12.667 -6.5 24v49c0 12 2.16699 20.333 6.5 25s12.5 7 24.5 7zM504 263h-438v64h438v-64zM273 176
h22c11.333 0 19.5 -2.33301 24.5 -7s7.5 -13 7.5 -25v-48c0 -12 -2.5 -20.333 -7.5 -25s-13.167 -7 -24.5 -7h-22c-12 0 -20.167 2.33301 -24.5 7s-6.5 13 -6.5 25v48c0 12 2.16699 20.333 6.5 25s12.5 7 24.5 7z" />
    <glyph glyph-name="oslash" unicode="&#xf8;" horiz-adv-x="568" 
d="M444 541l-29.999 -65c35.333 -16 60.666 -42.667 75.999 -80s23 -88.333 23 -153c0 -93.333 -17.167 -159.333 -51.5 -198s-93.5 -58 -177.5 -58c-37.333 0 -68.333 3.33301 -93 10l-34 -72l-39 19l32 68c-33.333 17.333 -57.5 44.5 -72.5 81.5s-22.5 86.833 -22.5 149.5
c0 93.333 17.333 159.333 52 198s93.667 58 177 58c36.667 0 66 -2.66699 88 -8l33 69zM184.001 87l156 335c-13.333 3.33301 -32 5 -56 5c-53.333 0 -90 -13 -110 -39s-30 -74.333 -30 -145c0 -80 13.333 -132 40 -156zM380.001 403l-156.999 -336.999
c16 -4.66699 36.333 -7 61 -7c53.333 0 90.166 13 110.499 39s30.5 74.333 30.5 145c0 83.333 -15 136.666 -45 159.999z" />
    <glyph glyph-name="ugrave" unicode="&#xf9;" 
d="M308 552l-192 120l49 65l172 -146zM492 487v-486.999h-68l-6 70c-73.333 -55.333 -143.333 -83 -210 -83c-88.667 0 -133 44.667 -133 134v366h85v-342c-0.666992 -30.667 5 -52.334 17 -65.001s32 -19 60 -19c24.667 0 49.667 5.5 75 16.5s57 28.833 95 53.5v356h85z
" />
    <glyph glyph-name="uacute" unicode="&#xfa;" 
d="M251 552l-29 39l172 146l49 -65zM492 487v-486.999h-68l-6 70c-73.333 -55.333 -143.333 -83 -210 -83c-88.667 0 -133 44.667 -133 134v366h85v-342c-0.666992 -30.667 5 -52.334 17 -65.001s32 -19 60 -19c24.667 0 49.667 5.5 75 16.5s57 28.833 95 53.5v356h85z" />
    <glyph glyph-name="ucircumflex" unicode="&#xfb;" 
d="M153 556l-29 37l132 127h62l132 -127l-30 -37l-129 98h-8zM492 487v-486.999h-68l-6 70c-73.333 -55.333 -143.333 -83 -210 -83c-88.667 0 -133 44.667 -133 134v366h85v-342c-0.666992 -30.667 5 -52.334 17 -65.001s32 -19 60 -19c24.667 0 49.667 5.5 75 16.5
s57 28.833 95 53.5v356h85z" />
    <glyph glyph-name="udieresis" unicode="&#xfc;" 
d="M213 591h-29c-15.333 0 -23 8 -23 24v55c0 16 7.66699 24 23 24h29c15.333 0 23 -8 23 -24v-55c0 -16 -7.66699 -24 -23 -24zM390 591h-28c-16 0 -24 8 -24 24v55c0 16 8 24 24 24h28c16 0 24 -8 24 -24v-55c0 -16 -8 -24 -24 -24zM492 487v-486.999h-68l-6 70
c-73.333 -55.333 -143.333 -83 -210 -83c-88.667 0 -133 44.667 -133 134v366h85v-342c-0.666992 -30.667 5 -52.334 17 -65.001s32 -19 60 -19c24.667 0 49.667 5.5 75 16.5s57 28.833 95 53.5v356h85z" />
    <glyph glyph-name="yacute" unicode="&#xfd;" horiz-adv-x="529" 
d="M231 548l-30 39l173 147l48 -65zM510 487l-195 -513.999c-42.667 -114.667 -113.667 -174.334 -213 -179.001l-8 56c38 12 67.833 28.5 89.5 49.5s39.167 47.5 52.5 79.5l8 21h-19c-16 -0 -26 7.33301 -30 22l-177 465h91l129 -363c9.33301 -27.333 15.333 -47 18 -59h14
c5.33301 13.333 12.333 33 21 59l127 363h92z" />
    <glyph glyph-name="thorn" unicode="&#xfe;" horiz-adv-x="574" 
d="M163 700v-170c0 -44 -1 -77.333 -3 -100c58 46 118.667 69 182 69c62.667 0 107.5 -20.333 134.5 -61s40.5 -106.667 40.5 -198c0 -92.667 -13.833 -158 -41.5 -196s-73.167 -57 -136.5 -57c-62 0 -121.333 14.667 -178 44c1.33301 -20.667 2 -51 2 -91v-141h-85v901h85z
M163 359l-0.000976562 -264.999c60.667 -24 110.334 -36 149.001 -36c43.333 0 73.666 13.167 90.999 39.5s26 74.166 26 143.499s-8.66699 117.5 -26 144.5s-46.666 40.5 -87.999 40.5c-42 0 -92.667 -22.333 -152 -67z" />
    <glyph glyph-name="ydieresis" unicode="&#xff;" horiz-adv-x="529" 
d="M192 587h-29c-15.333 0 -23 8 -23 24v55c0 16 7.66699 24 23 24h29c16 0 24 -8 24 -24v-55c0 -16 -8 -24 -24 -24zM369 587h-28c-16 0 -24 8 -24 24v55c0 16 8 24 24 24h28c16 0 24 -8 24 -24v-55c0 -16 -8 -24 -24 -24zM510 487l-195 -513.999
c-42.667 -114.667 -113.667 -174.334 -213 -179.001l-8 56c38 12 67.833 28.5 89.5 49.5s39.167 47.5 52.5 79.5l8 21h-19c-16 -0 -26 7.33301 -30 22l-177 465h91l129 -363c9.33301 -27.333 15.333 -47 18 -59h14c5.33301 13.333 12.333 33 21 59l127 363h92z" />
    <glyph glyph-name="Amacron" unicode="&#x100;" horiz-adv-x="622" 
d="M451 786h-279v63h279v-63zM453 216h-284l-68 -216h-91l222 666c4 16 15 24 33 24h92c18 0 29 -8 33 -24l222 -666h-91zM429 292l-87 274c-6 17.333 -11.667 36 -17 56h-28l-17 -56l-87 -274h236z" />
    <glyph glyph-name="amacron" unicode="&#x101;" horiz-adv-x="549" 
d="M409 606h-279v63h279v-63zM81 414l-8 63c89.333 14.667 167.666 22 234.999 22c56.667 0 98.667 -11.833 126 -35.5s41 -63.834 41 -120.501v-343h-67l-10 80c-23.333 -23.333 -52.5 -44 -87.5 -62s-72.833 -27 -113.5 -27c-44.667 0 -80.167 11.833 -106.5 35.5
s-39.5 57.167 -39.5 100.5v53c0 38 11.833 67.5 35.5 88.5s56.834 31.5 99.501 31.5h203v43c0 30.667 -7 52.334 -21 65.001s-40 19 -78 19c-48 0 -117.667 -4.33301 -209 -13zM138 168l0.00195312 -31.001c0 -25.333 6 -43.833 18 -55.5s31.333 -17.5 58 -17.5
c25.333 -0.666992 54.166 5.33301 86.499 18s61.833 31 88.5 55v98h-188c-22.667 -0.666992 -38.834 -6.66699 -48.501 -18s-14.5 -27.666 -14.5 -48.999z" />
    <glyph glyph-name="Abreve" unicode="&#x102;" horiz-adv-x="622" 
d="M417 884l43.998 -7c2.66699 -39.333 -9.66602 -71 -36.999 -95s-65 -36 -113 -36s-85.667 12 -113 36s-39.666 55.667 -36.999 95l44 7c-0.666992 -24 8.33301 -42.5 27 -55.5s45.334 -19.5 80.001 -19.5c33.333 0 59.166 6.5 77.499 19.5s27.5 31.5 27.5 55.5z
M452.998 216h-284l-68 -216h-91l222 666c4 16 15 24 33 24h92c18 0 29 -8 33 -24l222 -666h-91zM428.998 292l-87 274c-6 17.333 -11.667 36 -17 56h-28l-17 -56l-87 -274h236z" />
    <glyph glyph-name="abreve" unicode="&#x103;" horiz-adv-x="549" 
d="M374 704l43.999 -7c2.66699 -38.667 -9.66602 -70.167 -36.999 -94.5s-64.666 -36.5 -111.999 -36.5c-48 0 -85.833 12.167 -113.5 36.5s-39.834 55.833 -36.501 94.5l43 7c0 -24 9.16699 -42.5 27.5 -55.5s44.833 -19.5 79.5 -19.5c33.333 0 59.333 6.5 78 19.5
s27.667 31.5 27 55.5zM80.999 414l-8 63c89.333 14.667 167.666 22 234.999 22c56.667 0 98.667 -11.833 126 -35.5s41 -63.834 41 -120.501v-343h-67l-10 80c-23.333 -23.333 -52.5 -44 -87.5 -62s-72.833 -27 -113.5 -27c-44.667 0 -80.167 11.833 -106.5 35.5
s-39.5 57.167 -39.5 100.5v53c0 38 11.833 67.5 35.5 88.5s56.834 31.5 99.501 31.5h203v43c0 30.667 -7 52.334 -21 65.001s-40 19 -78 19c-48 0 -117.667 -4.33301 -209 -13zM137.999 168l0.00195312 -31.001c0 -25.333 6 -43.833 18 -55.5s31.333 -17.5 58 -17.5
c25.333 -0.666992 54.166 5.33301 86.499 18s61.833 31 88.5 55v98h-188c-22.667 -0.666992 -38.834 -6.66699 -48.501 -18s-14.5 -27.666 -14.5 -48.999z" />
    <glyph glyph-name="Aogonek" unicode="&#x104;" horiz-adv-x="622" 
d="M616 -158l10 -35.002c-61.333 -23.333 -104.833 -26.166 -130.5 -8.49902s-31.5 45.834 -17.5 84.501c12.667 38.667 43.667 77.667 93 117h-50l-68 216h-284l-68 -216h-91l222 666c4 16 15 24 33 24h92c18 0 29 -8 33 -24l222 -666
c-36 -40.667 -60.667 -78.667 -74 -114c-10 -24 -7.5 -40 7.5 -48s38.5 -6.66699 70.5 4zM429 291.998l-87 274c-6 17.333 -11.667 36 -17 56h-28l-17 -56l-87 -274h236z" />
    <glyph glyph-name="aogonek" unicode="&#x105;" horiz-adv-x="549" 
d="M479 -158l10 -35c-30 -12.667 -56.5 -19.5 -79.5 -20.5s-40 3 -51 12s-18.5 20.833 -22.5 35.5s-2.33301 31 5 49c12.667 38.667 43.667 77.667 93 117h-26l-10 80c-23.333 -23.333 -52.5 -44 -87.5 -62s-72.833 -27 -113.5 -27c-44.667 0 -80.167 11.833 -106.5 35.5
s-39.5 57.167 -39.5 100.5v53c0 38 11.833 67.5 35.5 88.5s56.834 31.5 99.501 31.5h203v43c0 30.667 -7 52.334 -21 65.001s-40 19 -78 19c-48 0 -117.667 -4.33301 -209 -13l-8 63c89.333 14.667 167.666 22 234.999 22c56.667 0 98.667 -11.833 126 -35.5
s41 -63.834 41 -120.501v-343c-36 -40.667 -60.667 -78.667 -74 -114c-10 -24 -7.5 -40 7.5 -48s38.5 -6.66699 70.5 4zM138 168l0.00195312 -31.001c0 -25.333 6 -43.833 18 -55.5s31.333 -17.5 58 -17.5c25.333 -0.666992 54.166 5.33301 86.499 18s61.833 31 88.5 55v98
h-188c-22.667 -0.666992 -38.834 -6.66699 -48.501 -18s-14.5 -27.666 -14.5 -48.999z" />
    <glyph glyph-name="Cacute" unicode="&#x106;" 
d="M476 848l-192 -120l-29 39l172 147zM525 77l9 -66c-55.333 -15.333 -122.666 -23 -201.999 -23c-99.333 0 -169.333 26.667 -210 80s-61 145.666 -61 276.999s20.333 223.666 61 276.999s110.667 80 210 80c71.333 0 134 -6.66699 188 -20l-9 -67
c-60 6 -119.667 9 -179 9c-67.333 0 -113.833 -20.167 -139.5 -60.5s-38.5 -113.166 -38.5 -218.499s12.833 -178.166 38.5 -218.499s72.167 -60.5 139.5 -60.5c77.333 0 141.666 3.66699 192.999 11z" />
    <glyph glyph-name="cacute" unicode="&#x107;" horiz-adv-x="489" 
d="M423 669l-191 -121l-30 39l173 147zM443 70l9 -57c-48 -16.667 -103.667 -25 -167 -25c-84 0 -143.5 19.167 -178.5 57.5s-52.5 104.5 -52.5 198.5s17.5 160 52.5 198s94.833 57 179.5 57c64 0 116.333 -7.66699 157 -23l-11 -55c-44 4 -88 6 -132 6
c-58.667 0 -99.334 -13 -122.001 -39s-34 -74 -34 -144c0 -70.667 11.333 -119 34 -145s63.334 -39 122.001 -39c53.333 0 101 3.33301 143 10z" />
    <glyph glyph-name="Cdotaccent" unicode="&#x10a;" 
d="M307 867h27c17.333 0 26 -8.66699 26 -26v-56c0 -17.333 -8.66699 -26 -26 -26h-27c-17.333 0 -26 8.66699 -26 26v56c0 17.333 8.66699 26 26 26zM525 77l9 -66c-55.333 -15.333 -122.666 -23 -201.999 -23c-99.333 0 -169.333 26.667 -210 80s-61 145.666 -61 276.999
s20.333 223.666 61 276.999s110.667 80 210 80c71.333 0 134 -6.66699 188 -20l-9 -67c-60 6 -119.667 9 -179 9c-67.333 0 -113.833 -20.167 -139.5 -60.5s-38.5 -113.166 -38.5 -218.499s12.833 -178.166 38.5 -218.499s72.167 -60.5 139.5 -60.5
c77.333 0 141.666 3.66699 192.999 11z" />
    <glyph glyph-name="cdotaccent" unicode="&#x10b;" horiz-adv-x="489" 
d="M254 687h28c17.333 0 26 -8.33301 26 -25v-57c0 -17.333 -8.66699 -26 -26 -26h-28c-17.333 0 -26 8.66699 -26 26v57c0 16.667 8.66699 25 26 25zM443 70l9 -57c-48 -16.667 -103.667 -25 -167 -25c-84 0 -143.5 19.167 -178.5 57.5s-52.5 104.5 -52.5 198.5
s17.5 160 52.5 198s94.833 57 179.5 57c64 0 116.333 -7.66699 157 -23l-11 -55c-44 4 -88 6 -132 6c-58.667 0 -99.334 -13 -122.001 -39s-34 -74 -34 -144c0 -70.667 11.333 -119 34 -145s63.334 -39 122.001 -39c53.333 0 101 3.33301 143 10z" />
    <glyph glyph-name="Ccaron" unicode="&#x10c;" 
d="M485 871l-144 -127h-39l-143 127l29 37l129 -87h8l130 87zM525 77l9 -66c-55.333 -15.333 -122.666 -23 -201.999 -23c-99.333 0 -169.333 26.667 -210 80s-61 145.666 -61 276.999s20.333 223.666 61 276.999s110.667 80 210 80c71.333 0 134 -6.66699 188 -20l-9 -67
c-60 6 -119.667 9 -179 9c-67.333 0 -113.833 -20.167 -139.5 -60.5s-38.5 -113.166 -38.5 -218.499s12.833 -178.166 38.5 -218.499s72.167 -60.5 139.5 -60.5c77.333 0 141.666 3.66699 192.999 11z" />
    <glyph glyph-name="ccaron" unicode="&#x10d;" horiz-adv-x="489" 
d="M432 691l-143 -127h-40l-143 127l29 37l130 -87h8l129 87zM443 70l9 -57c-48 -16.667 -103.667 -25 -167 -25c-84 0 -143.5 19.167 -178.5 57.5s-52.5 104.5 -52.5 198.5s17.5 160 52.5 198s94.833 57 179.5 57c64 0 116.333 -7.66699 157 -23l-11 -55
c-44 4 -88 6 -132 6c-58.667 0 -99.334 -13 -122.001 -39s-34 -74 -34 -144c0 -70.667 11.333 -119 34 -145s63.334 -39 122.001 -39c53.333 0 101 3.33301 143 10z" />
    <glyph glyph-name="Dcaron" unicode="&#x10e;" horiz-adv-x="664" 
d="M299 744l-143 127l29 37l130 -87h8l129 87l31 -37l-144 -127h-40zM87 0v690.002c86.667 6 168.667 9 246 9c99.333 0 169 -25.833 209 -77.5s60 -143.834 60 -276.501s-20 -224.834 -60 -276.501s-109.667 -77.5 -209 -77.5c-77.333 0 -159.333 3 -246 9zM175 621.002
l0.000976562 -551c60 -1.33301 112.667 -2 158 -2c66 0 112 20.167 138 60.5s39 112.5 39 216.5s-13 176.333 -39 217s-72 61 -138 61c-42.667 0 -95.334 -0.666992 -158.001 -2z" />
    <glyph glyph-name="dcaron" unicode="&#x10f;" horiz-adv-x="573" 
d="M633 678v-51c-0.666992 -44.667 -11 -85.667 -31 -123l-37 10c6 32 9 63.667 9 95c-14 0 -21 7.33301 -21 22v47c0.666992 16.667 10.667 25 30 25h22c10.667 0 18 -1.83301 22 -5.5s6 -10.167 6 -19.5zM409 700h85v-700h-66l-8 70c-62 -54.667 -126.333 -82 -193 -82
c-60 0 -103.5 21.167 -130.5 63.5s-40.5 106.833 -40.5 193.5c0 92.667 14.667 158.167 44 196.5s76 57.5 140 57.5c63.333 0 121 -15 173 -45c-2.66699 29.333 -4 61.333 -4 96v150zM409 129l-0.000976562 269c-64 18 -113.667 27 -149 27
c-43.333 0 -73.666 -12.333 -90.999 -37s-26 -72 -26 -142s8.5 -118.167 25.5 -144.5s45.833 -39.5 86.5 -39.5c25.333 0 48.333 4.83301 69 14.5s49 27.167 85 52.5z" />
    <glyph glyph-name="Dcroat" unicode="&#x110;" horiz-adv-x="669" 
d="M91 391v299.002c86.667 6 168.667 9 246 9c99.333 0 169 -25.833 209 -77.5s60 -143.834 60 -276.501s-20 -224.834 -60 -276.501s-109.667 -77.5 -209 -77.5c-76.667 0 -158.667 3 -246 9v342h-69v49h69zM179 342.002l0.000976562 -272c61.333 -1.33301 114 -2 158 -2
c66.667 0 112.834 20 138.501 60s38.5 112.333 38.5 217s-12.833 177.167 -38.5 217.5s-71.834 60.5 -138.501 60.5c-42.667 0 -95.334 -0.666992 -158.001 -2v-230h152v-49h-152z" />
    <glyph glyph-name="dcroat" unicode="&#x111;" horiz-adv-x="568" 
d="M562 573h-68v-573h-66l-8 70c-62 -54.667 -126.333 -82 -193 -82c-60 0 -103.5 21.167 -130.5 63.5s-40.5 106.833 -40.5 193.5c0 92.667 14.667 158.167 44 196.5s76 57.5 140 57.5c63.333 0 121 -15 173 -45c-2.66699 29.333 -4 61.333 -4 96v23h-153v49h153v78h85v-78
h68v-49zM409 129l-0.000976562 269c-64 18 -113.667 27 -149 27c-43.333 0 -73.666 -12.333 -90.999 -37s-26 -72 -26 -142s8.5 -118.167 25.5 -144.5s45.833 -39.5 86.5 -39.5c25.333 0 48.333 4.83301 69 14.5s49 27.167 85 52.5z" />
    <glyph glyph-name="Emacron" unicode="&#x112;" horiz-adv-x="560" 
d="M449 806h-278v64h278v-64zM506 73l4 -68.002c-61.333 -4 -160 -6 -296 -6c-40.667 0 -72.834 10.833 -96.501 32.5s-35.834 50.834 -36.501 87.501v452c0.666992 36.667 12.834 65.834 36.501 87.501s55.834 32.5 96.501 32.5c136 0 234.667 -2 296 -6l-4 -69h-277
c-40 0 -60 -22 -60 -66v-150h298v-71h-298v-189c0 -44.667 20 -67 60 -67h277z" />
    <glyph glyph-name="emacron" unicode="&#x113;" horiz-adv-x="537" 
d="M419 606h-279v63h279v-63zM371 202l-227 -0.000976562c4.66699 -56 18.334 -93.667 41.001 -113s60.334 -29 113.001 -29c55.333 0 111.666 4 168.999 12l9 -57c-43.333 -18 -106.333 -27 -189 -27c-84 0 -143.833 19.5 -179.5 58.5s-53.5 105.167 -53.5 198.5
c0 94 17.333 159.833 52 197.5s92 56.5 172 56.5c72.667 0 125.667 -13.167 159 -39.5s50 -66.166 50 -119.499c1.33301 -92 -37.334 -138 -116.001 -138zM143 267.999h206c35.333 0 53 24 53 72c-0.666992 31.333 -10 53.666 -28 66.999s-48.667 20 -92 20
c-51.333 0 -87 -11.167 -107 -33.5s-30.667 -64.166 -32 -125.499z" />
    <glyph glyph-name="Edotaccent" unicode="&#x116;" horiz-adv-x="560" 
d="M324 779h-28c-17.333 0 -26 8.66699 -26 26v57c0 17.333 8.66699 26 26 26h28c17.333 0 26 -8.66699 26 -26v-57c0 -17.333 -8.66699 -26 -26 -26zM506 73l4 -68.002c-61.333 -4 -160 -6 -296 -6c-40.667 0 -72.834 10.833 -96.501 32.5s-35.834 50.834 -36.501 87.501
v452c0.666992 36.667 12.834 65.834 36.501 87.501s55.834 32.5 96.501 32.5c136 0 234.667 -2 296 -6l-4 -69h-277c-40 0 -60 -22 -60 -66v-150h298v-71h-298v-189c0 -44.667 20 -67 60 -67h277z" />
    <glyph glyph-name="edotaccent" unicode="&#x117;" horiz-adv-x="537" 
d="M294 579h-28c-17.333 0 -26 8.66699 -26 26v57c0 16.667 8.66699 25 26 25h28c17.333 0 26 -8.33301 26 -25v-57c0 -17.333 -8.66699 -26 -26 -26zM371 202l-227 -0.000976562c4.66699 -56 18.334 -93.667 41.001 -113s60.334 -29 113.001 -29
c55.333 0 111.666 4 168.999 12l9 -57c-43.333 -18 -106.333 -27 -189 -27c-84 0 -143.833 19.5 -179.5 58.5s-53.5 105.167 -53.5 198.5c0 94 17.333 159.833 52 197.5s92 56.5 172 56.5c72.667 0 125.667 -13.167 159 -39.5s50 -66.166 50 -119.499
c1.33301 -92 -37.334 -138 -116.001 -138zM143 267.999h206c35.333 0 53 24 53 72c-0.666992 31.333 -10 53.666 -28 66.999s-48.667 20 -92 20c-51.333 0 -87 -11.167 -107 -33.5s-30.667 -64.166 -32 -125.499z" />
    <glyph glyph-name="Eogonek" unicode="&#x118;" horiz-adv-x="560" 
d="M514 -152l10 -36.001c-61.333 -22.667 -104.833 -25.167 -130.5 -7.5s-31.5 45.5 -17.5 83.5c13.333 38.667 43.333 77 90 115c-54 -2.66699 -138 -4 -252 -4c-40.667 0 -72.834 10.833 -96.501 32.5s-35.834 50.834 -36.501 87.501v452
c0.666992 36.667 12.834 65.834 36.501 87.501s55.834 32.5 96.501 32.5c136 0 234.667 -2 296 -6l-4 -69h-277c-40 0 -60 -22 -60 -66v-150h298v-71h-298v-189c0 -44.667 20 -67 60 -67h277l4 -68c-36 -39.333 -60.667 -77 -74 -113c-10 -24.667 -7.5 -40.834 7.5 -48.501
s38.5 -6.16699 70.5 4.5z" />
    <glyph glyph-name="eogonek" unicode="&#x119;" horiz-adv-x="537" 
d="M480 -142l10.001 -36c-62 -22.667 -105.667 -25.167 -131 -7.5s-31 45.5 -17 83.5c12 34 36.333 67.667 73 101c-38.667 -7.33301 -81.334 -11 -128.001 -11c-84 0 -143.833 19.5 -179.5 58.5s-53.5 105.167 -53.5 198.5c0 94 17.333 159.833 52 197.5s92 56.5 172 56.5
c72.667 0 125.667 -13.167 159 -39.5s50 -66.166 50 -119.499c1.33301 -92 -37.334 -138 -116.001 -138h-227c4.66699 -56 18.334 -93.667 41.001 -113s60.334 -29 113.001 -29c55.333 0 111.666 4 168.999 12l9 -57c-36 -39.333 -60.667 -77 -74 -113
c-10 -24.667 -7.5 -40.834 7.5 -48.501s38.5 -6.16699 70.5 4.5zM143.001 268h206c35.333 0 53 24 53 72c-0.666992 31.333 -10 53.666 -28 66.999s-48.667 20 -92 20c-51.333 0 -87 -11.167 -107 -33.5s-30.667 -64.166 -32 -125.499z" />
    <glyph glyph-name="Ecaron" unicode="&#x11a;" horiz-adv-x="560" 
d="M291 765l-143 127l29 37l130 -88h8l129 88l30 -37l-143 -127h-40zM506 73l4 -68.002c-61.333 -4 -160 -6 -296 -6c-40.667 0 -72.834 10.833 -96.501 32.5s-35.834 50.834 -36.501 87.501v452c0.666992 36.667 12.834 65.834 36.501 87.501s55.834 32.5 96.501 32.5
c136 0 234.667 -2 296 -6l-4 -69h-277c-40 0 -60 -22 -60 -66v-150h298v-71h-298v-189c0 -44.667 20 -67 60 -67h277z" />
    <glyph glyph-name="ecaron" unicode="&#x11b;" horiz-adv-x="537" 
d="M261 564l-143 127l29 37l130 -87h8l129 87l30 -37l-143 -127h-40zM371 202l-227 -0.000976562c4.66699 -56 18.334 -93.667 41.001 -113s60.334 -29 113.001 -29c55.333 0 111.666 4 168.999 12l9 -57c-43.333 -18 -106.333 -27 -189 -27
c-84 0 -143.833 19.5 -179.5 58.5s-53.5 105.167 -53.5 198.5c0 94 17.333 159.833 52 197.5s92 56.5 172 56.5c72.667 0 125.667 -13.167 159 -39.5s50 -66.166 50 -119.499c1.33301 -92 -37.334 -138 -116.001 -138zM143 267.999h206c35.333 0 53 24 53 72
c-0.666992 31.333 -10 53.666 -28 66.999s-48.667 20 -92 20c-51.333 0 -87 -11.167 -107 -33.5s-30.667 -64.166 -32 -125.499z" />
    <glyph glyph-name="Gbreve" unicode="&#x11e;" horiz-adv-x="628" 
d="M433 884l44.001 -7c2.66699 -39.333 -9.5 -71 -36.5 -95s-64.5 -36 -112.5 -36s-85.833 12 -113.5 36s-40.167 55.667 -37.5 95l44 7c0 -24 9.16699 -42.5 27.5 -55.5s44.833 -19.5 79.5 -19.5c33.333 0 59.166 6.5 77.499 19.5s27.5 31.5 27.5 55.5zM496.001 0
l-9.99902 73.002c-58.667 -57.333 -127.334 -86 -206.001 -86c-76.667 0 -132.167 28.667 -166.5 86s-51.5 148.666 -51.5 273.999c0 135.333 21 228.5 63 279.5s117 76.5 225 76.5c72.667 0 136.667 -7 192 -21l-9 -66c-56 5.33301 -115.333 8 -178 8
c-52.667 0 -92.5 -6.83301 -119.5 -20.5s-47.167 -40.834 -60.5 -81.501s-20 -101 -20 -181c0 -102 11 -173.667 33 -215s60.667 -62 116 -62c52 0 108.667 22.333 170 67v268h86v-399h-64z" />
    <glyph glyph-name="gbreve" unicode="&#x11f;" horiz-adv-x="558" 
d="M377 704l43.999 -7c2.66699 -38.667 -9.66602 -70.167 -36.999 -94.5s-64.666 -36.5 -111.999 -36.5c-48 0 -85.833 12.167 -113.5 36.5s-39.834 55.833 -36.501 94.5l43 7c0 -24 9.16699 -42.5 27.5 -55.5s44.833 -19.5 79.5 -19.5c33.333 0 59.333 6.5 78 19.5
s27.667 31.5 27 55.5zM530.999 440l-71.998 -5.99902c13.333 -22 20 -52 20 -90c0 -54.667 -15.667 -94.167 -47 -118.5s-85.333 -36.5 -162 -36.5c-37.333 0 -71 3.33301 -101 10c-12.667 -15.333 -16.334 -32.166 -11.001 -50.499s20.333 -29.5 45 -33.5l182 -29
c45.333 -6.66699 77.166 -20.834 95.499 -42.501s27.5 -53.167 27.5 -94.5c0 -56.667 -16.833 -96 -50.5 -118s-94.167 -33 -181.5 -33c-88 0 -149.167 10.833 -183.5 32.5s-51.5 60.167 -51.5 115.5c0 28.667 6 51.667 18 69s32.333 33.666 61 48.999
c-24.667 19.333 -36 45 -34 77s14.667 57 38 75c-41.333 22 -62 64.333 -62 127c0 56 15.5 96 46.5 120s85.167 36 162.5 36c46 0 83.667 -4 113 -12h152zM270.001 254.001c48 0 81.667 6.83301 101 20.5s29 36.834 29 69.501s-9.5 55.834 -28.5 69.501
s-52.833 20.5 -101.5 20.5c-48 0 -81.667 -6.83301 -101 -20.5s-29 -36.834 -29 -69.501s9.66699 -55.834 29 -69.501s53 -20.5 101 -20.5zM341.001 23.001l-166 23c-34 -26 -51 -57 -51 -93c0 -34 10 -56.333 30 -67s60.333 -16 121 -16c59.333 0 99.166 5.5 119.499 16.5
s30.5 33.167 30.5 66.5c0 24 -5.16699 40.333 -15.5 49s-33.166 15.667 -68.499 21z" />
    <glyph glyph-name="Gdotaccent" unicode="&#x120;" horiz-adv-x="628" 
d="M341 759h-27c-17.333 0 -26 8.66699 -26 26v56c0 17.333 8.66699 26 26 26h27c17.333 0 26 -8.66699 26 -26v-56c0 -17.333 -8.66699 -26 -26 -26zM496 0l-9.99902 73.002c-58.667 -57.333 -127.334 -86 -206.001 -86c-76.667 0 -132.167 28.667 -166.5 86
s-51.5 148.666 -51.5 273.999c0 135.333 21 228.5 63 279.5s117 76.5 225 76.5c72.667 0 136.667 -7 192 -21l-9 -66c-56 5.33301 -115.333 8 -178 8c-52.667 0 -92.5 -6.83301 -119.5 -20.5s-47.167 -40.834 -60.5 -81.501s-20 -101 -20 -181c0 -102 11 -173.667 33 -215
s60.667 -62 116 -62c52 0 108.667 22.333 170 67v268h86v-399h-64z" />
    <glyph glyph-name="gdotaccent" unicode="&#x121;" horiz-adv-x="558" 
d="M286 579h-28c-16.667 0 -25 8.66699 -25 26v57c0 16.667 8.33301 25 25 25h28c17.333 0 26 -8.33301 26 -25v-57c0 -17.333 -8.66699 -26 -26 -26zM531 440l-71.998 -5.99902c13.333 -22 20 -52 20 -90c0 -54.667 -15.667 -94.167 -47 -118.5s-85.333 -36.5 -162 -36.5
c-37.333 0 -71 3.33301 -101 10c-12.667 -15.333 -16.334 -32.166 -11.001 -50.499s20.333 -29.5 45 -33.5l182 -29c45.333 -6.66699 77.166 -20.834 95.499 -42.501s27.5 -53.167 27.5 -94.5c0 -56.667 -16.833 -96 -50.5 -118s-94.167 -33 -181.5 -33
c-88 0 -149.167 10.833 -183.5 32.5s-51.5 60.167 -51.5 115.5c0 28.667 6 51.667 18 69s32.333 33.666 61 48.999c-24.667 19.333 -36 45 -34 77s14.667 57 38 75c-41.333 22 -62 64.333 -62 127c0 56 15.5 96 46.5 120s85.167 36 162.5 36c46 0 83.667 -4 113 -12h152z
M270.002 254.001c48 0 81.667 6.83301 101 20.5s29 36.834 29 69.501s-9.5 55.834 -28.5 69.501s-52.833 20.5 -101.5 20.5c-48 0 -81.667 -6.83301 -101 -20.5s-29 -36.834 -29 -69.501s9.66699 -55.834 29 -69.501s53 -20.5 101 -20.5zM341.002 23.001l-166 23
c-34 -26 -51 -57 -51 -93c0 -34 10 -56.333 30 -67s60.333 -16 121 -16c59.333 0 99.166 5.5 119.499 16.5s30.5 33.167 30.5 66.5c0 24 -5.16699 40.333 -15.5 49s-33.166 15.667 -68.499 21z" />
    <glyph glyph-name="Gcommaaccent" unicode="&#x122;" horiz-adv-x="628" 
d="M496 0l-9.99902 73.002c-58.667 -57.333 -127.334 -86 -206.001 -86c-76.667 0 -132.167 28.667 -166.5 86s-51.5 148.666 -51.5 273.999c0 135.333 21 228.5 63 279.5s117 76.5 225 76.5c72.667 0 136.667 -7 192 -21l-9 -66c-56 5.33301 -115.333 8 -178 8
c-52.667 0 -92.5 -6.83301 -119.5 -20.5s-47.167 -40.834 -60.5 -81.501s-20 -101 -20 -181c0 -102 11 -173.667 33 -215s60.667 -62 116 -62c52 0 108.667 22.333 170 67v268h86v-399h-64zM314.001 -57.998h23.001c10.667 0 18 -2.16699 22 -6.5s6 -11.5 6 -21.5v-55
c-0.666992 -48 -11.334 -92 -32.001 -132l-36 10c6 34.667 9 69 9 103c-14.667 0 -22 8 -22 24v50c0.666992 18.667 10.667 28 30 28z" />
    <glyph glyph-name="gcommaaccent" unicode="&#x123;" horiz-adv-x="558" 
d="M295 557h-23c-10.667 0 -18 2 -22 6s-6 11 -6 21v55c1.33301 49.333 12 93.333 32 132l37 -9c-6 -30 -9 -64.333 -9 -103c14 0 21 -8 21 -24v-51c-0.666992 -18 -10.667 -27 -30 -27zM531 440l-71.998 -5.99902c13.333 -22 20 -52 20 -90
c0 -54.667 -15.667 -94.167 -47 -118.5s-85.333 -36.5 -162 -36.5c-37.333 0 -71 3.33301 -101 10c-12.667 -15.333 -16.334 -32.166 -11.001 -50.499s20.333 -29.5 45 -33.5l182 -29c45.333 -6.66699 77.166 -20.834 95.499 -42.501s27.5 -53.167 27.5 -94.5
c0 -56.667 -16.833 -96 -50.5 -118s-94.167 -33 -181.5 -33c-88 0 -149.167 10.833 -183.5 32.5s-51.5 60.167 -51.5 115.5c0 28.667 6 51.667 18 69s32.333 33.666 61 48.999c-24.667 19.333 -36 45 -34 77s14.667 57 38 75c-41.333 22 -62 64.333 -62 127
c0 56 15.5 96 46.5 120s85.167 36 162.5 36c46 0 83.667 -4 113 -12h152zM270.002 254.001c48 0 81.667 6.83301 101 20.5s29 36.834 29 69.501s-9.5 55.834 -28.5 69.501s-52.833 20.5 -101.5 20.5c-48 0 -81.667 -6.83301 -101 -20.5s-29 -36.834 -29 -69.501
s9.66699 -55.834 29 -69.501s53 -20.5 101 -20.5zM341.002 23.001l-166 23c-34 -26 -51 -57 -51 -93c0 -34 10 -56.333 30 -67s60.333 -16 121 -16c59.333 0 99.166 5.5 119.499 16.5s30.5 33.167 30.5 66.5c0 24 -5.16699 40.333 -15.5 49s-33.166 15.667 -68.499 21z" />
    <glyph glyph-name="Hbar" unicode="&#x126;" horiz-adv-x="676" 
d="M655 519h-70v-519h-88v331h-318v-331h-88v519h-71v47h71v124h88v-124h318v124h88v-124h70v-47zM497 519h-318v-112h318v112z" />
    <glyph glyph-name="hbar" unicode="&#x127;" horiz-adv-x="585" 
d="M168 573v-66c0 -37.333 -2 -69 -6 -95c78.667 58 150.667 87 216 87c88 0 132 -44.667 132 -134v-365h-86v341c0 32 -5.16699 54.333 -15.5 67s-28.166 19 -53.499 19c-27.333 0 -54.833 -6 -82.5 -18s-62.834 -31.333 -105.501 -58v-351h-85v573h-76v49h76v78h86v-78
h145v-49h-145z" />
    <glyph glyph-name="Imacron" unicode="&#x12a;" horiz-adv-x="262" 
d="M271 786h-279v63h279v-63zM175 0h-88v690h88v-690z" />
    <glyph glyph-name="imacron" unicode="&#x12b;" horiz-adv-x="249" 
d="M265 606h-279v63h279v-63zM167 0h-85v487h85v-487z" />
    <glyph glyph-name="Iogonek" unicode="&#x12e;" horiz-adv-x="262" 
d="M169 -158l11 -35.002c-62 -23.333 -105.833 -26.166 -131.5 -8.49902s-31.5 45.834 -17.5 84.501c14 39.333 45 78.333 93 117h-37v690h88v-690h-10c-35.333 -42 -60 -80 -74 -114c-10 -24 -7.5 -40 7.5 -48s38.5 -6.66699 70.5 4z" />
    <glyph glyph-name="iogonek" unicode="&#x12f;" horiz-adv-x="249" 
d="M139 579h-28c-17.333 0 -26 8.66699 -26 26v57c0 16.667 8.66699 25 26 25h28c17.333 0 26 -8.33301 26 -25v-57c0 -17.333 -8.66699 -26 -26 -26zM165 -158l10 -35c-30 -12.667 -56.5 -19.5 -79.5 -20.5s-40 3 -51 12s-18.5 20.833 -22.5 35.5s-2.33301 31 5 49
c12.667 38.667 43.667 77.667 93 117h-38v487h85v-487h-6c-36 -40.667 -60.667 -78.667 -74 -114c-10 -24 -7.5 -40 7.5 -48s38.5 -6.66699 70.5 4z" />
    <glyph glyph-name="Idotaccent" unicode="&#x130;" horiz-adv-x="262" 
d="M117 867h28c17.333 0 26 -8.66699 26 -26v-56c0 -17.333 -8.66699 -26 -26 -26h-28c-17.333 0 -26 8.66699 -26 26v56c0 17.333 8.66699 26 26 26zM175 0h-88v690h88v-690z" />
    <glyph glyph-name="dotlessi" unicode="&#x131;" horiz-adv-x="249" 
d="M167 0h-85v487h85v-487z" />
    <glyph glyph-name="IJ" unicode="&#x132;" horiz-adv-x="602" 
d="M175 0h-88v690h88v-690zM518 690v-545c0 -50 -11.5 -88.167 -34.5 -114.5s-56.167 -39.5 -99.5 -39.5c-37.333 0 -68 4.33301 -92 13l9 62h50c52.667 0 79 25.333 79 76v548h88z" />
    <glyph glyph-name="ij" unicode="&#x133;" horiz-adv-x="498" 
d="M104 694h40c17.333 0 26 -8.66699 26 -26v-57c0 -17.333 -8.66699 -26 -26 -26h-40c-17.333 0 -26 8.66699 -26 26v57c0 17.333 8.66699 26 26 26zM354 694h40c17.333 0 26 -8.66699 26 -26v-57c0 -17.333 -8.66699 -26 -26 -26h-40c-17.333 0 -26 8.66699 -26 26v57
c0 17.333 8.66699 26 26 26zM166 0h-84v487h84v-487zM416 487l0.000976562 -499c0 -38.667 -8.33301 -74.667 -25 -108s-39.334 -61 -68.001 -83l-48 37c37.333 46 56 97.333 56 154v499h85z" />
    <glyph glyph-name="Kcommaaccent" unicode="&#x136;" horiz-adv-x="591" 
d="M572 0l-99 -0.000976562l-220 324h-85c4 -25.333 6 -49.666 6 -72.999v-251h-87v690h87v-216c0 -26.667 -2 -53 -6 -79h84l210 295h96l-201 -286c-8 -12 -20.667 -26.667 -38 -44v-2c18.667 -18 33 -34 43 -48zM304 -58.001l22.001 0.000976562
c10.667 0 18.167 -2.16699 22.5 -6.5s6.5 -11.5 6.5 -21.5v-55c-0.666992 -46 -11.334 -90 -32.001 -132l-37 10c6 34.667 9 69 9 103c-6.66699 0 -12 2.16699 -16 6.5s-5.66699 10.166 -5 17.499v50c0.666992 18.667 10.667 28 30 28z" />
    <glyph glyph-name="kcommaaccent" unicode="&#x137;" horiz-adv-x="509" 
d="M492 0l-98.999 0.000976562l-169 244h-66c3.33301 -30 5 -56 5 -78v-166h-85v700h86v-311c0 -32.667 -1.66699 -60.334 -5 -83.001h64l154 181h99l-153 -179c-10 -14 -21.333 -25 -34 -33v-2c13.333 -10 24.666 -23 33.999 -39zM265.001 -57.999h23.001
c10.667 0 18 -2.16699 22 -6.5s6 -11.5 6 -21.5v-55c-0.666992 -48 -11.334 -92 -32.001 -132l-36 10c6 34.667 9 69 9 103c-14.667 0 -22 8 -22 24v50c0.666992 18.667 10.667 28 30 28z" />
    <glyph glyph-name="Lacute" unicode="&#x139;" horiz-adv-x="514" 
d="M286 848l-192 -120l-29 39l172 147zM172 690v-550c0 -44 22.333 -66 67 -66h249l4 -68c-58 -4.66699 -147 -7 -267 -7c-93.333 0 -140 43.333 -140 130v561h87z" />
    <glyph glyph-name="lacute" unicode="&#x13a;" horiz-adv-x="297" 
d="M280 870l-192 -121l-29 40l172 146zM164 700l0.000976562 -566c-0.666992 -21.333 4.66602 -37.5 15.999 -48.5s28 -16.5 50 -16.5h47l10 -65c-18 -8.66699 -47.667 -13 -89 -13c-36.667 0 -65.667 10.833 -87 32.5s-32 52.167 -32 91.5v585h85z" />
    <glyph glyph-name="Lcommaaccent" unicode="&#x13b;" horiz-adv-x="514" 
d="M172 690v-550c0 -44 22.333 -66 67 -66h249l4 -68c-58 -4.66699 -147 -7 -267 -7c-93.333 0 -140 43.333 -140 130v561h87zM285 -61h23c10.667 0 18 -2 22 -6s6 -11 6 -21v-55c-1.33301 -49.333 -12 -93.333 -32 -132l-36 10c6 34.667 9 69 9 103
c-14.667 0 -22 7.66699 -22 23v51c0.666992 18 10.667 27 30 27z" />
    <glyph glyph-name="lcommaaccent" unicode="&#x13c;" horiz-adv-x="297" 
d="M164 700l0.000976562 -566c-0.666992 -21.333 4.66602 -37.5 15.999 -48.5s28 -16.5 50 -16.5h47l10 -65c-18 -8.66699 -47.667 -13 -89 -13c-36.667 0 -65.667 10.833 -87 32.5s-32 52.167 -32 91.5v585h85zM162.001 -61l22.001 0.000976562c10.667 0 18.167 -2 22.5 -6
s6.5 -11 6.5 -21v-55c-0.666992 -47.333 -11.334 -91.333 -32.001 -132l-37 10c6 35.333 9 69.666 9 102.999c-6.66699 0 -12 2.16699 -16 6.5s-5.66699 9.83301 -5 16.5v51c0.666992 18 10.667 27 30 27z" />
    <glyph glyph-name="Lcaron" unicode="&#x13d;" horiz-adv-x="514" 
d="M320 691l22.001 0.00195312c10.667 0 18.167 -2 22.5 -6s6.5 -11 6.5 -21v-55c-0.666992 -46 -11.334 -90 -32.001 -132l-37 10c6 35.333 9 69.666 9 102.999c-6.66699 0 -12 2.16699 -16 6.5s-5.66699 10.166 -5 17.499v50c0.666992 18 10.667 27 30 27z
M172.001 690.002v-550c0 -44 22.333 -66 67 -66h249l4 -68c-58 -4.66699 -147 -7 -267 -7c-93.333 0 -140 43.333 -140 130v561h87z" />
    <glyph glyph-name="lcaron" unicode="&#x13e;" horiz-adv-x="297" 
d="M253 703l22 -0.000976562c10.667 0 18 -1.83301 22 -5.5s6 -10.167 6 -19.5v-51c-0.666992 -44.667 -11 -85.667 -31 -123l-36 10c5.33301 28.667 8 60.334 8 95.001c-14 0 -21 7.33301 -21 22v47c0.666992 16.667 10.667 25 30 25zM164 699.999l0.000976562 -566
c-0.666992 -21.333 4.66602 -37.5 15.999 -48.5s28 -16.5 50 -16.5h47l10 -65c-18 -8.66699 -47.667 -13 -89 -13c-36.667 0 -65.667 10.833 -87 32.5s-32 52.167 -32 91.5v585h85z" />
    <glyph glyph-name="Ldot" unicode="&#x13f;" horiz-adv-x="514" 
d="M172 690v-550c0 -44 22.333 -66 67 -66h249l4 -68c-58 -4.66699 -147 -7 -267 -7c-93.333 0 -140 43.333 -140 130v561h87zM403 338h-28c-16.667 0 -25 8.66699 -25 26v57c0 17.333 8.33301 26 25 26h28c17.333 0 26 -8.66699 26 -26v-57c0 -17.333 -8.66699 -26 -26 -26
z" />
    <glyph glyph-name="ldot" unicode="&#x140;" horiz-adv-x="322" 
d="M164 700l0.000976562 -566c-0.666992 -21.333 4.66602 -37.5 15.999 -48.5s28 -16.5 50 -16.5h47l10 -65c-18 -8.66699 -47.667 -13 -89 -13c-36.667 0 -65.667 10.833 -87 32.5s-32 52.167 -32 91.5v585h85zM293.001 335h-28c-17.333 0 -26 8.66699 -26 26v57
c0 17.333 8.66699 26 26 26h28c17.333 0 26 -8.66699 26 -26v-57c0 -17.333 -8.66699 -26 -26 -26z" />
    <glyph glyph-name="Lslash" unicode="&#x141;" horiz-adv-x="520" 
d="M495 74l3.00098 -67.999c-58 -4.66699 -147 -7 -267 -7c-93.333 0 -140 43.333 -140 130v206l-71 -30v55l71 29v301h88v-264l115 48v-54l-115 -48v-232c0 -22.667 5.16699 -39.334 15.5 -50.001s27.166 -16 50.499 -16h250z" />
    <glyph glyph-name="lslash" unicode="&#x142;" horiz-adv-x="328" 
d="M299 69l10 -65c-18 -8.66699 -47.667 -13 -89 -13c-36.667 0 -65.667 10.833 -87 32.5s-32 52.167 -32 91.5v219l-80 -33v55l80 33v311h85v-275l108 45v-55l-109 -45v-236c0 -43.333 22 -65 66 -65h48z" />
    <glyph glyph-name="Nacute" unicode="&#x143;" horiz-adv-x="705" 
d="M516 848l-191 -120l-30 39l173 147zM618 690l-0.000976562 -654.999c0 -23.333 -11.333 -35 -34 -35h-86c-18 0 -31 9.33301 -39 28l-233 489c-22.667 49.333 -35.667 79.666 -39 90.999h-16c2.66699 -26.667 4 -57 4 -91v-517h-88v655c0 23.333 11.667 35 35 35h83
c18 0 31 -9.33301 39 -28l226 -477c16.667 -32.667 32.334 -66 47.001 -100h17c-2 36 -3 71 -3 105v500h87z" />
    <glyph glyph-name="nacute" unicode="&#x144;" horiz-adv-x="581" 
d="M261 548l-29 39l172 147l49 -65zM150 487l5.99902 -77c78.667 59.333 151.334 89 218.001 89c88 0 132 -44.667 132 -134v-365h-85v341c0 32 -5.33301 54.333 -16 67s-28.667 19 -54 19c-26.667 0 -53.5 -6 -80.5 -18s-62.833 -31.667 -107.5 -59v-350h-85v487h72z" />
    <glyph glyph-name="Ncommaaccent" unicode="&#x145;" horiz-adv-x="705" 
d="M618 690l-0.000976562 -654.999c0 -23.333 -11.333 -35 -34 -35h-86c-18 0 -31 9.33301 -39 28l-233 489c-22.667 49.333 -35.667 79.666 -39 90.999h-16c2.66699 -26.667 4 -57 4 -91v-517h-88v655c0 23.333 11.667 35 35 35h83c18 0 31 -9.33301 39 -28l226 -477
c16.667 -32.667 32.334 -66 47.001 -100h17c-2 36 -3 71 -3 105v500h87zM328.999 -57.999l22.001 0.000976562c10.667 0 18.167 -2.16699 22.5 -6.5s6.5 -11.5 6.5 -21.5v-55c-0.666992 -46 -11.334 -90 -32.001 -132l-37 10c6 34.667 9 69 9 103
c-6.66699 0 -12 2.16699 -16 6.5s-5.66699 10.166 -5 17.499v50c0.666992 18.667 10.667 28 30 28z" />
    <glyph glyph-name="ncommaaccent" unicode="&#x146;" horiz-adv-x="581" 
d="M150 487l5.99902 -77c78.667 59.333 151.334 89 218.001 89c88 0 132 -44.667 132 -134v-365h-85v341c0 32 -5.33301 54.333 -16 67s-28.667 19 -54 19c-26.667 0 -53.5 -6 -80.5 -18s-62.833 -31.667 -107.5 -59v-350h-85v487h72zM279.999 -58l23.001 0.000976562
c10.667 0 18 -2.16699 22 -6.5s6 -11.5 6 -21.5v-55c-0.666992 -46 -11.334 -90 -32.001 -132l-37 10c6 34.667 9 69 9 103c-6.66699 0 -12 2.16699 -16 6.5s-5.66699 10.166 -5 17.499v50c0.666992 18.667 10.667 28 30 28z" />
    <glyph glyph-name="Ncaron" unicode="&#x147;" horiz-adv-x="705" 
d="M525 871l-143 -127h-40l-143 127l29 37l130 -87h8l129 87zM618 690l-0.000976562 -654.999c0 -23.333 -11.333 -35 -34 -35h-86c-18 0 -31 9.33301 -39 28l-233 489c-22.667 49.333 -35.667 79.666 -39 90.999h-16c2.66699 -26.667 4 -57 4 -91v-517h-88v655
c0 23.333 11.667 35 35 35h83c18 0 31 -9.33301 39 -28l226 -477c16.667 -32.667 32.334 -66 47.001 -100h17c-2 36 -3 71 -3 105v500h87z" />
    <glyph glyph-name="ncaron" unicode="&#x148;" horiz-adv-x="581" 
d="M278 564l-142 127l29 37l129 -87h8l130 87l30 -37l-144 -127h-40zM150 487l5.99902 -77c78.667 59.333 151.334 89 218.001 89c88 0 132 -44.667 132 -134v-365h-85v341c0 32 -5.33301 54.333 -16 67s-28.667 19 -54 19c-26.667 0 -53.5 -6 -80.5 -18
s-62.833 -31.667 -107.5 -59v-350h-85v487h72z" />
    <glyph glyph-name="Eng" unicode="&#x14a;" horiz-adv-x="705" 
d="M618 690l-0.000976562 -769c0 -44 -12 -78 -36 -102s-57 -35.667 -99 -35c-34.667 0 -64 4 -88 12l9 56h49c54.667 0 82 25.333 82 76v72h-35c-9.33301 -0 -18 8.33301 -26 25l-248 477c-12 23.333 -25.667 54 -41 92h-14c2.66699 -20.667 4 -51.667 4 -93v-501h-88v655
c0 23.333 11.667 35 35 35h67c16.667 0 30 -9.33301 40 -28l241 -462c12.667 -24.667 28.334 -58 47.001 -100h17c-2.66699 45.333 -4 79.333 -4 102v488h88z" />
    <glyph glyph-name="eng" unicode="&#x14b;" horiz-adv-x="581" 
d="M144 487l8 -79.999c78 61.333 151.667 92 221 92c88.667 0 133 -44.667 133 -134v-433c0 -44.667 -10.5 -78.834 -31.5 -102.501s-51.833 -35.167 -92.5 -34.5c-28 0 -56.667 4.33301 -86 13l10 54h43c48 0 72 25.667 72 77v402c0 28.667 -5.5 49.167 -16.5 61.5
s-29.5 18.5 -55.5 18.5c-44.667 0 -106.667 -23.667 -186 -71v-350h-85v487h66z" />
    <glyph glyph-name="Omacron" unicode="&#x14c;" horiz-adv-x="668" 
d="M473 786h-279v63h279v-63zM334 703c101.333 0 172 -26.167 212 -78.5s60 -145.5 60 -279.5s-20 -227.167 -60 -279.5s-110.667 -78.5 -212 -78.5s-172.166 26.167 -212.499 78.5s-60.5 145.5 -60.5 279.5s20.167 227.167 60.5 279.5s111.166 78.5 212.499 78.5zM334 624
c-68 0 -115 -20.167 -141 -60.5s-39 -113.166 -39 -218.499s13 -178.166 39 -218.499s73 -60.5 141 -60.5s115 20.167 141 60.5s39 113.166 39 218.499s-13 178.166 -39 218.499s-73 60.5 -141 60.5z" />
    <glyph glyph-name="omacron" unicode="&#x14d;" horiz-adv-x="568" 
d="M423 606h-279v63h279v-63zM284 499c84 0 143.167 -19.333 177.5 -58s51.5 -104.667 51.5 -198s-17.167 -159.333 -51.5 -198s-93.5 -58 -177.5 -58c-83.333 0 -142.333 19.333 -177 58s-52 104.667 -52 198s17.333 159.333 52 198s93.667 58 177 58zM284 427
c-53.333 0 -90 -13 -110 -39s-30 -74.333 -30 -145s10 -119 30 -145s56.667 -39 110 -39s90.166 13 110.499 39s30.5 74.333 30.5 145s-10.167 119 -30.5 145s-57.166 39 -110.499 39z" />
    <glyph glyph-name="Ohungarumlaut" unicode="&#x150;" horiz-adv-x="668" 
d="M538 882l-134 -160l-38 28l110 174zM374 882l-134 -160l-38 28l110 174zM334 703c101.333 0 172 -26.167 212 -78.5s60 -145.5 60 -279.5s-20 -227.167 -60 -279.5s-110.667 -78.5 -212 -78.5s-172.166 26.167 -212.499 78.5s-60.5 145.5 -60.5 279.5
s20.167 227.167 60.5 279.5s111.166 78.5 212.499 78.5zM334 624c-68 0 -115 -20.167 -141 -60.5s-39 -113.166 -39 -218.499s13 -178.166 39 -218.499s73 -60.5 141 -60.5s115 20.167 141 60.5s39 113.166 39 218.499s-13 178.166 -39 218.499s-73 60.5 -141 60.5z" />
    <glyph glyph-name="ohungarumlaut" unicode="&#x151;" horiz-adv-x="568" 
d="M488 702l-134 -160l-38 29l110 173zM324 702l-135 -160l-37 29l110 173zM284 499c84 0 143.167 -19.333 177.5 -58s51.5 -104.667 51.5 -198s-17.167 -159.333 -51.5 -198s-93.5 -58 -177.5 -58c-83.333 0 -142.333 19.333 -177 58s-52 104.667 -52 198
s17.333 159.333 52 198s93.667 58 177 58zM284 427c-53.333 0 -90 -13 -110 -39s-30 -74.333 -30 -145s10 -119 30 -145s56.667 -39 110 -39s90.166 13 110.499 39s30.5 74.333 30.5 145s-10.167 119 -30.5 145s-57.166 39 -110.499 39z" />
    <glyph glyph-name="OE" unicode="&#x152;" horiz-adv-x="913" 
d="M859 73l2.99902 -68c-61.333 -4 -160 -6 -296 -6c-26.667 0 -49.667 7 -69 21c-50 -22 -104.333 -33 -163 -33c-101.333 0 -172.166 26.167 -212.499 78.5s-60.5 145.5 -60.5 279.5s20.167 227.167 60.5 279.5s111.166 78.5 212.499 78.5c60 0 116 -10.667 168 -32
c20.667 13.333 44.334 20 71.001 20c132.667 0 229 -2 289 -6l-3 -69h-257c-44.667 0 -67 -22 -67 -66v-150h284v-72h-284v-188c0 -23.333 5.33301 -40.333 16 -51s27.667 -16 51 -16h257zM446.999 129v431.999c0 16 2.66699 32 8 48c-40 10 -80.333 15 -121 15
c-68 0 -115 -20 -141 -60s-39 -113 -39 -219c0 -105.333 13 -178.166 39 -218.499s73 -60.5 141 -60.5c46 0 86 5.33301 120 16c-4.66699 13.333 -7 29 -7 47z" />
    <glyph glyph-name="oe" unicode="&#x153;" horiz-adv-x="907" 
d="M706 206h-192c4 -57.333 17.5 -96 40.5 -116s61.167 -30 114.5 -30c54.667 0 110.667 4 168 12l8 -57c-42.667 -18 -105.667 -27 -189 -27c-90 0 -152 22.333 -186 67c-34 -45.333 -96 -68 -186 -68c-83.333 0 -142.333 19.333 -177 58s-52 104.667 -52 198
s17.333 159.333 52 198s93.667 58 177 58c88.667 0 150 -21.667 184 -65c32 43.333 90.333 65 175 65c142 0 213.667 -50 215 -150c0 -54 -11.5 -91.333 -34.5 -112s-62.167 -31 -117.5 -31zM513 269h187.998c27.333 0 46.333 6 57 18s15.334 33 14.001 63
c-2.66699 51.333 -45 77 -127 77c-48 0 -81.667 -11.5 -101 -34.5s-29.666 -64.167 -30.999 -123.5zM283.998 59c50.667 0 86.333 11.668 107 35.001s32 65.666 34 126.999l-1 26v22c-2 60 -13.167 101.333 -33.5 124s-55.833 34 -106.5 34c-53.333 0 -90 -13 -110 -39
s-30 -74.333 -30 -145s10 -119 30 -145s56.667 -39 110 -39z" />
    <glyph glyph-name="Racute" unicode="&#x154;" horiz-adv-x="618" 
d="M267 728l-30 39l173 147l48 -66zM573 0h-93.9971l-61 216c-8.66699 26 -20.334 44.5 -35.001 55.5s-33.667 16.5 -57 16.5s-51.833 0.166992 -85.5 0.5s-55.834 0.5 -66.501 0.5v-289h-87v690c56 6 135.333 9 238 9c82 0 139.667 -14.167 173 -42.5s50 -80.5 50 -156.5
c0 -56.667 -9.83301 -99 -29.5 -127s-52.167 -45 -97.5 -51v-5c18.667 -4.66699 35.667 -15.5 51 -32.5s26.666 -39.167 33.999 -66.5zM174.003 364h149c52 0.666992 87.667 10 107 28s29 52.333 29 103c0 50 -9.66699 83.833 -29 101.5s-55 26.5 -107 26.5
c-73.333 0 -123 -0.333008 -149 -1v-258z" />
    <glyph glyph-name="racute" unicode="&#x155;" horiz-adv-x="401" 
d="M191 548l-29 39l172 147l49 -65zM383 499l-9.99902 -80h-28c-24.667 0 -50.167 -4.83301 -76.5 -14.5s-61.5 -25.5 -105.5 -47.5v-357h-85v487h66l9 -77c75.333 59.333 144.666 89 207.999 89h22z" />
    <glyph glyph-name="Rcommaaccent" unicode="&#x156;" horiz-adv-x="618" 
d="M573 0h-93.9971l-61 216c-8.66699 26 -20.334 44.5 -35.001 55.5s-33.667 16.5 -57 16.5s-51.833 0.166992 -85.5 0.5s-55.834 0.5 -66.501 0.5v-289h-87v690c56 6 135.333 9 238 9c82 0 139.667 -14.167 173 -42.5s50 -80.5 50 -156.5
c0 -56.667 -9.83301 -99 -29.5 -127s-52.167 -45 -97.5 -51v-5c18.667 -4.66699 35.667 -15.5 51 -32.5s26.666 -39.167 33.999 -66.5zM174.003 364h149c52 0.666992 87.667 10 107 28s29 52.333 29 103c0 50 -9.66699 83.833 -29 101.5s-55 26.5 -107 26.5
c-73.333 0 -123 -0.333008 -149 -1v-258zM317.003 -58h23.001c10.667 0 18 -2.16699 22 -6.5s6 -11.5 6 -21.5v-55c-0.666992 -48 -11.334 -92 -32.001 -132l-36 10c6 34.667 9 69 9 103c-14.667 0 -22 8 -22 24v50c0.666992 18.667 10.667 28 30 28z" />
    <glyph glyph-name="rcommaaccent" unicode="&#x157;" horiz-adv-x="401" 
d="M383 499l-9.99902 -80h-28c-24.667 0 -50.167 -4.83301 -76.5 -14.5s-61.5 -25.5 -105.5 -47.5v-357h-85v487h66l9 -77c75.333 59.333 144.666 89 207.999 89h22zM102.001 -58l23.001 0.000976562c10.667 0 18 -2.16699 22 -6.5s6 -11.5 6 -21.5v-55
c-0.666992 -46 -11.334 -90 -32.001 -132l-37 10c6 34.667 9 69 9 103c-6.66699 0 -12 2.16699 -16 6.5s-5.66699 10.166 -5 17.499v50c0.666992 18.667 10.667 28 30 28z" />
    <glyph glyph-name="Rcaron" unicode="&#x158;" horiz-adv-x="618" 
d="M284 744l-143 127l29 37l130 -87h8l129 87l30 -37l-143 -127h-40zM573 0h-93.9971l-61 216c-8.66699 26 -20.334 44.5 -35.001 55.5s-33.667 16.5 -57 16.5s-51.833 0.166992 -85.5 0.5s-55.834 0.5 -66.501 0.5v-289h-87v690c56 6 135.333 9 238 9
c82 0 139.667 -14.167 173 -42.5s50 -80.5 50 -156.5c0 -56.667 -9.83301 -99 -29.5 -127s-52.167 -45 -97.5 -51v-5c18.667 -4.66699 35.667 -15.5 51 -32.5s26.666 -39.167 33.999 -66.5zM174.003 364h149c52 0.666992 87.667 10 107 28s29 52.333 29 103
c0 50 -9.66699 83.833 -29 101.5s-55 26.5 -107 26.5c-73.333 0 -123 -0.333008 -149 -1v-258z" />
    <glyph glyph-name="rcaron" unicode="&#x159;" horiz-adv-x="401" 
d="M209 564l-143 127l29 37l129 -87h8l130 87l30 -37l-144 -127h-39zM144 487l9.00098 -77c75.333 59.333 144.666 89 207.999 89h22l-10 -80h-28c-24.667 0 -50.167 -4.83301 -76.5 -14.5s-61.5 -25.5 -105.5 -47.5v-357h-85v487h66z" />
    <glyph glyph-name="Sacute" unicode="&#x15a;" horiz-adv-x="561" 
d="M434 848l-192 -120l-29 39l172 147zM334 292l-143 36.001c-48.667 12 -83.5 33.5 -104.5 64.5s-31.5 73.5 -31.5 127.5c0 40 4.16699 72.167 12.5 96.5s22.666 42.666 42.999 54.999s43 20.5 68 24.5s58.5 6 100.5 6c81.333 -1.33301 149.666 -8 204.999 -20l-6 -64
c-64.667 3.33301 -129.667 5 -195 5c-29.333 0 -51 -0.666992 -65 -2s-27.667 -5.33301 -41 -12s-22.166 -17.167 -26.499 -31.5s-6.5 -34.166 -6.5 -59.499c0 -36.667 6.5 -62.667 19.5 -78s35.5 -27 67.5 -35l140 -35c51.333 -12.667 87.333 -34.334 108 -65.001
s31 -73.667 31 -129c0 -76 -17.167 -126.333 -51.5 -151s-94.166 -37 -179.499 -37c-72.667 0 -144 6.33301 -214 19l6 65c112 -4 182.333 -5.66699 211 -5c54.667 0 91.5 7 110.5 21s28.5 44 28.5 90c0 38 -6.5 64.5 -19.5 79.5s-35.5 26.5 -67.5 34.5z" />
    <glyph glyph-name="sacute" unicode="&#x15b;" horiz-adv-x="508" 
d="M414 669l-192 -121l-29 39l172 147zM300 197l-140.001 32c-40 9.33301 -68.333 24.333 -85 45s-25 51 -25 91c0 54 14.167 90.167 42.5 108.5s77.5 26.833 147.5 25.5c78 -1.33301 146.333 -6.33301 205 -15l-7 -62c-101.333 3.33301 -163 5 -185 5
c-49.333 0.666992 -81.666 -2.33301 -96.999 -9s-23 -24.334 -23 -53.001c0 -23.333 5.16699 -39.333 15.5 -48s28.833 -16 55.5 -22l142 -32c40 -10 68.833 -24.833 86.5 -44.5s26.5 -49.5 26.5 -89.5c0 -56.667 -15.667 -94.167 -47 -112.5s-85 -27.5 -161 -27.5
c-68 0 -131.667 4.66699 -191 14l6 62c56.667 -3.33301 112.667 -4.66602 168 -3.99902c56.667 0 94.667 4.33301 114 13s29 27 29 55c0 22 -5.83301 37.167 -17.5 45.5s-31.5 15.833 -59.5 22.5z" />
    <glyph glyph-name="Scedilla" unicode="&#x15e;" horiz-adv-x="561" 
d="M334 292l-143 36.001c-48.667 12 -83.5 33.5 -104.5 64.5s-31.5 73.5 -31.5 127.5c0 40 4.16699 72.167 12.5 96.5s22.666 42.666 42.999 54.999s43 20.5 68 24.5s58.5 6 100.5 6c81.333 -1.33301 149.666 -8 204.999 -20l-6 -64c-64.667 3.33301 -129.667 5 -195 5
c-29.333 0 -51 -0.666992 -65 -2s-27.667 -5.33301 -41 -12s-22.166 -17.167 -26.499 -31.5s-6.5 -34.166 -6.5 -59.499c0 -36.667 6.5 -62.667 19.5 -78s35.5 -27 67.5 -35l140 -35c51.333 -12.667 87.333 -34.334 108 -65.001s31 -73.667 31 -129
c0 -76 -17.167 -126.333 -51.5 -151s-94.166 -37 -179.499 -37c-72.667 0 -144 6.33301 -214 19l6 65c112 -4 182.333 -5.66699 211 -5c54.667 0 91.5 7 110.5 21s28.5 44 28.5 90c0 38 -6.5 64.5 -19.5 79.5s-35.5 26.5 -67.5 34.5zM232 -94.999l9 40
c40.667 4 69.5 1.5 86.5 -7.5s25.167 -28.167 24.5 -57.5c-0.666992 -42 -16.667 -74.167 -48 -96.5s-71 -30.5 -119 -24.5l13 45c26.667 -0.666992 48.5 5.5 65.5 18.5s26.167 30.167 27.5 51.5c0 12 -4 20.167 -12 24.5s-23.667 6.5 -47 6.5z" />
    <glyph glyph-name="scedilla" unicode="&#x15f;" horiz-adv-x="508" 
d="M300 197l-140.001 32c-40 9.33301 -68.333 24.333 -85 45s-25 51 -25 91c0 54 14.167 90.167 42.5 108.5s77.5 26.833 147.5 25.5c78 -1.33301 146.333 -6.33301 205 -15l-7 -62c-101.333 3.33301 -163 5 -185 5c-49.333 0.666992 -81.666 -2.33301 -96.999 -9
s-23 -24.334 -23 -53.001c0 -23.333 5.16699 -39.333 15.5 -48s28.833 -16 55.5 -22l142 -32c40 -10 68.833 -24.833 86.5 -44.5s26.5 -49.5 26.5 -89.5c0 -56.667 -15.667 -94.167 -47 -112.5s-85 -27.5 -161 -27.5c-68 0 -131.667 4.66699 -191 14l6 62
c56.667 -3.33301 112.667 -4.66602 168 -3.99902c56.667 0 94.667 4.33301 114 13s29 27 29 55c0 22 -5.83301 37.167 -17.5 45.5s-31.5 15.833 -59.5 22.5zM196.999 -94l9 40c40.667 4 69.5 1.33301 86.5 -8s25.167 -28.333 24.5 -57
c-0.666992 -42 -16.667 -74.333 -48 -97s-71 -30.667 -119 -24l13 45c27.333 -0.666992 49.5 5.5 66.5 18.5s25.833 29.833 26.5 50.5c0.666992 12 -3 20.167 -11 24.5s-24 6.83301 -48 7.5z" />
    <glyph glyph-name="Scaron" unicode="&#x160;" horiz-adv-x="561" 
d="M443 871l-144 -127h-39l-143 127l29 37l129 -87h8l130 87zM334 292l-143 36.001c-48.667 12 -83.5 33.5 -104.5 64.5s-31.5 73.5 -31.5 127.5c0 40 4.16699 72.167 12.5 96.5s22.666 42.666 42.999 54.999s43 20.5 68 24.5s58.5 6 100.5 6
c81.333 -1.33301 149.666 -8 204.999 -20l-6 -64c-64.667 3.33301 -129.667 5 -195 5c-29.333 0 -51 -0.666992 -65 -2s-27.667 -5.33301 -41 -12s-22.166 -17.167 -26.499 -31.5s-6.5 -34.166 -6.5 -59.499c0 -36.667 6.5 -62.667 19.5 -78s35.5 -27 67.5 -35l140 -35
c51.333 -12.667 87.333 -34.334 108 -65.001s31 -73.667 31 -129c0 -76 -17.167 -126.333 -51.5 -151s-94.166 -37 -179.499 -37c-72.667 0 -144 6.33301 -214 19l6 65c112 -4 182.333 -5.66699 211 -5c54.667 0 91.5 7 110.5 21s28.5 44 28.5 90c0 38 -6.5 64.5 -19.5 79.5
s-35.5 26.5 -67.5 34.5z" />
    <glyph glyph-name="scaron" unicode="&#x161;" horiz-adv-x="508" 
d="M423 691l-144 -127h-40l-143 127l29 37l130 -87h8l129 87zM300 197l-140.001 32c-40 9.33301 -68.333 24.333 -85 45s-25 51 -25 91c0 54 14.167 90.167 42.5 108.5s77.5 26.833 147.5 25.5c78 -1.33301 146.333 -6.33301 205 -15l-7 -62c-101.333 3.33301 -163 5 -185 5
c-49.333 0.666992 -81.666 -2.33301 -96.999 -9s-23 -24.334 -23 -53.001c0 -23.333 5.16699 -39.333 15.5 -48s28.833 -16 55.5 -22l142 -32c40 -10 68.833 -24.833 86.5 -44.5s26.5 -49.5 26.5 -89.5c0 -56.667 -15.667 -94.167 -47 -112.5s-85 -27.5 -161 -27.5
c-68 0 -131.667 4.66699 -191 14l6 62c56.667 -3.33301 112.667 -4.66602 168 -3.99902c56.667 0 94.667 4.33301 114 13s29 27 29 55c0 22 -5.83301 37.167 -17.5 45.5s-31.5 15.833 -59.5 22.5z" />
    <glyph glyph-name="Tcedilla" unicode="&#x162;" horiz-adv-x="581" 
d="M557 690v-78h-223v-612h-88v612h-222v78h533zM235 -83l9 39.999c40.667 3.33301 69.667 0.5 87 -8.5s25.666 -27.833 24.999 -56.5c-1.33301 -42.667 -17.666 -75.167 -48.999 -97.5s-71 -30.166 -119 -23.499l14 45c26.667 -0.666992 48.5 5.5 65.5 18.5
s25.833 29.833 26.5 50.5c0.666992 12 -3 20.167 -11 24.5s-24 6.83301 -48 7.5z" />
    <glyph glyph-name="tcedilla" unicode="&#x163;" horiz-adv-x="381" 
d="M200 420l0.000976562 -286.001c0 -23.333 5 -40 15 -50s27 -15 51 -15h74l10 -65c-30.667 -8.66699 -67.334 -13 -110.001 -13c-40.667 0 -71.667 11.333 -93 34s-32 55.334 -32 98.001v297h-88v62l88 4v145h85v-144h155v-67h-155zM163.001 -92.001l9 40
c40.667 4 69.667 1.33301 87 -8s25.666 -28.333 24.999 -57c-1.33301 -42 -17.666 -74.333 -48.999 -97s-71 -30.667 -119 -24l14 45c26.667 -0.666992 48.5 5.5 65.5 18.5s25.833 29.833 26.5 50.5c0.666992 12 -3 20.167 -11 24.5s-24 6.83301 -48 7.5z" />
    <glyph glyph-name="Tcaron" unicode="&#x164;" horiz-adv-x="581" 
d="M271 744l-143 127l29 37l130 -87h8l129 87l31 -37l-144 -127h-40zM557 612h-223v-612h-88v612h-222v78h533v-78z" />
    <glyph glyph-name="tcaron" unicode="&#x165;" horiz-adv-x="381" 
d="M317 557l-36 10c5.33301 30 8 64 8 102c-14 0 -21 8 -21 24v51c0.666992 18 10.667 27 30 27h23c10.667 0 18 -2 22 -6s6 -11 6 -21v-55c-1.33301 -49.333 -12 -93.333 -32 -132zM200 420l0.000976562 -286.001c0 -23.333 5 -40 15 -50s27 -15 51 -15h74l10 -65
c-30.667 -8.66699 -67.334 -13 -110.001 -13c-40.667 0 -71.667 11.333 -93 34s-32 55.334 -32 98.001v297h-88v62l88 4v145h85v-144h155v-67h-155z" />
    <glyph glyph-name="Tbar" unicode="&#x166;" horiz-adv-x="581" 
d="M334 612v-191h140v-50h-140v-371h-88v371h-141v50h141v191h-222v78h533v-78h-223z" />
    <glyph glyph-name="tbar" unicode="&#x167;" horiz-adv-x="381" 
d="M200 420l0.000976562 -95.001h130v-48h-130v-143c0 -23.333 5 -40 15 -50s27 -15 51 -15h74l10 -65c-30.667 -8.66699 -67.334 -13 -110.001 -13c-40.667 0 -71.667 11.333 -93 34s-32 55.334 -32 98.001v154h-65v48h65v95h-88v62l88 4v145h85v-144h155v-67h-155z" />
    <glyph glyph-name="Umacron" unicode="&#x16a;" horiz-adv-x="666" 
d="M474 786h-279v63h279v-63zM584 690l-0.000976562 -426c0 -100.667 -18.667 -172 -56 -214s-101 -63 -191 -63c-93.333 0 -159.166 21 -197.499 63s-57.5 113.333 -57.5 214v426h88v-426c0 -74 12 -125.5 36 -154.5s66.333 -43.5 127 -43.5c60 0 102.167 14.5 126.5 43.5
s36.5 80.5 36.5 154.5v426h88z" />
    <glyph glyph-name="umacron" unicode="&#x16b;" 
d="M427 610h-279v63h279v-63zM492 487v-486.999h-68l-6 70c-73.333 -55.333 -143.333 -83 -210 -83c-88.667 0 -133 44.667 -133 134v366h85v-342c-0.666992 -30.667 5 -52.334 17 -65.001s32 -19 60 -19c24.667 0 49.667 5.5 75 16.5s57 28.833 95 53.5v356h85z" />
    <glyph glyph-name="Uring" unicode="&#x16e;" horiz-adv-x="666" 
d="M334 924c29.333 0 54.5 -10.167 75.5 -30.5s31.5 -45.166 31.5 -74.499s-10.333 -54 -31 -74s-46 -30 -76 -30s-55.333 10 -76 30s-31 44.667 -31 74s10.5 54.166 31.5 74.499s46.167 30.5 75.5 30.5zM334 881c-17.333 0 -31.5 -5.66699 -42.5 -17
s-16.5 -26.333 -16.5 -45c0 -18 5.66699 -32.667 17 -44s25.333 -17 42 -17c17.333 0 31.666 5.66699 42.999 17s17 26 17 44s-5.66699 32.833 -17 44.5s-25.666 17.5 -42.999 17.5zM584 690l-0.000976562 -426c0 -100.667 -18.667 -172 -56 -214s-101 -63 -191 -63
c-93.333 0 -159.166 21 -197.499 63s-57.5 113.333 -57.5 214v426h88v-426c0 -74 12 -125.5 36 -154.5s66.333 -43.5 127 -43.5c60 0 102.167 14.5 126.5 43.5s36.5 80.5 36.5 154.5v426h88z" />
    <glyph glyph-name="uring" unicode="&#x16f;" 
d="M287 538c-30 0 -55.333 10 -76 30s-31 45 -31 75c0 29.333 10.5 54.166 31.5 74.499s46.167 30.5 75.5 30.5s54.5 -10.167 75.5 -30.5s31.5 -45.166 31.5 -74.499c0 -30 -10.333 -55 -31 -75s-46 -30 -76 -30zM287 704c-17.333 0 -31.5 -5.66699 -42.5 -17
s-16.5 -26 -16.5 -44s5.66699 -32.667 17 -44s25.333 -17 42 -17c17.333 0 31.666 5.66699 42.999 17s17 26 17 44s-5.66699 32.667 -17 44s-25.666 17 -42.999 17zM492 487v-486.999h-68l-6 70c-73.333 -55.333 -143.333 -83 -210 -83c-88.667 0 -133 44.667 -133 134v366
h85v-342c-0.666992 -30.667 5 -52.334 17 -65.001s32 -19 60 -19c24.667 0 49.667 5.5 75 16.5s57 28.833 95 53.5v356h85z" />
    <glyph glyph-name="Uhungarumlaut" unicode="&#x170;" horiz-adv-x="666" 
d="M539 882l-135 -160l-37 28l110 174zM375 882l-135 -160l-38 28l111 174zM584 690l-0.000976562 -426c0 -100.667 -18.667 -172 -56 -214s-101 -63 -191 -63c-93.333 0 -159.166 21 -197.499 63s-57.5 113.333 -57.5 214v426h88v-426c0 -74 12 -125.5 36 -154.5
s66.333 -43.5 127 -43.5c60 0 102.167 14.5 126.5 43.5s36.5 80.5 36.5 154.5v426h88z" />
    <glyph glyph-name="uhungarumlaut" unicode="&#x171;" 
d="M320 574l110 174l62 -43l-135 -159zM193 546l-37 28l110 174l62 -43zM492 487v-486.999h-68l-6 70c-73.333 -55.333 -143.333 -83 -210 -83c-88.667 0 -133 44.667 -133 134v366h85v-342c-0.666992 -30.667 5 -52.334 17 -65.001s32 -19 60 -19
c24.667 0 49.667 5.5 75 16.5s57 28.833 95 53.5v356h85z" />
    <glyph glyph-name="Uogonek" unicode="&#x172;" horiz-adv-x="666" 
d="M584 690v-426c0 -94 -16.167 -162.333 -48.5 -205s-86.833 -66.334 -163.5 -71.001c-34.667 -39.333 -58.667 -76.333 -72 -111c-10 -24 -7.5 -40 7.5 -48s38.5 -6.66699 70.5 4l10 -35c-61.333 -23.333 -104.833 -26.166 -130.5 -8.49902s-31.5 45.834 -17.5 84.501
c13.333 38 43 75.667 89 113c-90 1.33301 -153.667 23.166 -191 65.499s-56 112.833 -56 211.5v426h88v-426c0 -74 12 -125.5 36 -154.5s66.333 -43.5 127 -43.5c60 0 102.167 14.5 126.5 43.5s36.5 80.5 36.5 154.5v426h88z" />
    <glyph glyph-name="uogonek" unicode="&#x173;" 
d="M498 -158l11 -35.001c-62 -23.333 -105.833 -26.166 -131.5 -8.49902s-31.5 45.834 -17.5 84.501c14 39.333 45 78.333 93 117h-29l-6 70c-73.333 -55.333 -143.333 -83 -210 -83c-88.667 0 -133 44.667 -133 134v366h85v-342c-0.666992 -30.667 5 -52.334 17 -65.001
s32 -19 60 -19c24.667 0 49.667 5.5 75 16.5s57 28.833 95 53.5v356h85v-487h2c-35.333 -42 -60 -80 -74 -114c-10 -24 -7.5 -40 7.5 -48s38.5 -6.66699 70.5 4z" />
    <glyph glyph-name="Wcircumflex" unicode="&#x174;" horiz-adv-x="948" 
d="M638 768l-30 -36l-130 97h-8l-129 -97l-29 36l131 128h62zM917 690l-139.999 -663.999c-4.66699 -17.333 -16.334 -26 -35.001 -26h-100c-19.333 0 -30.666 9 -33.999 27l-108 519c-4 17.333 -9.33301 43.333 -16 78h-21l-15 -78l-107 -519
c-4.66699 -18 -16.334 -27 -35.001 -27h-101c-8.66699 0 -16.167 2.5 -22.5 7.5s-10.166 11.167 -11.499 18.5l-140 664h93l108 -538c1.33301 -6 6 -34.333 14 -85h23c5.33301 31.333 10.666 59.666 15.999 84.999l107 509c3.33301 19.333 14.666 29 33.999 29h96
c18 0 29.333 -9.66699 34 -29l107 -509c6.66699 -32.667 11.334 -61 14.001 -85h25c6 40 10.333 68 13 84l109 539h93z" />
    <glyph glyph-name="wcircumflex" unicode="&#x175;" horiz-adv-x="824" 
d="M575 589l-30 -37l-129 98h-8l-130 -98l-28 37l131 127h62zM799 487l-142.002 -463.001c-4 -16 -15 -24 -33 -24h-77c-8 0 -15.167 2.5 -21.5 7.5s-10.166 11.5 -11.499 19.5l-80 331c-2 9.33301 -4.66699 22.5 -8 39.5s-6 29.5 -8 37.5h-12l-17 -77l-79 -331
c-4.66699 -18 -16 -27 -34 -27h-76c-18 0 -29 8 -33 24l-142 463h88l101 -359c6 -20.667 11.333 -45 16 -73h13l18 73l81 332c3.33301 18 14 27 32 27h77c16.667 0 27.334 -9.33301 32.001 -28l80 -331c1.33301 -7.33301 4 -19.166 8 -35.499l9 -37.5h13l6.5 31.5
c3.66699 17.667 7.16699 31.5 10.5 41.5l101 359h88z" />
    <glyph glyph-name="Ycircumflex" unicode="&#x176;" horiz-adv-x="569" 
d="M150 732l-29 37l132 127h62l132 -127l-30 -37l-129 98h-8zM328 242v-242h-88v243l-229 447h94l145 -291c8 -16 18.333 -42 31 -78h7c10.667 29.333 21 55 31 77l145 292h93z" />
    <glyph glyph-name="ycircumflex" unicode="&#x177;" horiz-adv-x="529" 
d="M133 552l-29 37l132 127h61l133 -127l-30 -37l-130 98h-8zM510 487l-195 -513.999c-42.667 -114.667 -113.667 -174.334 -213 -179.001l-8 56c38 12 67.833 28.5 89.5 49.5s39.167 47.5 52.5 79.5l8 21h-19c-16 -0 -26 7.33301 -30 22l-177 465h91l129 -363
c9.33301 -27.333 15.333 -47 18 -59h14c5.33301 13.333 12.333 33 21 59l127 363h92z" />
    <glyph glyph-name="Ydieresis" unicode="&#x178;" horiz-adv-x="569" 
d="M210 767h-29c-15.333 0 -23 8 -23 24v55c0 16 7.66699 24 23 24h29c15.333 0 23 -8 23 -24v-55c0 -16 -7.66699 -24 -23 -24zM387 767h-29c-15.333 0 -23 8 -23 24v55c0 16 7.66699 24 23 24h29c16 0 24 -8 24 -24v-55c0 -16 -8 -24 -24 -24zM328 242v-242h-88v243
l-229 447h94l145 -291c8 -16 18.333 -42 31 -78h7c10.667 29.333 21 55 31 77l145 292h93z" />
    <glyph glyph-name="Zacute" unicode="&#x179;" horiz-adv-x="566" 
d="M249 728l-29 39l172 147l49 -66zM519 75v-75h-471v75l368 540h-362v75h458v-75l-366 -540h373z" />
    <glyph glyph-name="zacute" unicode="&#x17a;" horiz-adv-x="510" 
d="M219 548l-29 39l172 147l48 -65zM461 69v-69h-412v69l313 348h-310v70h406v-70l-314 -348h317z" />
    <glyph glyph-name="Zdotaccent" unicode="&#x17b;" horiz-adv-x="566" 
d="M299 759h-27c-17.333 0 -26 8.66699 -26 26v56c0 17.333 8.66699 26 26 26h27c17.333 0 26 -8.66699 26 -26v-56c0 -17.333 -8.66699 -26 -26 -26zM519 75v-75h-471v75l368 540h-362v75h458v-75l-366 -540h373z" />
    <glyph glyph-name="zdotaccent" unicode="&#x17c;" horiz-adv-x="510" 
d="M269 579h-28c-17.333 0 -26 8.66699 -26 26v57c0 16.667 8.66699 25 26 25h28c17.333 0 26 -8.33301 26 -25v-57c0 -17.333 -8.66699 -26 -26 -26zM461 69v-69h-412v69l313 348h-310v70h406v-70l-314 -348h317z" />
    <glyph glyph-name="Zcaron" unicode="&#x17d;" horiz-adv-x="566" 
d="M267 744l-143 127l29 37l129 -87h8l130 87l30 -37l-144 -127h-39zM519 75v-75h-471v75l368 540h-362v75h458v-75l-366 -540h373z" />
    <glyph glyph-name="zcaron" unicode="&#x17e;" horiz-adv-x="510" 
d="M236 564l-143 127l29 37l130 -87h8l129 87l30 -37l-143 -127h-40zM461 69v-69h-412v69l313 348h-310v70h406v-70l-314 -348h317z" />
    <glyph glyph-name="florin" unicode="&#x192;" horiz-adv-x="442" 
d="M417 630l-71.001 0.000976562c-30.667 0 -52.667 -5.66699 -66 -17s-21.333 -33 -24 -65l-14 -150h143l-7 -67h-143l-31 -335c-4 -46.667 -17.667 -82 -41 -106s-59 -36 -107 -36c-42 0 -76 2.33301 -102 7l11 64h67c29.333 0 50.5 6.16699 63.5 18.5
s20.833 33.166 23.5 62.499l31 325h-98l4 63l100 4l15 160c8.66699 94.667 60.334 142 155.001 142c46.667 0 80.667 -2 102 -6z" />
    <glyph glyph-name="Scommaaccent" unicode="&#x218;" horiz-adv-x="561" 
d="M334 292l-143 36.001c-48.667 12 -83.5 33.5 -104.5 64.5s-31.5 73.5 -31.5 127.5c0 40 4.16699 72.167 12.5 96.5s22.666 42.666 42.999 54.999s43 20.5 68 24.5s58.5 6 100.5 6c81.333 -1.33301 149.666 -8 204.999 -20l-6 -64c-64.667 3.33301 -129.667 5 -195 5
c-29.333 0 -51 -0.666992 -65 -2s-27.667 -5.33301 -41 -12s-22.166 -17.167 -26.499 -31.5s-6.5 -34.166 -6.5 -59.499c0 -36.667 6.5 -62.667 19.5 -78s35.5 -27 67.5 -35l140 -35c51.333 -12.667 87.333 -34.334 108 -65.001s31 -73.667 31 -129
c0 -76 -17.167 -126.333 -51.5 -151s-94.166 -37 -179.499 -37c-72.667 0 -144 6.33301 -214 19l6 65c112 -4 182.333 -5.66699 211 -5c54.667 0 91.5 7 110.5 21s28.5 44 28.5 90c0 38 -6.5 64.5 -19.5 79.5s-35.5 26.5 -67.5 34.5zM275 -57.999h22.001
c10.667 0 18.167 -2.16699 22.5 -6.5s6.5 -11.5 6.5 -21.5v-55c-0.666992 -46 -11.334 -90 -32.001 -132l-37 10c6 34.667 9 69 9 103c-15.333 0 -22.333 8 -21 24v50c0.666992 18.667 10.667 28 30 28z" />
    <glyph glyph-name="scommaaccent" unicode="&#x219;" horiz-adv-x="508" 
d="M300 197l-140.001 32c-40 9.33301 -68.333 24.333 -85 45s-25 51 -25 91c0 54 14.167 90.167 42.5 108.5s77.5 26.833 147.5 25.5c78 -1.33301 146.333 -6.33301 205 -15l-7 -62c-101.333 3.33301 -163 5 -185 5c-49.333 0.666992 -81.666 -2.33301 -96.999 -9
s-23 -24.334 -23 -53.001c0 -23.333 5.16699 -39.333 15.5 -48s28.833 -16 55.5 -22l142 -32c40 -10 68.833 -24.833 86.5 -44.5s26.5 -49.5 26.5 -89.5c0 -56.667 -15.667 -94.167 -47 -112.5s-85 -27.5 -161 -27.5c-68 0 -131.667 4.66699 -191 14l6 62
c56.667 -3.33301 112.667 -4.66602 168 -3.99902c56.667 0 94.667 4.33301 114 13s29 27 29 55c0 22 -5.83301 37.167 -17.5 45.5s-31.5 15.833 -59.5 22.5zM248.999 -58h22.999c10.667 0 18 -2.16699 22 -6.5s6 -11.5 6 -21.5v-55c-0.666992 -47.333 -11 -91.333 -31 -132
l-37 10c6 34.667 9 69 9 103c-15.333 0 -22.333 8 -21 24v50c0.666992 18.667 10.334 28 29.001 28z" />
    <glyph glyph-name="uni021A" unicode="&#x21a;" horiz-adv-x="581" 
d="M557 612h-223v-612h-88v612h-222v78h533v-78zM268 -58l23.001 0.000976562c10.667 0 18 -2.16699 22 -6.5s6 -11.5 6 -21.5v-55c-0.666992 -48 -11.334 -92 -32.001 -132l-36 10c5.33301 31.333 8 65.666 8 102.999c-14 0 -21 8 -21 24v50
c0.666992 18.667 10.667 28 30 28z" />
    <glyph glyph-name="uni021B" unicode="&#x21b;" horiz-adv-x="381" 
d="M200 420l0.000976562 -286.001c0 -23.333 5 -40 15 -50s27 -15 51 -15h74l10 -65c-30.667 -8.66699 -67.334 -13 -110.001 -13c-40.667 0 -71.667 11.333 -93 34s-32 55.334 -32 98.001v297h-88v62l88 4v145h85v-144h155v-67h-155zM218.001 -58.001h22.999
c10.667 0 18 -2.16699 22 -6.5s6 -11.5 6 -21.5v-55c-0.666992 -47.333 -11 -91.333 -31 -132l-37 10c6 34.667 9 69 9 103c-15.333 0 -22.333 8 -21 24v50c0.666992 18.667 10.334 28 29.001 28z" />
    <glyph glyph-name="circumflex" unicode="&#x2c6;" horiz-adv-x="420" 
d="M374 586l-30 -37l-129 97h-8l-130 -97l-29 37l132 127h61z" />
    <glyph glyph-name="caron" unicode="&#x2c7;" horiz-adv-x="420" 
d="M374 688l-143 -128h-40l-143 128l29 36l130 -87h8l129 87z" />
    <glyph glyph-name="breve" unicode="&#x2d8;" horiz-adv-x="375" 
d="M294 696l43.9961 -6c2.66699 -39.333 -9.66602 -71.166 -36.999 -95.499s-65 -36.5 -113 -36.5s-85.667 12.167 -113 36.5s-39.666 56.166 -36.999 95.499l44 6c-0.666992 -23.333 8.33301 -41.666 27 -54.999s45.334 -20 80.001 -20c32.667 0 58.334 6.66699 77.001 20
s28 31.666 28 54.999z" />
    <glyph glyph-name="dotaccent" unicode="&#x2d9;" horiz-adv-x="221" 
d="M97 685h27c17.333 0 26 -8.33301 26 -25v-57c0 -17.333 -8.66699 -26 -26 -26h-27c-17.333 0 -26 8.66699 -26 26v57c0 16.667 8.66699 25 26 25z" />
    <glyph glyph-name="ring" unicode="&#x2da;" horiz-adv-x="300" 
d="M150 742c29.333 0 54.5 -10.167 75.5 -30.5s31.5 -45.166 31.5 -74.499c0 -30 -10.333 -55 -31 -75s-46 -30 -76 -30s-55.333 10 -76 30s-31 45 -31 75c0 29.333 10.5 54.166 31.5 74.499s46.167 30.5 75.5 30.5zM150 698c-17.333 0 -31.5 -5.66699 -42.5 -17
s-16.5 -26 -16.5 -44c0 -18.667 5.66699 -33.5 17 -44.5s25.333 -16.5 42 -16.5c17.333 0 31.666 5.5 42.999 16.5s17 25.833 17 44.5c0 18 -5.66699 32.667 -17 44s-25.666 17 -42.999 17z" />
    <glyph glyph-name="ogonek" unicode="&#x2db;" horiz-adv-x="252" 
d="M144 2l38 -2.00195c-36 -40.667 -60.667 -78.667 -74 -114c-10 -24 -7.5 -40 7.5 -48s38.5 -6.66699 70.5 4l10 -35c-61.333 -23.333 -104.833 -26.166 -130.5 -8.49902s-31.5 45.834 -17.5 84.501c13.333 39.333 45.333 79 96 119z" />
    <glyph glyph-name="tilde" unicode="&#x2dc;" horiz-adv-x="420" 
d="M92 585h-39.999c-4 38.667 1.5 67.834 16.5 87.501s35.5 28.5 61.5 26.5c21.333 -2 47 -11.167 77 -27.5s54 -25.5 72 -27.5c18.667 -2.66699 31.5 0 38.5 8s10.5 22 10.5 42h40c4 -36.667 -1.33301 -65 -16 -85s-35.334 -29 -62.001 -27
c-24.667 2 -52.5 11.5 -83.5 28.5s-53.5 26.5 -67.5 28.5c-18 2 -30.333 -1.33301 -37 -10s-10 -23.334 -10 -44.001z" />
    <glyph glyph-name="hungarumlaut" unicode="&#x2dd;" horiz-adv-x="455" 
d="M392 691l-134 -159l-37 28l109 174zM228 691l-134 -159l-38 28l110 174z" />
    <glyph glyph-name="Delta" unicode="&#x394;" horiz-adv-x="626" 
d="M601 37v-37h-576v37l244 653h88zM498 72l-162 455c-2.66699 7.33301 -10 33.333 -22 78c-13.333 -44.667 -21.333 -71 -24 -79l-164 -454h372z" />
    <glyph glyph-name="Omega" unicode="&#x3a9;" horiz-adv-x="719" 
d="M52 77h103.998c25.333 0 47.333 -2 66 -6c-52 38 -89.167 79.833 -111.5 125.5s-33.166 104.167 -32.499 175.5c0 112 22 195.167 66 249.5s116 81.5 216 81.5c98 0 169.333 -27.333 214 -82s67 -137.667 67 -249c0 -73.333 -11.167 -132.333 -33.5 -177
s-59.5 -86 -111.5 -124c24 4 46 6 66 6h105v-77h-252v74c50 34.667 84.833 73.667 104.5 117s29.834 100 30.501 170c-0.666992 93.333 -15.667 160.666 -45 201.999s-78 62 -146 62c-69.333 0 -118.333 -20.5 -147 -61.5s-43 -109.167 -43 -204.5
c0 -72 10 -128.167 30 -168.5s54.667 -79.166 104 -116.499v-74h-251v77z" />
    <glyph glyph-name="mu" unicode="&#x3bc;" horiz-adv-x="594" 
d="M505 487l-0.000976562 -487h-66l-8 75c-69.333 -58.667 -134.666 -88 -195.999 -88c-30 0 -56.667 6.33301 -80 19c4 -21.333 6 -43.333 6 -66v-141h-75v688h85v-342c-0.666992 -26 6 -45.333 20 -58s35.333 -19 64 -19c41.333 0 96.333 20.333 165 61v358h85z" />
    <glyph glyph-name="pi" unicode="&#x3c0;" horiz-adv-x="643" 
d="M616 418h-95v-418h-85v418h-230v-418h-84v418h-95v69h589v-69z" />
    <glyph glyph-name="uni0401" unicode="&#x401;" horiz-adv-x="560" 
d="M235 788h-29c-15.333 0 -23 8 -23 24v54c0 16 7.66699 24 23 24h29c15.333 0 23 -8 23 -24v-54c0 -16 -7.66699 -24 -23 -24zM412 788h-28c-16 0 -24 8 -24 24v54c0 16 8 24 24 24h28c16 0 24 -8 24 -24v-54c0 -16 -8 -24 -24 -24zM505 73l4 -68.001
c-61.333 -4 -159.666 -6 -294.999 -6c-41.333 0 -73.833 10.833 -97.5 32.5s-35.5 50.834 -35.5 87.501v452c0 36.667 12 65.834 36 87.501s56.333 32.5 97 32.5c135.333 0 233.666 -2 294.999 -6l-4 -69h-277c-20.667 0 -35.667 -5.33301 -45 -16s-14 -27.334 -14 -50.001
v-150h297v-71h-297v-189c0 -23.333 4.66699 -40.333 14 -51s24.333 -16 45 -16h277z" />
    <glyph glyph-name="uni0402" unicode="&#x402;" horiz-adv-x="752" 
d="M334 612l-0.000976562 -228c63.333 38.667 131 58 203 58c54 0 96 -15 126 -45s45 -85 45 -165c0 -86.667 -22 -148.5 -66 -185.5s-107.333 -53.833 -190 -50.5l-8 64c62.667 4 107.834 17.333 135.501 40s41.5 64 41.5 124c0 58 -8.5 96.167 -25.5 114.5
s-45.833 27.5 -86.5 27.5c-54 0 -112.333 -17.333 -175 -52v-314h-88v612h-222v78h533v-78h-223z" />
    <glyph glyph-name="uni0403" unicode="&#x403;" horiz-adv-x="518" 
d="M450 848l-191 -120l-30 39l173 147zM85 0l-0.000976562 561c0 38 11.833 69.167 35.5 93.5s53.834 36.5 90.501 36.5c130.667 0 226 -2.33301 286 -7l-4 -68h-253c-24 0 -41.333 -5.5 -52 -16.5s-16 -29.167 -16 -54.5v-545h-87z" />
    <glyph glyph-name="uni0404" unicode="&#x404;" horiz-adv-x="577" 
d="M526 78l10 -66.9971c-54.667 -15.333 -120.334 -23 -197.001 -23c-102.667 0 -174.667 26.667 -216 80s-62 145.666 -62 276.999s20.667 223.666 62 276.999s113.333 80 216 80c72.667 0 136 -6.66699 190 -20l-9 -68c-51.333 6 -112 9 -182 9
c-64 0 -109.833 -16.5 -137.5 -49.5s-43.5 -90.833 -47.5 -173.5h295v-69h-296c0.666992 -98.667 14.667 -167.334 42 -206.001s75.333 -58 144 -58c74.667 0 137.334 3.66699 188.001 11z" />
    <glyph glyph-name="uni0405" unicode="&#x405;" horiz-adv-x="561" 
d="M334 292l-143 36.001c-48.667 12 -83.5 33.5 -104.5 64.5s-31.5 73.5 -31.5 127.5c0 40 4.16699 72.167 12.5 96.5s22.666 42.666 42.999 54.999s43 20.5 68 24.5s58.5 6 100.5 6c81.333 -1.33301 149.666 -8 204.999 -20l-6 -64c-64.667 3.33301 -129.667 5 -195 5
c-29.333 0 -51 -0.666992 -65 -2s-27.667 -5.33301 -41 -12s-22.166 -17.167 -26.499 -31.5s-6.5 -34.166 -6.5 -59.499c0 -36.667 6.5 -62.667 19.5 -78s35.5 -27 67.5 -35l140 -35c51.333 -12.667 87.333 -34.334 108 -65.001s31 -73.667 31 -129
c0 -76 -17.167 -126.333 -51.5 -151s-94.166 -37 -179.499 -37c-72.667 0 -144 6.33301 -214 19l6 65c112 -4 182.333 -5.66699 211 -5c54.667 0 91.5 7 110.5 21s28.5 44 28.5 90c0 38 -6.5 64.5 -19.5 79.5s-35.5 26.5 -67.5 34.5z" />
    <glyph glyph-name="uni0406" unicode="&#x406;" horiz-adv-x="262" 
d="M175 0h-88v690h88v-690z" />
    <glyph glyph-name="uni0407" unicode="&#x407;" horiz-adv-x="262" 
d="M28 869h29c15.333 0 23 -8 23 -24v-55c0 -16 -7.66699 -24 -23 -24h-29c-16 0 -24 8 -24 24v55c0 16 8 24 24 24zM205 869h29c15.333 0 23 -8 23 -24v-55c0 -16 -7.66699 -24 -23 -24h-29c-16 0 -24 8 -24 24v55c0 16 8 24 24 24zM175 0h-88v690h88v-690z" />
    <glyph glyph-name="uni0408" unicode="&#x408;" horiz-adv-x="340" 
d="M256 690v-545c0 -50.667 -11.5 -89 -34.5 -115s-56.167 -39 -99.5 -39c-37.333 0 -68 4.33301 -92 13l10 62h50c52 0 78 25.333 78 76v548h88z" />
    <glyph glyph-name="uni0409" unicode="&#x409;" horiz-adv-x="970" 
d="M555 412l142 0.00195312c85.333 0 144.5 -15.5 177.5 -46.5s49.5 -85.833 49.5 -164.5c0 -80 -16 -134.833 -48 -164.5s-87.333 -44.5 -166 -44.5c-103.333 0 -184 2.66699 -242 8v4v614h-130c-22 0 -38 -5.83301 -48 -17.5s-16 -29.167 -18 -52.5
c-12 -134 -22 -226.333 -30 -277s-21.667 -97.667 -41 -141s-42.333 -75.333 -69 -96s-61 -32.334 -103 -35.001l-7 60c38.667 16 70.667 48 96 96c14 27.333 25.167 59.166 33.5 95.499s14.166 70 17.499 101s8 84.167 14 159.5c2 22 3.33301 38.667 4 50
c4.66699 86 52.334 129 143.001 129h225v-278zM555 338.002l-0.000976562 -267.999c25.333 -0.666992 72.666 -1 141.999 -1c54.667 0 91.334 8.83301 110.001 26.5s28 53.5 28 107.5c0 51.333 -9.16699 86.666 -27.5 105.999s-55.166 29 -110.499 29h-142z" />
    <glyph glyph-name="uni040A" unicode="&#x40a;" horiz-adv-x="979" 
d="M563 410l143.001 0.000976562c84.667 0 143.5 -15.333 176.5 -46s49.5 -85.334 49.5 -164.001c0 -80 -15.833 -134.667 -47.5 -164s-86.834 -44 -165.501 -44c-104 0 -185 2.66699 -243 8v338h-301v-338h-88v690h88v-280h301v280h87v-280zM563.001 338.001v-267.999
c25.333 -0.666992 73 -1 143 -1c54.667 0 91.334 8.66699 110.001 26s28 52.666 28 105.999c0 52 -9.33301 87.833 -28 107.5s-55.334 29.5 -110.001 29.5h-143z" />
    <glyph glyph-name="uni040B" unicode="&#x40b;" horiz-adv-x="776" 
d="M334 612v-228.998c74.667 39.333 150.667 59 228 59c53.333 0 93 -12.833 119 -38.5s39 -64.834 39 -117.501v-286h-88v269c0 35.333 -7.5 60.166 -22.5 74.499s-40.833 21.5 -77.5 21.5c-62.667 0 -128.667 -18 -198 -54v-311h-88v612h-222v78h533v-78h-223z" />
    <glyph glyph-name="uni040C" unicode="&#x40c;" horiz-adv-x="600" 
d="M267 728l-29 39l172 147l49 -66zM325 362l-0.000976562 -4c12.667 -1.33301 24.834 -4 36.501 -8s22.167 -8.16699 31.5 -12.5s18.666 -11.5 27.999 -21.5l23.5 -26c6.33301 -7.33301 13.666 -19 21.999 -35l19.5 -38c4.66699 -9.33301 11.334 -24.833 20.001 -46.5
s15.167 -38.5 19.5 -50.5l21 -58.5l22.5 -61.5h-93l-15 42l-26.5 73.5c-5.66699 15.667 -13.5 35.834 -23.5 60.501s-18.5 42.5 -25.5 53.5s-16 24 -27 39s-21.833 25.667 -32.5 32s-23 11.833 -37 16.5s-29.333 7 -46 7h-75c4 -25.333 6 -49.666 6 -72.999v-251h-87v690h87
v-216c0 -26.667 -2 -53 -6 -79h75c22.667 0 43.334 5.33301 62.001 16s34 22.167 46 34.5s25.333 34 40 65s25.334 55.167 32.001 72.5s17.667 48.333 33 93c2 6 3.66699 10.667 5 14h90c-38.667 -110 -66.334 -181 -83.001 -213
c-35.333 -66.667 -79.333 -104.334 -132 -113.001c-3.33301 -0.666992 -7 -1.33398 -11 -2.00098z" />
    <glyph glyph-name="uni040D" unicode="&#x40d;" horiz-adv-x="691" 
d="M398 767l-29 -39l-192 120l49 66zM604 0l-85 0.000976562v503c0 31.333 1.66699 57.666 5 78.999h-5c-8.66699 -22.667 -20.667 -47.667 -36 -75l-306 -507h-90v690h85v-498c0 -24.667 -1.66699 -52 -5 -82h4c10 22 23 47 39 75l303 505h91v-690z" />
    <glyph glyph-name="uni040E" unicode="&#x40e;" horiz-adv-x="563" 
d="M387 884l44 -7c2.66699 -39.333 -9.5 -71 -36.5 -95s-64.5 -36 -112.5 -36s-85.833 12 -113.5 36s-40.167 55.667 -37.5 95l44 7c0 -24 9.16699 -42.5 27.5 -55.5s44.833 -19.5 79.5 -19.5c33.333 0 59.333 6.5 78 19.5s27.667 31.5 27 55.5zM551 690l-185.999 -520
c-20 -55.333 -41.333 -97.833 -64 -127.5s-53 -46.167 -91 -49.5c-40 -2.66699 -81.333 2 -124 14l10 65l56.5 -4.5c13 -1 26.167 -0.333008 39.5 2s22.666 4.83301 27.999 7.5s11.833 9 19.5 19s13.667 19.833 18 29.5s10.5 24.5 18.5 44.5l12 31h-38
c-35.333 0 -58.333 15.667 -69 47l-160 442h91l139 -399c4 -10.667 11.667 -16 23 -16h40l147 415h90z" />
    <glyph glyph-name="uni040F" unicode="&#x40f;" horiz-adv-x="674" 
d="M587 690v-690h-213l-4 -151h-60l-6 151h-217v690h88v-618h324v618h88z" />
    <glyph glyph-name="uni0410" unicode="&#x410;" horiz-adv-x="622" 
d="M453 216h-284l-68 -216h-91l222 666c4 16 15 24 33 24h92c18 0 29 -8 33 -24l222 -666h-91zM429 292l-87 274c-6 17.333 -11.667 36 -17 56h-28l-17 -56l-87 -274h236z" />
    <glyph glyph-name="uni0411" unicode="&#x411;" horiz-adv-x="599" 
d="M175 393l146 0.000976562c85.333 0 144.5 -14.833 177.5 -44.5s49.5 -82.5 49.5 -158.5c0 -44 -4.66699 -79.333 -14 -106s-25 -46.834 -47 -60.501s-46.333 -22.5 -73 -26.5s-62.667 -6 -108 -6c-78.667 0 -151 3 -217 9h-2v690c72 4 143.333 6 214 6
c70 0 140 -2 210 -6l-8 -73h-328v-224zM175 324.001v-256c25.333 -0.666992 74 -1 146 -1c55.333 0 92.166 8.33301 110.499 25s27.5 50.667 27.5 102c0 50 -9.16699 84.167 -27.5 102.5s-55.166 27.5 -110.499 27.5h-146z" />
    <glyph glyph-name="uni0412" unicode="&#x412;" horiz-adv-x="620" 
d="M424 360v-4.00195c50 -4.66699 85.5 -22.167 106.5 -52.5s31.5 -74.166 31.5 -131.499c0 -69.333 -16.333 -116.666 -49 -141.999s-89.667 -38 -171 -38c-110.667 0 -195.667 2.66699 -255 8v690c52.667 5.33301 127.334 8 224.001 8c86 0 145.833 -12.5 179.5 -37.5
s50.5 -72.5 50.5 -142.5c0 -50 -9.33301 -87.833 -28 -113.5s-48.334 -40.5 -89.001 -44.5zM173 390.998h148.001c51.333 0.666992 86.666 9 105.999 25s29 46.667 29 92c0 46 -10.5 76.667 -31.5 92s-60.167 23 -117.5 23h-134v-232zM173.001 323.998v-256.001
c27.333 -0.666992 79 -1 155 -1c56 0 94.167 8 114.5 24s30.5 48 30.5 96c0 52.667 -10.833 88.334 -32.5 107.001s-61.167 28.667 -118.5 30h-149z" />
    <glyph glyph-name="uni0413" unicode="&#x413;" horiz-adv-x="518" 
d="M85 0l-0.000976562 561c0 38 11.833 69.167 35.5 93.5s53.834 36.5 90.501 36.5c130.667 0 226 -2.33301 286 -7l-4 -68h-253c-24 0 -41.333 -5.5 -52 -16.5s-16 -29.167 -16 -54.5v-545h-87z" />
    <glyph glyph-name="uni0414" unicode="&#x414;" horiz-adv-x="693" 
d="M661 72l-0.00195312 -223.001h-61l-8 151h-500l-9 -151h-61v223h67c56.667 120.667 90.334 283.667 101.001 489c1.33301 40.667 14.333 72.334 39 95.001s58.334 34 101.001 34h246v-618h85zM487.998 71.999v546.001h-142c-24.667 0 -42.5 -5.33301 -53.5 -16
s-17.167 -28.667 -18.5 -54c-6 -104.667 -16.333 -194.334 -31 -269.001s-37.667 -143.667 -69 -207h314z" />
    <glyph glyph-name="uni0415" unicode="&#x415;" horiz-adv-x="560" 
d="M505 73l4 -68.001c-61.333 -4 -159.666 -6 -294.999 -6c-41.333 0 -73.833 10.833 -97.5 32.5s-35.5 50.834 -35.5 87.501v452c0 36.667 12 65.834 36 87.501s56.333 32.5 97 32.5c135.333 0 233.666 -2 294.999 -6l-4 -69h-277c-20.667 0 -35.667 -5.33301 -45 -16
s-14 -27.334 -14 -50.001v-150h297v-71h-297v-189c0 -23.333 4.66699 -40.333 14 -51s24.333 -16 45 -16h277z" />
    <glyph glyph-name="uni0416" unicode="&#x416;" horiz-adv-x="908" 
d="M633 362l-0.00195312 -3.99707c24 -2 45.833 -9.16699 65.5 -21.5s35.834 -25 48.501 -38s26.834 -36.333 42.501 -70s27.5 -61 35.5 -82s21 -57.5 39 -109.5c6 -16 10.333 -28.333 13 -37h-93c-42.667 116.667 -70.667 188.334 -84 215.001
c-29.333 57.333 -63.333 92 -102 104c-12 3.33301 -25.333 5 -40 5h-66c4 -24.667 6 -49 6 -73v-251h-84v251c0 19.333 2.33301 43.666 7 72.999h-72c-34 0 -63.667 -12.667 -89 -38s-44.666 -52.666 -57.999 -81.999s-33.666 -81.333 -60.999 -156l-18 -48h-92
c42.667 122 72 199 88 231c32 64 70.667 103.667 116 119c12 4 25 6.66699 39 8v4c-22 2.66699 -42.333 9.66699 -61 21s-34.334 24.666 -47.001 39.999s-25.5 36.666 -38.5 63.999s-24.167 53 -33.5 77s-20.666 55.333 -33.999 94c-4.66699 14 -8.33398 24.667 -11.001 32
h90c38 -104.667 65.667 -172.334 83 -203.001c34.667 -61.333 77 -92 127 -92h71c-4 26 -6 52.333 -6 79v216h84v-216c0 -32 -2 -58.333 -6 -79h66c16.667 0 32 2.66699 46 8s27.167 14.833 39.5 28.5s22.833 26.5 31.5 38.5s18.667 30.833 30 56.5s20 46.334 26 62.001
l28 74.5c4.66699 12 8 21 10 27h90c-38.667 -110 -66.334 -181 -83.001 -213c-35.333 -66.667 -79.333 -104.334 -132 -113.001c-3.33301 -0.666992 -7 -1.33398 -11 -2.00098z" />
    <glyph glyph-name="uni0417" unicode="&#x417;" horiz-adv-x="550" 
d="M60 615l-6.99805 66.998c59.333 10.667 122.666 16 189.999 16c85.333 0 144.5 -12.5 177.5 -37.5s49.5 -72.5 49.5 -142.5c0 -50 -9.16699 -87.833 -27.5 -113.5s-47.833 -40.5 -88.5 -44.5v-4c49.333 -4.66699 84.333 -22.167 105 -52.5s31 -74.166 31 -131.499
c0 -69.333 -16.167 -116.666 -48.5 -141.999s-88.5 -38 -168.5 -38c-95.333 0 -174 7.33301 -236 22l7 64c75.333 -8.66699 147 -13 215 -13c54 0 91 8.16699 111 24.5s30 48.833 30 97.5c0 52.667 -10.667 88.5 -32 107.5s-60 28.5 -116 28.5h-116v69h116
c49.333 0 83.333 8 102 24s28 46.667 28 92c0 46.667 -10.333 78 -31 94s-58.334 24 -113.001 24c-40 0 -99.333 -3.66699 -178 -11z" />
    <glyph glyph-name="uni0418" unicode="&#x418;" horiz-adv-x="691" 
d="M604 0l-85 0.000976562v503c0 31.333 1.66699 57.666 5 78.999h-5c-8.66699 -22.667 -20.667 -47.667 -36 -75l-306 -507h-90v690h85v-498c0 -24.667 -1.66699 -52 -5 -82h4c10 22 23 47 39 75l303 505h91v-690z" />
    <glyph glyph-name="uni0419" unicode="&#x419;" horiz-adv-x="691" 
d="M432 883h64.999c2.66699 -40 -9.66602 -73 -36.999 -99s-64.666 -39 -111.999 -39c-48 0 -85.833 13 -113.5 39s-40.167 59 -37.5 99h65c0 -28.667 7.5 -50.834 22.5 -66.501s36.167 -23.5 63.5 -23.5s48.166 7.83301 62.499 23.5s21.5 37.834 21.5 66.501zM603.999 0
l-85 0.000976562v503c0 31.333 1.66699 57.666 5 78.999h-5c-8.66699 -22.667 -20.667 -47.667 -36 -75l-306 -507h-90v690h85v-498c0 -24.667 -1.66699 -52 -5 -82h4c10 22 23 47 39 75l303 505h91v-690z" />
    <glyph glyph-name="uni041A" unicode="&#x41a;" horiz-adv-x="600" 
d="M325 362l-0.000976562 -4c12.667 -1.33301 24.834 -4 36.501 -8s22.167 -8.16699 31.5 -12.5s18.666 -11.5 27.999 -21.5l23.5 -26c6.33301 -7.33301 13.666 -19 21.999 -35l19.5 -38c4.66699 -9.33301 11.334 -24.833 20.001 -46.5s15.167 -38.5 19.5 -50.5l21 -58.5
l22.5 -61.5h-93l-15 42l-26.5 73.5c-5.66699 15.667 -13.5 35.834 -23.5 60.501s-18.5 42.5 -25.5 53.5s-16 24 -27 39s-21.833 25.667 -32.5 32s-23 11.833 -37 16.5s-29.333 7 -46 7h-75c4 -25.333 6 -49.666 6 -72.999v-251h-87v690h87v-216c0 -26.667 -2 -53 -6 -79h75
c22.667 0 43.334 5.33301 62.001 16s34 22.167 46 34.5s25.333 34 40 65s25.334 55.167 32.001 72.5s17.667 48.333 33 93c2 6 3.66699 10.667 5 14h90c-38.667 -110 -66.334 -181 -83.001 -213c-35.333 -66.667 -79.333 -104.334 -132 -113.001
c-3.33301 -0.666992 -7 -1.33398 -11 -2.00098z" />
    <glyph glyph-name="uni041B" unicode="&#x41b;" horiz-adv-x="651" 
d="M564 690l-0.000976562 -690h-88v618h-138c-45.333 0 -70 -23.333 -74 -70c-8.66699 -98.667 -15 -165.667 -19 -201s-10.333 -73 -19 -113s-20 -74.667 -34 -104c-40 -87.333 -98 -131 -174 -131l-8 68c46 14 79 43 99 87c18.667 42 32.334 88.5 41.001 139.5
s18 141.167 28 270.5c8 84 53.667 126 137 126h249z" />
    <glyph glyph-name="uni041C" unicode="&#x41c;" horiz-adv-x="877" 
d="M640 690h99.001c24 0 36 -12.333 36 -37l29 -653h-88l-25 617h-21l-154 -509c-5.33301 -20 -18 -30 -38 -30h-79c-20.667 0 -34 10 -40 30l-154 509h-20l-24 -617h-88l27 653c1.33301 24.667 13.666 37 36.999 37h100c18.667 0 31 -10 37 -30l129 -421
c4 -12 9.16699 -29.833 15.5 -53.5s9.83301 -36.834 10.5 -39.501h18l11.5 43.5c5.66699 21.667 10.5 38.834 14.5 51.501l129 419c5.33301 20 18 30 38 30z" />
    <glyph glyph-name="uni041D" unicode="&#x41d;" horiz-adv-x="668" 
d="M581 690v-690h-88v331h-318v-331h-88v690h88v-283h318v283h88z" />
    <glyph glyph-name="uni041E" unicode="&#x41e;" horiz-adv-x="668" 
d="M334 703c101.333 0 172 -26.167 212 -78.5s60 -145.5 60 -279.5s-20 -227.167 -60 -279.5s-110.667 -78.5 -212 -78.5s-172.166 26.167 -212.499 78.5s-60.5 145.5 -60.5 279.5s20.167 227.167 60.5 279.5s111.166 78.5 212.499 78.5zM334 624
c-68 0 -115 -20.167 -141 -60.5s-39 -113.166 -39 -218.499s13 -178.166 39 -218.499s73 -60.5 141 -60.5s115 20.167 141 60.5s39 113.166 39 218.499s-13 178.166 -39 218.499s-73 60.5 -141 60.5z" />
    <glyph glyph-name="uni041F" unicode="&#x41f;" horiz-adv-x="669" 
d="M582 690v-690h-88v618h-319v-618h-88v690h495z" />
    <glyph glyph-name="uni0420" unicode="&#x420;" horiz-adv-x="590" 
d="M87 0v689.998c56 6 135.333 9 238 9c83.333 0 141 -15.167 173 -45.5s48 -87.166 48 -170.499s-15.5 -140.166 -46.5 -170.499s-86.167 -45.5 -165.5 -45.5c-53.333 0 -106.333 3 -159 9v-276h-88zM175 342.998h148c51.333 0.666992 86.5 10.5 105.5 29.5
s28.5 55.833 28.5 110.5s-9.66699 91.667 -29 111s-54.333 29 -105 29c-72 0 -121.333 -0.333008 -148 -1v-279z" />
    <glyph glyph-name="uni0421" unicode="&#x421;" 
d="M525 77l9 -66c-55.333 -15.333 -122.666 -23 -201.999 -23c-99.333 0 -169.333 26.667 -210 80s-61 145.666 -61 276.999s20.333 223.666 61 276.999s110.667 80 210 80c71.333 0 134 -6.66699 188 -20l-9 -67c-60 6 -119.667 9 -179 9
c-67.333 0 -113.833 -20.167 -139.5 -60.5s-38.5 -113.166 -38.5 -218.499s12.833 -178.166 38.5 -218.499s72.167 -60.5 139.5 -60.5c77.333 0 141.666 3.66699 192.999 11z" />
    <glyph glyph-name="uni0422" unicode="&#x422;" horiz-adv-x="581" 
d="M557 612h-223v-612h-88v612h-222v78h533v-78z" />
    <glyph glyph-name="uni0423" unicode="&#x423;" horiz-adv-x="563" 
d="M551 690l-185.999 -520c-20 -55.333 -41.333 -97.833 -64 -127.5s-53 -46.167 -91 -49.5c-40 -2.66699 -81.333 2 -124 14l10 65l56.5 -4.5c13 -1 26.167 -0.333008 39.5 2s22.666 4.83301 27.999 7.5s11.833 9 19.5 19s13.667 19.833 18 29.5s10.5 24.5 18.5 44.5l12 31
h-38c-35.333 0 -58.333 15.667 -69 47l-160 442h91l139 -399c4 -10.667 11.667 -16 23 -16h40l147 415h90z" />
    <glyph glyph-name="uni0424" unicode="&#x424;" horiz-adv-x="822" 
d="M455 746v-97c116 -4 197.5 -28 244.5 -72s70.833 -119 71.5 -225c-0.666992 -104 -24.5 -177.667 -71.5 -221s-128.5 -67 -244.5 -71v-97h-88v97c-116 4 -197.667 27.667 -245 71s-71 117 -71 221c0 106 23.5 181 70.5 225s128.833 68 245.5 72v97h88zM370 134v441
c-87.333 -3.33301 -147.333 -20.833 -180 -52.5s-49 -88.5 -49 -170.5c0 -80 16.333 -135.5 49 -166.5s92.667 -48.167 180 -51.5zM451 575v-441c87.333 3.33301 147.333 20.5 180 51.5s49.334 86.5 50.001 166.5c-0.666992 82 -17.334 138.833 -50.001 170.5
s-92.667 49.167 -180 52.5z" />
    <glyph glyph-name="uni0425" unicode="&#x425;" horiz-adv-x="613" 
d="M319 324h-26l-172 -324h-95l194 357l-181 333h95l158 -298h28l159 298h95l-182 -333l195 -357h-96z" />
    <glyph glyph-name="uni0426" unicode="&#x426;" horiz-adv-x="691" 
d="M659 72v-223h-61l-8 151h-503v690h88v-618h311v618h88v-618h85z" />
    <glyph glyph-name="uni0427" unicode="&#x427;" horiz-adv-x="625" 
d="M538 690l0.000976562 -689.999h-87v315c-76.667 -42.667 -155.667 -64 -237 -64c-52.667 0 -91.5 12.667 -116.5 38s-37.5 64.666 -37.5 117.999v283h88v-265c-0.666992 -33.333 6.66602 -57.5 21.999 -72.5s40.333 -22.5 75 -22.5c66 0 134.667 17.667 206 53v307h87z
" />
    <glyph glyph-name="uni0428" unicode="&#x428;" horiz-adv-x="929" 
d="M842 690v-690h-755v690h86v-618h249v618h85v-618h249v618h86z" />
    <glyph glyph-name="uni0429" unicode="&#x429;" horiz-adv-x="952" 
d="M920 72v-223h-61l-8 151h-764v690h86v-618h245v618h86v-618h246v618h85v-618h85z" />
    <glyph glyph-name="uni042A" unicode="&#x42a;" horiz-adv-x="748" 
d="M331 412h144.001c84.667 0 143.5 -15.667 176.5 -47s49.5 -86.333 49.5 -165c0 -80 -15.833 -134.667 -47.5 -164s-86.834 -44 -165.501 -44c-105.333 0 -187.333 2.66699 -246 8v612h-219v78h308v-278zM331.001 338v-267.999c25.333 -0.666992 73.333 -1 144 -1
c54.667 0 91.334 8.66699 110.001 26s28 52.666 28 105.999c0 52 -9.33301 87.833 -28 107.5s-55.334 29.5 -110.001 29.5h-144z" />
    <glyph glyph-name="uni042B" unicode="&#x42b;" horiz-adv-x="846" 
d="M175 412h146.001c84.667 0 143.5 -15.667 176.5 -47s49.5 -86.333 49.5 -165c0 -80 -15.833 -134.667 -47.5 -164s-86.834 -44 -165.501 -44c-105.333 0 -187 2.66699 -245 8h-2v690h88v-278zM759.001 690v-690h-87v690h87zM175.001 338v-267.999
c25.333 -0.666992 74 -1 146 -1c54.667 0 91.334 8.66699 110.001 26s28 52.666 28 105.999c0 52 -9.33301 87.833 -28 107.5s-55.334 29.5 -110.001 29.5h-146z" />
    <glyph glyph-name="uni042C" unicode="&#x42c;" horiz-adv-x="594" 
d="M175 412h146.001c84.667 0 143.5 -15.667 176.5 -47s49.5 -86.333 49.5 -165c0 -80 -15.833 -134.667 -47.5 -164s-86.834 -44 -165.501 -44c-105.333 0 -187 2.66699 -245 8h-2v690h88v-278zM175.001 338v-267.999c25.333 -0.666992 74 -1 146 -1
c54.667 0 91.334 8.66699 110.001 26s28 52.666 28 105.999c0 52 -9.33301 87.833 -28 107.5s-55.334 29.5 -110.001 29.5h-146z" />
    <glyph glyph-name="uni042D" unicode="&#x42d;" horiz-adv-x="577" 
d="M57 614l-10.001 67.9971c54 13.333 117.667 20 191 20c102.667 0 174.5 -26.667 215.5 -80s61.5 -145.666 61.5 -276.999s-20.5 -223.666 -61.5 -276.999s-112.833 -80 -215.5 -80c-77.333 0 -143 7.66699 -197 23l9 67c50.667 -7.33301 113.334 -11 188.001 -11
c68.667 0 116.667 19.333 144 58s41.333 107.667 42 207h-296v69h295c-4 82.667 -19.833 140.334 -47.5 173.001s-73.5 49 -137.5 49c-70 0 -130.333 -3 -181 -9z" />
    <glyph glyph-name="uni042E" unicode="&#x42e;" horiz-adv-x="927" 
d="M176 394h157c4 114.667 25.5 194.834 64.5 240.501s103.5 68.5 193.5 68.5c101.333 0 172.166 -26.167 212.499 -78.5s60.5 -145.5 60.5 -279.5s-20.167 -227.167 -60.5 -279.5s-111.166 -78.5 -212.499 -78.5c-93.333 0 -159.333 24.667 -198 74
s-59 136.666 -61 261.999h-156v-323h-88v690h88v-296zM591 66c68 0 115 20.167 141 60.5s39.333 113.166 40 218.499c-0.666992 105.333 -14 178.166 -40 218.499s-73 60.5 -141 60.5c-65.333 0 -110.333 -20.167 -135 -60.5s-37 -113.166 -37 -218.499
s12.333 -178.166 37 -218.499s69.667 -60.5 135 -60.5z" />
    <glyph glyph-name="uni042F" unicode="&#x42f;" horiz-adv-x="613" 
d="M201 308l-0.999023 5.00098c-86.667 12 -129.334 73.333 -128.001 184c0 72.667 17 124.5 51 155.5s90 46.5 168 46.5c101.333 0 179.666 -3 234.999 -9v-690h-88v281c-10 0 -31.667 -0.166992 -65 -0.5s-61.666 -0.5 -84.999 -0.5c-46 0 -76.333 -24.333 -91 -73
l-60 -207h-94l64 211c16 53.333 47.333 85.666 94 96.999zM438.001 356.001v266c-25.333 0.666992 -74 1 -146 1c-48.667 0 -82.667 -9.33301 -102 -28s-29.333 -53 -30 -103c0 -46 9.66699 -80.167 29 -102.5s52.333 -33.5 99 -33.5h150z" />
    <glyph glyph-name="uni0430" unicode="&#x430;" horiz-adv-x="552" 
d="M82 414l-8.00195 63c90.667 14.667 169.334 22 236.001 22c56.667 0 98.5 -11.833 125.5 -35.5s40.5 -63.834 40.5 -120.501v-343h-67l-10 80c-23.333 -24 -52.5 -44.833 -87.5 -62.5s-72.833 -26.5 -113.5 -26.5c-44.667 0 -80 11.833 -106 35.5s-39 57.167 -39 100.5
v53c0 38 11.833 67.5 35.5 88.5s56.834 31.5 99.501 31.5h203v43c-0.666992 30.667 -8 52.334 -22 65.001s-39.667 19 -77 19c-47.333 0 -117.333 -4.33301 -210 -13zM138.998 168v-31c0 -25.333 6.16699 -43.833 18.5 -55.5s31.5 -17.5 57.5 -17.5
c26 -0.666992 55 5.33301 87 18s61.667 31 89 55v98h-188c-42.667 -2 -64 -24.333 -64 -67z" />
    <glyph glyph-name="uni0431" unicode="&#x431;" horiz-adv-x="574" 
d="M473 737l19.999 -66.0029c-24 -14.667 -47 -25.667 -69 -33s-47.167 -13.666 -75.5 -18.999s-50.166 -10 -65.499 -14c-46.667 -13.333 -80 -34 -100 -62s-33 -62.333 -39 -103c-4 -20 -7 -43.667 -9 -71h2c13.333 31.333 33.5 56.333 60.5 75s68.833 28 125.5 28
c71.333 0 121.5 -18 150.5 -54s43.5 -96.333 43.5 -181c0 -83.333 -16 -145.666 -48 -186.999s-90.333 -62 -175 -62c-40.667 0 -75.167 5.33301 -103.5 16s-50.166 24 -65.499 40s-27.166 38.5 -35.499 67.5s-13.5 56.333 -15.5 82s-3 59.167 -3 100.5
c0 46 1.16699 84.667 3.5 116s7.16602 62.333 14.499 93s17.833 55.834 31.5 75.501s31.5 37.5 53.5 53.5s49 28.667 81 38c18 5.33301 41.167 10.5 69.5 15.5s54.166 11.167 77.499 18.5s47 18.333 71 33zM300.999 399.997c-56.667 0 -94.5 -12.8311 -113.5 -38.498
s-28.5 -67.167 -28.5 -124.5c0 -66.667 10 -112.834 30 -138.501s55.333 -38.5 106 -38.5c49.333 0 83.833 12.667 103.5 38s29.5 71.666 29.5 138.999c0 62.667 -9 105.5 -27 128.5s-51.333 34.5 -100 34.5z" />
    <glyph glyph-name="uni0432" unicode="&#x432;" horiz-adv-x="554" 
d="M377 252l0.000976562 -3c44 -3.33301 75.333 -15.5 94 -36.5s28 -51.833 28 -92.5c0 -48.667 -14.5 -82 -43.5 -100s-79.5 -27 -151.5 -27c-94.667 0 -169.667 2 -225 6v487c48.667 4 114.667 6 198 6c77.333 0 130.833 -9 160.5 -27s44.5 -52.333 44.5 -103
c0 -34.667 -8.33301 -61 -25 -79s-43.334 -28.333 -80.001 -31zM159.001 281h127.999c42.667 0 72.334 5.16699 89.001 15.5s25 29.833 25 58.5c0 27.333 -9.16699 45.833 -27.5 55.5s-51.5 14.5 -99.5 14.5c-46 0.666992 -84.333 0.666992 -115 0v-144zM159 220v-159.001
c10 0 30 -0.166992 60 -0.5s54.333 -0.5 73 -0.5c46 0 77.833 5.33301 95.5 16s26.5 31.334 26.5 62.001s-9.33301 52 -28 64s-51.667 18 -99 18h-128z" />
    <glyph glyph-name="uni0433" unicode="&#x433;" horiz-adv-x="462" 
d="M77 0v383.001c0 70.667 36 106 108 106c116.667 0 201.667 -2.66699 255 -8l-3 -60h-217c-20.667 0 -35.667 -4.83301 -45 -14.5s-14 -24.834 -14 -45.501v-361h-84z" />
    <glyph glyph-name="uni0434" unicode="&#x434;" horiz-adv-x="587" 
d="M549 68l0.000976562 -212h-56l-7 144h-394l-8 -144h-55v212h56c40.667 82 65 184.333 73 307c5.33301 74.667 46.666 112 123.999 112h200v-419h67zM401.001 68l-0.000976562 352h-105c-37.333 0 -57.666 -19.667 -60.999 -59c-8.66699 -121.333 -33 -219 -73 -293h239z
" />
    <glyph glyph-name="uni0435" unicode="&#x435;" horiz-adv-x="540" 
d="M373 202l-227.001 -0.000976562c4.66699 -56 18.334 -93.667 41.001 -113s60 -29 112 -29c56 0 112.667 4 170 12l8 -57c-42.667 -18 -105.667 -27 -189 -27c-84 0 -143.667 19.5 -179 58.5s-53 105.167 -53 198.5c0 94 17.333 159.833 52 197.5s91.667 56.5 171 56.5
c72.667 0 125.667 -13.167 159 -39.5s50.333 -66.166 51 -119.499c0 -92 -38.667 -138 -116 -138zM144.999 267.999l206 0.00195312c36 0 53.333 24 52 72c0 31.333 -9 53.666 -27 66.999s-49 20 -93 20c-51.333 0 -87 -11.333 -107 -34s-30.333 -64.334 -31 -125.001z" />
    <glyph glyph-name="uni0436" unicode="&#x436;" horiz-adv-x="789" 
d="M563 255l-0.00195312 -1.99805c17.333 -2 32.666 -5.33301 45.999 -10s25.833 -12.834 37.5 -24.501s21.167 -22.167 28.5 -31.5s16.333 -26.166 27 -50.499s18.834 -44 24.501 -59l28.5 -77.5h-87c-35.333 89.333 -59.666 144.333 -72.999 165
c-23.333 36 -53.666 54.667 -90.999 56h-4h-70c2.66699 -22.667 4 -38.667 4 -48v-173h-75v173c0 9.33301 1.33301 25.333 4 48h-75c-36 -0.666992 -63.333 -14.167 -82 -40.5s-43.667 -78.166 -75 -155.499c-4 -10.667 -7.33301 -19 -10 -25h-87l28.5 77.5
c5.66699 15 13.834 34.667 24.501 59s19.667 41.166 27 50.499s16.833 19.833 28.5 31.5s24.167 19.834 37.5 24.501s28.666 8 45.999 10v2c-30.667 3.33301 -56.834 15.5 -78.501 36.5s-37.334 42 -47.001 63s-25.5 61.167 -47.5 120.5c-2 5.33301 -3.66699 9.33301 -5 12
h85l28.5 -70.5c6.33301 -15 14.833 -32.833 25.5 -53.5s20.334 -35.5 29.001 -44.5s19.5 -16.833 32.5 -23.5s27.5 -10 43.5 -10h71c-2.66699 16 -4 35 -4 57v145h75v-145c0 -22 -1.33301 -41 -4 -57h66c36.667 0 65.167 14.833 85.5 44.5s44.833 82.167 73.5 157.5h86
l-30 -79.5c-6 -15.667 -14.667 -35.334 -26 -59.001s-22 -40.334 -32 -50.001s-22.667 -18.834 -38 -27.501s-32.666 -14 -51.999 -16z" />
    <glyph glyph-name="uni0437" unicode="&#x437;" horiz-adv-x="496" 
d="M60 415l-6.00391 65.001c41.333 10 91.333 15 150 15c82.667 0 139.834 -8.83301 171.501 -26.5s47.5 -52.167 47.5 -103.5c0 -36 -7.66699 -63 -23 -81s-41.666 -28.667 -78.999 -32v-3c42 -3.33301 72.5 -15.333 91.5 -36s28.5 -51.667 28.5 -93
c0 -50 -15.667 -84 -47 -102s-85.333 -27 -162 -27c-74 0 -138.667 5 -194 15l7 65c60 -5.33301 120.333 -8 181 -8c49.333 0 82.833 5.16699 100.5 15.5s26.5 30.166 26.5 59.499c0 30 -9.16699 50.667 -27.5 62s-51.166 17 -98.499 17h-116v63h116
c43.333 0 72.833 5.16699 88.5 15.5s23.5 29.833 23.5 58.5c0 28 -9.16699 46.5 -27.5 55.5s-53.833 13.5 -106.5 13.5c-57.333 0 -105.666 -2.66699 -144.999 -8z" />
    <glyph glyph-name="uni0438" unicode="&#x438;" horiz-adv-x="587" 
d="M507 0h-77.002v323c0 8 0.5 19.833 1.5 35.5s1.5 25.5 1.5 29.5h-2c-7.33301 -18 -18.666 -37 -33.999 -57l-248 -331h-70v487h77v-323c0 -19.333 -1 -41 -3 -65h2c10.667 22 22.334 40.667 35.001 56l248 332h69v-487z" />
    <glyph glyph-name="uni0439" unicode="&#x439;" horiz-adv-x="587" 
d="M374 703h64.9971c2.66699 -39.333 -9.66602 -72 -36.999 -98s-64.666 -39 -111.999 -39c-48 0 -85.833 13 -113.5 39s-40.167 58.667 -37.5 98h65c0 -28.667 7.5 -50.834 22.5 -66.501s36.167 -23.5 63.5 -23.5c26.667 0 47.334 7.83301 62.001 23.5s22 37.834 22 66.501
zM506.997 0h-77.002v323c0 8 0.5 19.833 1.5 35.5s1.5 25.5 1.5 29.5h-2c-7.33301 -18 -18.666 -37 -33.999 -57l-248 -331h-70v487h77v-323c0 -19.333 -1 -41 -3 -65h2c10.667 22 22.334 40.667 35.001 56l248 332h69v-487z" />
    <glyph glyph-name="uni043A" unicode="&#x43a;" horiz-adv-x="536" 
d="M302 255l-0.00292969 -3.00098c18 -1.33301 34 -4.33301 48 -9s27 -12.667 39 -24s22 -22 30 -32s17.333 -26.5 28 -49.5s19.167 -42.833 25.5 -59.5l29.5 -78h-89l-24 61.5c-4.66699 11.667 -11.5 27.834 -20.5 48.501s-16.167 34.667 -21.5 42l-21.5 28.5
c-9 11.667 -17.667 19.334 -26 23.001s-18.166 7.33398 -29.499 11.001s-24 5.5 -38 5.5h-5h-67c2.66699 -21.333 4 -37 4 -47v-173h-85v487h85v-145c0 -17.333 -1.66699 -36 -5 -56h68c23.333 0 43.333 4 60 12s31.834 22.167 45.501 42.5s24.834 40.166 33.501 59.499
s20 48.333 34 87h88c-8 -22 -13.833 -37.5 -17.5 -46.5l-16 -39.5c-7 -17.333 -12.5 -29.5 -16.5 -36.5s-9.33301 -16.833 -16 -29.5s-12.667 -21.667 -18 -27l-20 -19.5c-8 -7.66699 -15.833 -13.334 -23.5 -17.001s-16.5 -7 -26.5 -10s-20.667 -5.16699 -32 -6.5z" />
    <glyph glyph-name="uni043B" unicode="&#x43b;" horiz-adv-x="562" 
d="M482 487v-487.003h-85v420h-106c-20.667 0 -35.5 -4.5 -44.5 -13.5s-15.167 -24.833 -18.5 -47.5c-16 -129.333 -31.667 -214.666 -47 -255.999c-24.667 -71.333 -75.667 -107.333 -153 -108l-9 65c26 6 45 14.167 57 24.5s21.667 24.833 29 43.5
c16 40.667 30.333 122.334 43 245.001c4.66699 38.667 17 67.334 37 86.001s50 28 90 28h207z" />
    <glyph glyph-name="uni043C" unicode="&#x43c;" horiz-adv-x="748" 
d="M537 487h89c21.333 0 32 -10.667 32 -32l21 -455h-79l-19 422h-17l-124 -341c-6 -18.667 -17.333 -28 -34 -28h-66c-16.667 0 -28 9.33301 -34 28l-124 341h-17l-18 -422h-78l20 455c0 21.333 11 32 33 32h88c16.667 0 27.667 -9.33301 33 -28l101 -280
c6.66699 -18.667 13.667 -42 21 -70h16c9.33301 32.667 16.333 56 21 70l101 280c6 18.667 17.333 28 34 28z" />
    <glyph glyph-name="uni043D" unicode="&#x43d;" horiz-adv-x="582" 
d="M503 487v-487h-84v226h-256v-226h-84v487h84v-196h256v196h84z" />
    <glyph glyph-name="uni043E" unicode="&#x43e;" horiz-adv-x="571" 
d="M286 499c83.333 0 142.333 -19.333 177 -58s52 -104.667 52 -198s-17.333 -159.333 -52 -198s-93.667 -58 -177 -58c-84 0 -143.333 19.333 -178 58s-52 104.667 -52 198s17.333 159.333 52 198s94 58 178 58zM286 427c-54 0 -91 -13 -111 -39s-30 -74.333 -30 -145
s10 -119 30 -145s57 -39 111 -39c53.333 0 90 13 110 39s30 74.333 30 145s-10 119 -30 145s-56.667 39 -110 39z" />
    <glyph glyph-name="uni043F" unicode="&#x43f;" horiz-adv-x="575" 
d="M496 487v-487h-84v418h-250v-418h-83v487h417z" />
    <glyph glyph-name="uni0440" unicode="&#x440;" horiz-adv-x="583" 
d="M149 487l6.99902 -77.999c26.667 28 58.167 50 94.5 66s72.166 24 107.499 24c58.667 0 101.334 -21.333 128.001 -64s40 -107.334 40 -194.001c0 -92 -14.667 -157.167 -44 -195.5s-76 -57.5 -140 -57.5c-65.333 0 -125.333 16.667 -180 50
c2.66699 -28 3.33398 -60.667 2.00098 -98v-141h-84v688h69zM163.999 350.001l0.000976562 -258c68 -20 120 -30 156 -30c44 0 74.667 12.333 92 37s26 72 26 142c0 68 -8.16699 115.667 -24.5 143s-43.833 41 -82.5 41c-44.667 0 -100.334 -25 -167.001 -75z" />
    <glyph glyph-name="uni0441" unicode="&#x441;" horiz-adv-x="492" 
d="M445 70l7.99902 -56.999c-47.333 -16.667 -102.666 -25 -165.999 -25c-84.667 0 -144.334 19.167 -179.001 57.5s-52 104.5 -52 198.5c0 93.333 17.5 159.166 52.5 197.499s94.5 57.5 178.5 57.5c64 0 116.333 -7.66699 157 -23l-11 -55c-44 4 -88 6 -132 6
c-58 0 -98.5 -13 -121.5 -39s-34.5 -74 -34.5 -144c0 -70.667 11.333 -119 34 -145s63.334 -39 122.001 -39c54 0 102 3.33301 144 10z" />
    <glyph glyph-name="uni0442" unicode="&#x442;" horiz-adv-x="490" 
d="M464 417h-176v-417h-85v417h-177v70h438v-70z" />
    <glyph glyph-name="uni0443" unicode="&#x443;" horiz-adv-x="532" 
d="M511 487l-194.001 -513.999c-26 -68 -56.667 -115.333 -92 -142c-42.667 -32 -103 -42.667 -181 -32l8 59c52.667 -2.66699 91.667 4.66602 117 21.999c27.333 19.333 50 52.333 68 99l9 21h-19c-15.333 -0 -25.666 7.33301 -30.999 22l-176 465h91l129 -363
c7.33301 -22 13.333 -41.667 18 -59h14l20 59l128 363h91z" />
    <glyph glyph-name="uni0444" unicode="&#x444;" horiz-adv-x="719" 
d="M399 700v-202c95.333 -4 163.333 -25.667 204 -65s61 -102.666 61 -189.999c0 -86.667 -20.333 -149.667 -61 -189s-108.667 -61 -204 -65v-190h-79v190c-95.333 4 -163.333 25.667 -204 65s-61 102.333 -61 189c0 87.333 20.333 150.666 61 189.999s108.667 61 204 65
v202h79zM323 61v366.001c-69.333 -3.33301 -117.666 -18.5 -144.999 -45.5s-41 -73.167 -41 -138.5c0 -64.667 13.667 -110.334 41 -137.001s75.666 -41.667 144.999 -45zM396 427.001v-366c68.667 3.33301 116.667 18.333 144 45s41 72.334 41 137.001
s-13.667 110.667 -41 138s-75.333 42.666 -144 45.999z" />
    <glyph glyph-name="uni0445" unicode="&#x445;" horiz-adv-x="531" 
d="M276 220h-20l-139 -220h-93l163 251l-150 236h92l125 -201h23l126 201h92l-151 -236l163 -251h-93z" />
    <glyph glyph-name="uni0446" unicode="&#x446;" horiz-adv-x="594" 
d="M556 -144h-56l-9 144h-411v487h83v-419h242v419h84v-419h67v-212z" />
    <glyph glyph-name="uni0447" unicode="&#x447;" horiz-adv-x="532" 
d="M451 487v-487h-84v205c-66.667 -24 -130 -36 -190 -36c-81.333 0 -122 35.667 -122 107v211h84v-183c0 -24 5 -40.833 15 -50.5s27 -14.5 51 -14.5c54 0 108 11.333 162 34v214h84z" />
    <glyph glyph-name="uni0448" unicode="&#x448;" horiz-adv-x="806" 
d="M726 487v-487h-647v487h83v-419h202v419h77v-419h203v419h82z" />
    <glyph glyph-name="uni0449" unicode="&#x449;" horiz-adv-x="831" 
d="M794 -144h-57l-8 144h-649v487h82v-419h202v419h77v-419h204v419h82v-419h67v-212z" />
    <glyph glyph-name="uni044A" unicode="&#x44a;" horiz-adv-x="632" 
d="M280 298h113.001c74.667 0 126 -11 154 -33s42 -61.667 42 -119c0 -58 -13.833 -97.833 -41.5 -119.5s-74.834 -32.5 -141.501 -32.5c-88 0 -157.667 2 -209 6v419h-171v68h254v-189zM280.001 62l113 -1c41.333 0 69.833 5.83301 85.5 17.5s23.5 35.167 23.5 70.5
c0 32.667 -7.5 55.167 -22.5 67.5s-43.833 18.5 -86.5 18.5h-113v-173z" />
    <glyph glyph-name="uni044B" unicode="&#x44b;" horiz-adv-x="721" 
d="M162 298h115c72 0 121.667 -11 149 -33s41 -61.667 41 -119c0 -58 -13.333 -97.833 -40 -119.5s-72.334 -32.5 -137.001 -32.5c-87.333 0 -156.666 2 -207.999 6h-3v487h83v-189zM642 487v-487h-86v487h86zM162 62l115 -1c39.333 0 66.5 5.83301 81.5 17.5
s22.5 35.167 22.5 70.5c0 32.667 -7.33301 55.167 -22 67.5s-42 18.5 -82 18.5h-115v-173z" />
    <glyph glyph-name="uni044C" unicode="&#x44c;" horiz-adv-x="516" 
d="M162 298h115c74.667 0 126 -11 154 -33s42 -61.667 42 -119c0 -58 -13.833 -97.833 -41.5 -119.5s-74.834 -32.5 -141.501 -32.5c-87.333 0 -156.666 2 -207.999 6h-3v487h83v-189zM162 62l115 -1c41.333 0 69.833 5.83301 85.5 17.5s23.5 35.167 23.5 70.5
c0 32.667 -7.5 55.167 -22.5 67.5s-43.833 18.5 -86.5 18.5h-115v-173z" />
    <glyph glyph-name="uni044D" unicode="&#x44d;" horiz-adv-x="506" 
d="M55 417l-9 59c40.667 11.333 96 17 166 17c88 0 149.667 -18.5 185 -55.5s53 -102.5 53 -196.5c0 -92.667 -17.667 -157.667 -53 -195s-97 -56 -185 -56c-69.333 0 -126.333 6.33301 -171 19l9 60c56 -4.66699 110 -7 162 -7c54.667 0 93 10.833 115 32.5
s34.333 62.167 37 121.5h-248v64h247c-3.33301 54 -16.333 91.167 -39 111.5s-60 30.5 -112 30.5c-46.667 0 -99 -1.66699 -157 -5z" />
    <glyph glyph-name="uni044E" unicode="&#x44e;" horiz-adv-x="795" 
d="M164 284l125.001 -0.000976562c4 81.333 22.167 137.5 54.5 168.5s87.166 46.5 164.499 46.5c86 0 146 -18.167 180 -54.5s51 -103.166 51 -200.499c0 -96 -17 -162.167 -51 -198.5s-94 -54.5 -180 -54.5c-78.667 0 -134.167 16.333 -166.5 49s-49.833 92 -52.5 178h-125
v-218h-84v487h84v-203zM507.001 62.999c54 0 91.333 13 112 39s31.334 73.667 32.001 143c-0.666992 70 -11.334 117.833 -32.001 143.5s-58 38.5 -112 38.5c-52.667 0 -88.667 -12.833 -108 -38.5s-29 -73.5 -29 -143.5c0 -69.333 9.66699 -117 29 -143s55.333 -39 108 -39
z" />
    <glyph glyph-name="uni044F" unicode="&#x44f;" horiz-adv-x="543" 
d="M179 208l-0.00195312 4.00098c-39.333 5.33301 -67.666 19.166 -84.999 41.499s-26 53.833 -26 94.5c0 48 13.5 84 40.5 108s73.833 36 140.5 36c95.333 0 167 -2.33301 215 -7v-485h-83v180h-131c-47.333 0 -75.666 -16.667 -84.999 -50l-37 -130h-88l44 146
c11.333 36 43 56.667 95 62zM380.998 244.001v179c-10 0 -29.5 0.166992 -58.5 0.5s-52.833 0.5 -71.5 0.5c-39.333 0 -65.833 -6.5 -79.5 -19.5s-20.5 -35.833 -20.5 -68.5c0 -34 7.16699 -57.833 21.5 -71.5s41.5 -20.5 81.5 -20.5h127z" />
    <glyph glyph-name="uni0451" unicode="&#x451;" horiz-adv-x="540" 
d="M207 587h-29c-15.333 0 -23 8 -23 24v55c0 16 7.66699 24 23 24h29c15.333 0 23 -8 23 -24v-55c0 -16 -7.66699 -24 -23 -24zM384 587h-28c-16 0 -24 8 -24 24v55c0 16 8 24 24 24h28c16 0 24 -8 24 -24v-55c0 -16 -8 -24 -24 -24zM373 202l-227.001 -0.000976562
c4.66699 -56 18.334 -93.667 41.001 -113s60 -29 112 -29c56 0 112.667 4 170 12l8 -57c-42.667 -18 -105.667 -27 -189 -27c-84 0 -143.667 19.5 -179 58.5s-53 105.167 -53 198.5c0 94 17.333 159.833 52 197.5s91.667 56.5 171 56.5c72.667 0 125.667 -13.167 159 -39.5
s50.333 -66.166 51 -119.499c0 -92 -38.667 -138 -116 -138zM144.999 267.999l206 0.00195312c36 0 53.333 24 52 72c0 31.333 -9 53.666 -27 66.999s-49 20 -93 20c-51.333 0 -87 -11.333 -107 -34s-30.333 -64.334 -31 -125.001z" />
    <glyph glyph-name="uni0452" unicode="&#x452;" horiz-adv-x="585" 
d="M188 494l0.000976562 -83.999c0 -29.333 -1.66699 -58 -5 -86c74.667 52 146 78 214 78c88.667 0 133 -44.667 133 -134v-268h-85v245c0 29.333 -6.5 50.166 -19.5 62.499s-34.833 18.5 -65.5 18.5c-44.667 0 -102.334 -21.667 -173.001 -65v-261h-85v494h-75v49h75v157
h86v-157h186v-49h-186z" />
    <glyph glyph-name="uni0453" unicode="&#x453;" horiz-adv-x="462" 
d="M423 669l-192 -121l-29 39l172 147zM77 0v383.001c0 70.667 36 106 108 106c116.667 0 201.667 -2.66699 255 -8l-3 -60h-217c-20.667 0 -35.667 -4.83301 -45 -14.5s-14 -24.834 -14 -45.501v-361h-84z" />
    <glyph glyph-name="uni0454" unicode="&#x454;" horiz-adv-x="507" 
d="M457 69l8 -60c-43.333 -12.667 -100 -19 -170 -19c-88 0 -149.833 18.667 -185.5 56s-53.5 102.333 -53.5 195c0 94 17.833 159.5 53.5 196.5s97.5 55.5 185.5 55.5c70 0 125 -5.66699 165 -17l-8 -59c-58 3.33301 -110.333 5 -157 5c-52 0 -89.333 -10.167 -112 -30.5
s-35.667 -57.5 -39 -111.5h248v-64h-249c2.66699 -58.667 15 -99 37 -121s60.333 -33 115 -33c52 0 106 2.33301 162 7z" />
    <glyph glyph-name="uni0455" unicode="&#x455;" horiz-adv-x="511" 
d="M302 197l-140.001 32c-40 9.33301 -68.333 24.333 -85 45s-25 51 -25 91c0 54 14.167 90.167 42.5 108.5s77.5 26.833 147.5 25.5c77.333 -1.33301 145.333 -6.33301 204 -15l-6 -62c-103.333 3.33301 -165.333 5 -186 5c-49.333 0.666992 -81.666 -2.33301 -96.999 -9
s-23 -24.334 -23 -53.001c0 -23.333 5.16699 -39.333 15.5 -48s28.833 -16 55.5 -22l142 -32c40 -10 68.833 -24.833 86.5 -44.5s26.5 -49.5 26.5 -89.5c0 -56.667 -15.667 -94.167 -47 -112.5s-85 -27.5 -161 -27.5c-68 0 -131.333 4.66699 -190 14l6 62
c56 -3.33301 111.667 -4.66602 167 -3.99902c56.667 0 94.667 4.33301 114 13s29 27 29 55c0 22 -5.83301 37.167 -17.5 45.5s-31.167 15.833 -58.5 22.5z" />
    <glyph glyph-name="uni0456" unicode="&#x456;" horiz-adv-x="251" 
d="M106 694h40c16.667 0 25 -8.66699 25 -26v-57c0 -17.333 -8.33301 -26 -25 -26h-40c-17.333 0 -26 8.66699 -26 26v57c0 17.333 8.66699 26 26 26zM168 0h-85v487h85v-487z" />
    <glyph glyph-name="uni0457" unicode="&#x457;" horiz-adv-x="251" 
d="M22 690h29c15.333 0 23 -8 23 -24v-55c0 -16 -7.66699 -24 -23 -24h-29c-15.333 0 -23 8 -23 24v55c0 16 7.66699 24 23 24zM200 690h28c16 0 24 -8 24 -24v-55c0 -16 -8 -24 -24 -24h-28c-16 0 -24 8 -24 24v55c0 16 8 24 24 24zM168 0h-85v487h85v-487z" />
    <glyph glyph-name="uni0458" unicode="&#x458;" horiz-adv-x="252" 
d="M106 694h40c17.333 0 26 -8.66699 26 -26v-57c0 -17.333 -8.66699 -26 -26 -26h-40c-16.667 0 -25 8.66699 -25 26v57c0 17.333 8.33301 26 25 26zM169 487v-498.999c0 -38.667 -8.33301 -74.667 -25 -108s-39.667 -61 -69 -83l-47 37
c36.667 45.333 55 96.666 55 153.999v499h86z" />
    <glyph glyph-name="uni0459" unicode="&#x459;" horiz-adv-x="803" 
d="M458 301l109.002 -0.00195312c73.333 0 123.666 -11.167 150.999 -33.5s41 -62.5 41 -120.5c0 -60 -14 -100.5 -42 -121.5s-76 -31.5 -144 -31.5c-81.333 0 -146.666 2 -195.999 6v422h-82c-18.667 0 -32.334 -3.66699 -41.001 -11s-14 -19.666 -16 -36.999
c-8.66699 -80 -16.334 -138.5 -23.001 -175.5s-16.667 -70.5 -30 -100.5c-26.667 -67.333 -76.667 -101 -150 -101l-7 58c38 14.667 64.333 36 79 64c14 26.667 23.833 55.834 29.5 87.501s13.5 92.5 23.5 182.5c6 65.333 43.333 98 112 98h186v-186zM458.002 61.998l102 -1
c43.333 0 73 5.66699 89 17s24 35.333 24 72c0 33.333 -7.5 56.5 -22.5 69.5s-42.833 19.5 -83.5 19.5h-109v-177z" />
    <glyph glyph-name="uni045A" unicode="&#x45a;" horiz-adv-x="810" 
d="M464 300l111.001 0.000976562c73.333 0 123.666 -11 150.999 -33s41 -62 41 -120c0 -58.667 -13.5 -98.834 -40.5 -120.501s-73.167 -32.5 -138.5 -32.5c-85.333 0 -153.333 2 -204 6v238h-226v-238h-78v487h78v-188h226v188h80v-187zM464.001 62.001l111 -1
c40 0 67.667 6 83 18s23 35.667 23 71c0 33.333 -7.33301 56.333 -22 69s-42.667 19 -84 19h-111v-176z" />
    <glyph glyph-name="uni045B" unicode="&#x45b;" horiz-adv-x="585" 
d="M188 494l0.00195312 -83.999c0 -29.333 -1.66699 -58 -5 -86c74.667 52 146 78 214 78c87.333 0 131.666 -44.667 132.999 -134v-280c0 -38.667 -8.33301 -74.667 -25 -108s-39.667 -61 -69 -83l-47 37c37.333 46 56 97.333 56 154v257
c0 29.333 -6.5 50.166 -19.5 62.499s-34.833 18.5 -65.5 18.5c-44.667 0 -102.334 -21.667 -173.001 -65v-261h-85v494h-75v49h75v157h86v-157h186v-49h-186z" />
    <glyph glyph-name="uni045C" unicode="&#x45c;" horiz-adv-x="536" 
d="M243 548l-29 39l172 147l49 -65zM302 255l-0.00292969 -3.00098c18 -1.33301 34 -4.33301 48 -9s27 -12.667 39 -24s22 -22 30 -32s17.333 -26.5 28 -49.5s19.167 -42.833 25.5 -59.5l29.5 -78h-89l-24 61.5c-4.66699 11.667 -11.5 27.834 -20.5 48.501
s-16.167 34.667 -21.5 42l-21.5 28.5c-9 11.667 -17.667 19.334 -26 23.001s-18.166 7.33398 -29.499 11.001s-24 5.5 -38 5.5h-5h-67c2.66699 -21.333 4 -37 4 -47v-173h-85v487h85v-145c0 -17.333 -1.66699 -36 -5 -56h68c23.333 0 43.333 4 60 12
s31.834 22.167 45.501 42.5s24.834 40.166 33.501 59.499s20 48.333 34 87h88c-8 -22 -13.833 -37.5 -17.5 -46.5l-16 -39.5c-7 -17.333 -12.5 -29.5 -16.5 -36.5s-9.33301 -16.833 -16 -29.5s-12.667 -21.667 -18 -27l-20 -19.5c-8 -7.66699 -15.833 -13.334 -23.5 -17.001
s-16.5 -7 -26.5 -10s-20.667 -5.16699 -32 -6.5z" />
    <glyph glyph-name="uni045D" unicode="&#x45d;" horiz-adv-x="587" 
d="M339 587l-29 -39l-192 121l49 65zM507 0h-77.002v323c0 8 0.5 19.833 1.5 35.5s1.5 25.5 1.5 29.5h-2c-7.33301 -18 -18.666 -37 -33.999 -57l-248 -331h-70v487h77v-323c0 -19.333 -1 -41 -3 -65h2c10.667 22 22.334 40.667 35.001 56l248 332h69v-487z" />
    <glyph glyph-name="uni045E" unicode="&#x45e;" horiz-adv-x="532" 
d="M350 703h64.9971c2.66699 -39.333 -9.66602 -72 -36.999 -98s-64.666 -39 -111.999 -39c-48 0 -85.833 13 -113.5 39s-40.167 58.667 -37.5 98h65c0 -28.667 7.5 -50.834 22.5 -66.501s36.167 -23.5 63.5 -23.5c26.667 0 47.334 7.83301 62.001 23.5s22 37.834 22 66.501
zM510.997 487l-194.001 -513.999c-26 -68 -56.667 -115.333 -92 -142c-42.667 -32 -103 -42.667 -181 -32l8 59c52.667 -2.66699 91.667 4.66602 117 21.999c27.333 19.333 50 52.333 68 99l9 21h-19c-15.333 -0 -25.666 7.33301 -30.999 22l-176 465h91l129 -363
c7.33301 -22 13.333 -41.667 18 -59h14l20 59l128 363h91z" />
    <glyph glyph-name="uni045F" unicode="&#x45f;" horiz-adv-x="580" 
d="M500 487v-487h-175l-7 -165h-57l-8 165h-173v487h85v-419h250v419h85z" />
    <glyph glyph-name="uni0490" unicode="&#x490;" horiz-adv-x="523" 
d="M498 616h-258.002c-24 0 -41.333 -5.5 -52 -16.5s-16 -29.167 -16 -54.5v-545h-87v561c0 38 11.833 69.167 35.5 93.5s53.834 36.5 90.501 36.5c100.667 0 175.334 -2 224.001 -6l10 157h57v-165z" />
    <glyph glyph-name="uni0491" unicode="&#x491;" horiz-adv-x="464" 
d="M442 633v-152l-4 -60h-218c-20 0.666992 -34.667 -3.83301 -44 -13.5s-14 -25.167 -14 -46.5v-361h-85v383c0 70.667 36 106 108 106c86 0 149.667 -1 191 -3l9 147h57z" />
    <glyph glyph-name="uni04B0" unicode="&#x4b0;" horiz-adv-x="580" 
d="M484 223h-149v-223h-88v223h-150v52h133l-212 415h93l145 -291c3.33301 -6.66699 14 -32.667 32 -78h7c12.667 36 23 61.667 31 77l145 292h92l-211 -415h132v-52z" />
    <glyph glyph-name="uni04B1" unicode="&#x4b1;" horiz-adv-x="584" 
d="M353 74h133.002v-54h-150v-221h-87v221h-151v54h134l-213 413h93l145 -289c5.33301 -11.333 15.666 -37 30.999 -77h8c15.333 40 25.666 65.667 30.999 77l145 289h93z" />
    <glyph glyph-name="uni04B6" unicode="&#x4b6;" horiz-adv-x="653" 
d="M621 61v-212.001h-60l-9 151h-101v311c-76 -40 -153.333 -60 -232 -60c-54 0 -94 12.833 -120 38.5s-39 64.834 -39 117.501v283h89v-265c-0.666992 -34 6.83301 -58.667 22.5 -74s41.167 -23 76.5 -23c64 0 131.667 17.667 203 53v309h89v-629h81z" />
    <glyph glyph-name="uni04B7" unicode="&#x4b7;" horiz-adv-x="556" 
d="M519 68v-212h-57l-8 144h-87v205c-66.667 -24 -130 -36 -190 -36c-81.333 0 -122 35.667 -122 107v211h84v-183c0 -24 5 -40.833 15 -50.5s27 -14.5 51 -14.5c54 0 108 11.333 162 34v214h84v-419h68z" />
    <glyph glyph-name="uni04BA" unicode="&#x4ba;" horiz-adv-x="626" 
d="M175 690l-0.000976562 -309.999c74.667 39.333 152.334 59 233.001 59c53.333 0 93 -12.833 119 -38.5s39 -64.834 39 -117.501v-283h-88v265c0.666992 34 -6.83301 58.667 -22.5 74s-41.5 23 -77.5 23c-65.333 0 -133 -17.667 -203 -53v-309h-88v690h88z" />
    <glyph glyph-name="uni04C0" unicode="&#x4c0;" horiz-adv-x="263" 
d="M175 0h-87v690h87v-690z" />
    <glyph glyph-name="Wgrave" unicode="&#x1e80;" horiz-adv-x="948" 
d="M524 766l-29 -39l-192 121l49 65zM917 690l-139.999 -663.999c-4.66699 -17.333 -16.334 -26 -35.001 -26h-100c-19.333 0 -30.666 9 -33.999 27l-108 519c-4 17.333 -9.33301 43.333 -16 78h-21l-15 -78l-107 -519c-4.66699 -18 -16.334 -27 -35.001 -27h-101
c-8.66699 0 -16.167 2.5 -22.5 7.5s-10.166 11.167 -11.499 18.5l-140 664h93l108 -538c1.33301 -6 6 -34.333 14 -85h23c5.33301 31.333 10.666 59.666 15.999 84.999l107 509c3.33301 19.333 14.666 29 33.999 29h96c18 0 29.333 -9.66699 34 -29l107 -509
c6.66699 -32.667 11.334 -61 14.001 -85h25c6 40 10.333 68 13 84l109 539h93z" />
    <glyph glyph-name="wgrave" unicode="&#x1e81;" horiz-adv-x="824" 
d="M462 587l-29 -39l-192 121l49 65zM799 487l-142.002 -463.001c-4 -16 -15 -24 -33 -24h-77c-8 0 -15.167 2.5 -21.5 7.5s-10.166 11.5 -11.499 19.5l-80 331c-2 9.33301 -4.66699 22.5 -8 39.5s-6 29.5 -8 37.5h-12l-17 -77l-79 -331c-4.66699 -18 -16 -27 -34 -27h-76
c-18 0 -29 8 -33 24l-142 463h88l101 -359c6 -20.667 11.333 -45 16 -73h13l18 73l81 332c3.33301 18 14 27 32 27h77c16.667 0 27.334 -9.33301 32.001 -28l80 -331c1.33301 -7.33301 4 -19.166 8 -35.499l9 -37.5h13l6.5 31.5c3.66699 17.667 7.16699 31.5 10.5 41.5
l101 359h88z" />
    <glyph glyph-name="Wacute" unicode="&#x1e82;" horiz-adv-x="948" 
d="M630 848l-191 -121l-30 39l173 147zM917 690l-139.999 -663.999c-4.66699 -17.333 -16.334 -26 -35.001 -26h-100c-19.333 0 -30.666 9 -33.999 27l-108 519c-4 17.333 -9.33301 43.333 -16 78h-21l-15 -78l-107 -519c-4.66699 -18 -16.334 -27 -35.001 -27h-101
c-8.66699 0 -16.167 2.5 -22.5 7.5s-10.166 11.167 -11.499 18.5l-140 664h93l108 -538c1.33301 -6 6 -34.333 14 -85h23c5.33301 31.333 10.666 59.666 15.999 84.999l107 509c3.33301 19.333 14.666 29 33.999 29h96c18 0 29.333 -9.66699 34 -29l107 -509
c6.66699 -32.667 11.334 -61 14.001 -85h25c6 40 10.333 68 13 84l109 539h93z" />
    <glyph glyph-name="wacute" unicode="&#x1e83;" horiz-adv-x="824" 
d="M568 669l-192 -121l-29 39l172 147zM799 487l-142.002 -463.001c-4 -16 -15 -24 -33 -24h-77c-8 0 -15.167 2.5 -21.5 7.5s-10.166 11.5 -11.499 19.5l-80 331c-2 9.33301 -4.66699 22.5 -8 39.5s-6 29.5 -8 37.5h-12l-17 -77l-79 -331c-4.66699 -18 -16 -27 -34 -27h-76
c-18 0 -29 8 -33 24l-142 463h88l101 -359c6 -20.667 11.333 -45 16 -73h13l18 73l81 332c3.33301 18 14 27 32 27h77c16.667 0 27.334 -9.33301 32.001 -28l80 -331c1.33301 -7.33301 4 -19.166 8 -35.499l9 -37.5h13l6.5 31.5c3.66699 17.667 7.16699 31.5 10.5 41.5
l101 359h88z" />
    <glyph glyph-name="Wdieresis" unicode="&#x1e84;" horiz-adv-x="948" 
d="M371 869h29c15.333 0 23 -8 23 -24v-55c0 -16 -7.66699 -24 -23 -24h-29c-15.333 0 -23 8 -23 24v55c0 16 7.66699 24 23 24zM549 869h28c16 0 24 -8 24 -24v-55c0 -16 -8 -24 -24 -24h-28c-16 0 -24 8 -24 24v55c0 16 8 24 24 24zM917 690l-139.999 -663.999
c-4.66699 -17.333 -16.334 -26 -35.001 -26h-100c-19.333 0 -30.666 9 -33.999 27l-108 519c-4 17.333 -9.33301 43.333 -16 78h-21l-15 -78l-107 -519c-4.66699 -18 -16.334 -27 -35.001 -27h-101c-8.66699 0 -16.167 2.5 -22.5 7.5s-10.166 11.167 -11.499 18.5l-140 664
h93l108 -538c1.33301 -6 6 -34.333 14 -85h23c5.33301 31.333 10.666 59.666 15.999 84.999l107 509c3.33301 19.333 14.666 29 33.999 29h96c18 0 29.333 -9.66699 34 -29l107 -509c6.66699 -32.667 11.334 -61 14.001 -85h25c6 40 10.333 68 13 84l109 539h93z" />
    <glyph glyph-name="wdieresis" unicode="&#x1e85;" horiz-adv-x="824" 
d="M309 690h29c15.333 0 23 -8 23 -24v-55c0 -16 -7.66699 -24 -23 -24h-29c-15.333 0 -23 8 -23 24v55c0 16 7.66699 24 23 24zM487 690h28c16 0 24 -8 24 -24v-55c0 -16 -8 -24 -24 -24h-28c-16 0 -24 8 -24 24v55c0 16 8 24 24 24zM799 487l-142.002 -463.001
c-4 -16 -15 -24 -33 -24h-77c-8 0 -15.167 2.5 -21.5 7.5s-10.166 11.5 -11.499 19.5l-80 331c-2 9.33301 -4.66699 22.5 -8 39.5s-6 29.5 -8 37.5h-12l-17 -77l-79 -331c-4.66699 -18 -16 -27 -34 -27h-76c-18 0 -29 8 -33 24l-142 463h88l101 -359
c6 -20.667 11.333 -45 16 -73h13l18 73l81 332c3.33301 18 14 27 32 27h77c16.667 0 27.334 -9.33301 32.001 -28l80 -331c1.33301 -7.33301 4 -19.166 8 -35.499l9 -37.5h13l6.5 31.5c3.66699 17.667 7.16699 31.5 10.5 41.5l101 359h88z" />
    <glyph glyph-name="Ygrave" unicode="&#x1ef2;" horiz-adv-x="569" 
d="M304 728l-191 120l48 66l173 -147zM328 242v-242h-88v243l-229 447h94l145 -291c8 -16 18.333 -42 31 -78h7c10.667 29.333 21 55 31 77l145 292h93z" />
    <glyph glyph-name="ygrave" unicode="&#x1ef3;" horiz-adv-x="529" 
d="M287 548l-191 121l48 65l173 -147zM510 487l-195 -513.999c-42.667 -114.667 -113.667 -174.334 -213 -179.001l-8 56c38 12 67.833 28.5 89.5 49.5s39.167 47.5 52.5 79.5l8 21h-19c-16 -0 -26 7.33301 -30 22l-177 465h91l129 -363c9.33301 -27.333 15.333 -47 18 -59
h14c5.33301 13.333 12.333 33 21 59l127 363h92z" />
    <glyph glyph-name="endash" unicode="&#x2013;" horiz-adv-x="592" 
d="M520 220h-448v65h448v-65z" />
    <glyph glyph-name="emdash" unicode="&#x2014;" horiz-adv-x="896" 
d="M824 220h-752v65h752v-65z" />
    <glyph glyph-name="quoteleft" unicode="&#x2018;" horiz-adv-x="217" 
d="M121 496l-25.001 0.000976562c-11.333 0 -19.333 2.16699 -24 6.5s-7 12.166 -7 23.499v60c0.666992 51.333 12.334 99.333 35.001 144l40 -11c-6.66699 -36 -10 -73.333 -10 -112c16.667 0 24.334 -8.66699 23.001 -26v-55c-0.666992 -20 -11.334 -30 -32.001 -30z" />
    <glyph glyph-name="quoteright" unicode="&#x2019;" horiz-adv-x="214" 
d="M95 723l25.001 -0.000976562c11.333 0 19.333 -2.16699 24 -6.5s7 -12.166 7 -23.499v-60c-0.666992 -52 -12.334 -99.667 -35.001 -143l-40 10c6.66699 36 10 73.333 10 112c-16.667 0 -24.334 8.66699 -23.001 26v55c0.666992 20 11.334 30 32.001 30z" />
    <glyph glyph-name="quotesinglbase" unicode="&#x201a;" horiz-adv-x="228" 
d="M103 111l25.002 -0.000976562c11.333 0 19.333 -2.16699 24 -6.5s7 -12.166 7 -23.499v-59c-0.666992 -51.333 -12.334 -99.333 -35.001 -144l-41 11c6.66699 36 10 73.333 10 112c-16.667 0 -24.334 8.33301 -23.001 25v55c0.666992 20 11.667 30 33 30z" />
    <glyph glyph-name="quotedblleft" unicode="&#x201c;" horiz-adv-x="369" 
d="M273 496l-24.001 0.000976562c-11.333 0 -19.333 2.16699 -24 6.5s-7 12.166 -7 23.499v60c0.666992 52.667 12 100.667 34 144l41 -11c-6.66699 -36 -10 -73.333 -10 -112c16.667 0 24.334 -8.66699 23.001 -26v-55c-0.666992 -20 -11.667 -30 -33 -30zM120.999 496.001
l-25.001 0.000976562c-11.333 0 -19.333 2.16699 -24 6.5s-7 12.166 -7 23.499v60c0.666992 51.333 12.334 99.333 35.001 144l40 -11c-6.66699 -36 -10 -73.333 -10 -112c16.667 0 24.334 -8.66699 23.001 -26v-55c-0.666992 -20 -11.334 -30 -32.001 -30z" />
    <glyph glyph-name="quotedblright" unicode="&#x201d;" horiz-adv-x="367" 
d="M95 723l25.001 -0.000976562c11.333 0 19.333 -2.16699 24 -6.5s7 -12.166 7 -23.499v-60c-0.666992 -52 -12.334 -99.667 -35.001 -143l-40 10c6.66699 36 10 73.333 10 112c-16.667 0 -24.334 8.66699 -23.001 26v55c0.666992 20 11.334 30 32.001 30zM248.001 722.999
l25 -0.000976562c11.333 0 19.166 -2.16699 23.499 -6.5s6.5 -12.166 6.5 -23.499v-60c-1.33301 -53.333 -12.666 -101 -33.999 -143l-40 10c6.66699 42 10 79.333 10 112c-16 0 -24 8.66699 -24 26v55c0.666992 20 11.667 30 33 30z" />
    <glyph glyph-name="quotedblbase" unicode="&#x201e;" horiz-adv-x="381" 
d="M102 111l25.001 -0.000976562c11.333 0 19.333 -2.16699 24 -6.5s7 -12.166 7 -23.499v-59c-0.666992 -51.333 -12.334 -99.333 -35.001 -144l-40 11c6.66699 36 10 73.333 10 112c-16.667 0 -24.334 8.33301 -23.001 25v55c0.666992 20 11.334 30 32.001 30z
M255.001 110.999l25.001 -0.00195312c11.333 0 19.166 -2.16699 23.499 -6.5s6.5 -12.166 6.5 -23.499v-59c-0.666992 -52.667 -12 -100.667 -34 -144l-40 11c6.66699 36 10 73.333 10 112c-16 0 -24 8.33301 -24 25v55c0.666992 10.667 3.5 18.334 8.5 23.001
s13.167 7 24.5 7z" />
    <glyph glyph-name="dagger" unicode="&#x2020;" horiz-adv-x="453" 
d="M262 -110h-70v592l-4 209h77l-3 -209v-592zM411 487v-75l-131 10v65h131zM43 412v75h130v-65z" />
    <glyph glyph-name="daggerdbl" unicode="&#x2021;" horiz-adv-x="491" 
d="M280 485v-390l4 -205h-78l4 205v390l-4 206h78zM192 422l-131 -10v75h131v-65zM429 412l-130 10v65h130v-75zM192 159v-65h-131v75zM429 94h-130v65l130 10v-75z" />
    <glyph glyph-name="bullet" unicode="&#x2022;" horiz-adv-x="363" 
d="M177 358h12c31.333 0 53 -6 65 -18s18 -33.667 18 -65v-12c0 -32.667 -6 -55.167 -18 -67.5s-33.667 -18.5 -65 -18.5h-12c-32.667 0 -55.167 6.16699 -67.5 18.5s-18.5 34.833 -18.5 67.5v12c0 31.333 6.16699 53 18.5 65s34.833 18 67.5 18z" />
    <glyph glyph-name="ellipsis" unicode="&#x2026;" horiz-adv-x="845" 
d="M97 118h29c11.333 0 19.333 -2.33301 24 -7s7 -13 7 -25v-54c0 -12 -2.33301 -20.333 -7 -25s-12.667 -7 -24 -7h-29c-11.333 -0 -19.333 2.33301 -24 7s-7 13 -7 25v54c0 12 2.33301 20.333 7 25s12.667 7 24 7zM406 118h28c11.333 0 19.333 -2.33301 24 -7s7 -13 7 -25
v-54c0 -12 -2.33301 -20.333 -7 -25s-12.667 -7 -24 -7h-28c-12 -0 -20.333 2.33301 -25 7s-7 13 -7 25v54c0 12 2.33301 20.333 7 25s13 7 25 7zM714 118h28c11.333 0 19.5 -2.33301 24.5 -7s7.5 -13 7.5 -25v-54c0 -12 -2.5 -20.333 -7.5 -25s-13.167 -7 -24.5 -7h-28
c-12 -0 -20.333 2.33301 -25 7s-7 13 -7 25v54c0 12 2.33301 20.333 7 25s13 7 25 7z" />
    <glyph glyph-name="perthousand" unicode="&#x2030;" horiz-adv-x="1267" 
d="M207 703c59.333 0 101 -15.667 125 -47s36 -84 36 -158s-12 -126.667 -36 -158s-65.667 -47 -125 -47c-58.667 0 -100 15.667 -124 47s-36 84 -36 158s12 126.667 36 158s65.333 47 124 47zM252 0h-60l447 690h60zM207 649c-36 0 -60.833 -11 -74.5 -33
s-20.5 -61.333 -20.5 -118s6.83301 -96 20.5 -118s38.5 -33 74.5 -33s60.833 11 74.5 33s20.5 61.333 20.5 118s-6.83301 96 -20.5 118s-38.5 33 -74.5 33zM686 400c58.667 0 100 -15.667 124 -47s36 -83.666 36 -156.999c0 -74 -12 -126.667 -36 -158s-65.333 -47 -124 -47
s-100 15.667 -124 47s-36 84 -36 158c0 73.333 12 125.666 36 156.999s65.333 47 124 47zM1057 400c59.333 0 101 -15.667 125 -47s36 -83.666 36 -156.999c0 -74 -12 -126.667 -36 -158s-65.667 -47 -125 -47c-58.667 0 -100 15.667 -124 47s-36 84 -36 158
c0 73.333 12 125.666 36 156.999s65.333 47 124 47zM685 346c-36 0 -60.833 -10.832 -74.5 -32.499s-20.167 -60.834 -19.5 -117.501c-0.666992 -56.667 5.83301 -96.167 19.5 -118.5s38.5 -33.5 74.5 -33.5s61 11.167 75 33.5s21 61.833 21 118.5c0 56 -7 95 -21 117
s-39 33 -75 33zM1057 346.001c-36 0 -60.667 -10.833 -74 -32.5s-20 -60.834 -20 -117.501s6.66699 -96.167 20 -118.5s38 -33.5 74 -33.5s60.833 11 74.5 33s20.5 61.667 20.5 119c0 56.667 -6.83301 95.834 -20.5 117.501s-38.5 32.5 -74.5 32.5z" />
    <glyph glyph-name="guilsinglleft" unicode="&#x2039;" horiz-adv-x="285" 
d="M241 429l-126 -178l127 -182l-45 -30l-161 202v20l160 198z" />
    <glyph glyph-name="guilsinglright" unicode="&#x203a;" horiz-adv-x="287" 
d="M249 261v-20l-162 -202l-44 30l127 182l-126 178l44 30z" />
    <glyph glyph-name="fraction" unicode="&#x2044;" horiz-adv-x="160" 
d="M-113 0h-61l447 690h61z" />
    <glyph glyph-name="Euro" unicode="&#x20ac;" horiz-adv-x="639" 
d="M578 79l9.00391 -68.0029c-51.333 -15.333 -110.333 -23 -177 -23c-87.333 0 -152.333 22.333 -195 67s-68.334 113.334 -77.001 206.001h-85v53h82v31c0 21.333 0.333008 37 1 47h-83v53h87c10 86.667 36.167 151.167 78.5 193.5s106.166 63.5 191.499 63.5
c62.667 0 118 -6.66699 166 -20l-10 -68c-50.667 8.66699 -104.334 11.667 -161.001 9c-52 -2 -91.667 -17.333 -119 -46s-45.333 -72.667 -54 -132h255l-7 -53h-253c0 -5.33301 -0.166992 -13.333 -0.5 -24s-0.5 -18.667 -0.5 -24l1 -30h220l-7 -53h-210
c7.33301 -65.333 24.666 -113.666 51.999 -144.999s68.333 -47.666 123 -48.999c64 -2 121.667 2 173 12z" />
    <glyph glyph-name="trademark" unicode="&#x2122;" horiz-adv-x="964" 
d="M890 316h-57.001l-16 333h-11l-92 -268c-4 -13.333 -12.667 -20 -26 -20h-47c-12 0 -20.333 6.66699 -25 20l-92 268h-12l-15 -333h-57l16 356c1.33301 16 9.33301 24 24 24h63c12.667 0 21 -6.66699 25 -20l76 -220l8.5 -29.5
c3.66699 -13 5.83398 -20.833 6.50098 -23.5h11c2 6 4.66699 15 8 27s6 21 8 27l75 219c4 13.333 12 20 24 20h66c14.667 0 22.667 -8 24 -24zM390.999 696v-51h-131v-329h-62v329h-131v51h324z" />
    <glyph glyph-name="partialdiff" unicode="&#x2202;" horiz-adv-x="572" 
d="M131 638l-0.000976562 64.999c74.667 0.666992 134.834 -3.33301 180.501 -12s85.167 -26.167 118.5 -52.5s56.166 -63.666 68.499 -111.999s16.5 -111.5 12.5 -189.5c-6 -114.667 -27.333 -201.5 -64 -260.5s-96.667 -88.5 -180 -88.5
c-40.667 0 -75.667 6.66699 -105 20s-51.666 31.666 -66.999 54.999s-26.333 48.5 -33 75.5s-9.33398 56.167 -8.00098 87.5c3.33301 67.333 22.833 121.5 58.5 162.5s85.834 61.167 150.501 60.5c69.333 -1.33301 123.333 -27.333 162 -78
c4 106.667 -14 177.834 -54 213.501s-120 53.5 -240 53.5zM267.999 63.999c28.667 0 52.668 6.16797 72.001 18.501s34.5 31 45.5 56s19.167 51.167 24.5 78.5s9.66602 61.333 12.999 102c-42.667 38.667 -90.334 58 -143.001 58c-45.333 0 -79.666 -13.333 -102.999 -40
s-36 -63.667 -38 -111c-2 -48.667 7.5 -87.834 28.5 -117.501s54.5 -44.5 100.5 -44.5z" />
    <glyph glyph-name="emptyset" unicode="&#x2205;" horiz-adv-x="685" 
d="M343 633c80.667 0 149.5 -28.5 206.5 -85.5s85.5 -125.833 85.5 -206.5s-28.5 -149.667 -85.5 -207s-125.833 -86 -206.5 -86s-149.667 28.667 -207 86s-86 126.333 -86 207s28.667 149.5 86 206.5s126.333 85.5 207 85.5zM312 241l54 0.000976562
c0 23.333 4.83301 44.833 14.5 64.5s20.5 35.167 32.5 46.5s22.833 25.833 32.5 43.5s14.5 36.5 14.5 56.5c0 62 -39 93 -117 93c-34 0 -74.667 -3.66699 -122 -11l3 -45c40 6 79.667 9 119 9c44 0 66 -15.333 66 -46c0 -14 -5 -28.833 -15 -44.5
s-21.167 -29.834 -33.5 -42.501s-23.5 -30 -33.5 -52s-15 -46 -15 -72zM359 171.001h-39c-4.66699 0 -7 -2.66699 -7 -8v-37c0 -4.66699 2.33301 -7 7 -7h39c5.33301 0 8 2.33301 8 7v37c0 5.33301 -2.66699 8 -8 8z" />
    <glyph glyph-name="product" unicode="&#x220f;" horiz-adv-x="722" 
d="M683 618h-104v-721h-84v721h-268v-721h-84v721h-104v72h644v-72z" />
    <glyph glyph-name="summation" unicode="&#x2211;" horiz-adv-x="590" 
d="M528 618h-370l166 -270l-180 -386h394v-71h-489v71l180 386l-168 270v72h467v-72z" />
    </font>
</defs>
</svg>
